<svg width="134" height="130" viewBox="0 0 134 130" fill="none" xmlns="http://www.w3.org/2000/svg">
<g clip-path="url(#clip0)">
<path d="M119.616 108.429C119.616 108.429 117.535 108.53 116.837 108.473C116.476 108.445 115.393 108.215 115.393 108.215C115.393 108.215 115.085 107.091 114.777 105.798C114.866 105.758 114.858 105.669 114.841 105.596C114.829 105.548 114.801 105.447 114.691 105.439C114.598 105.038 114.509 104.634 114.44 104.263C114.489 104.25 114.614 104.214 114.659 104.109C114.732 103.931 114.505 103.616 114.44 103.628C114.046 103.309 114.562 102.533 114.72 102.537C115.251 102.553 115.827 102.557 116.444 101.915C117.06 101.272 118.387 102.218 118.89 103.022C118.902 103.042 118.914 103.062 118.926 103.087C118.999 103.236 119.299 103.285 119.36 103.572C119.689 105.115 119.616 108.429 119.616 108.429Z" fill="#F1BFBE"/>
<path d="M115.239 108.219C114.999 108.308 114.736 108.186 114.646 107.948C114.557 107.71 114.679 107.443 114.918 107.354L115.377 107.184C115.377 107.184 115.377 107.184 115.381 107.184C115.62 107.095 115.884 107.217 115.973 107.455C116.062 107.693 115.94 107.96 115.701 108.049L115.239 108.219Z" fill="#F6BFBA"/>
<path d="M115.693 106.72C115.664 106.732 115.632 106.74 115.599 106.744L114.76 106.869C114.508 106.905 114.273 106.732 114.236 106.481C114.2 106.231 114.374 105.996 114.626 105.96L115.465 105.835C115.717 105.798 115.952 105.972 115.989 106.223C116.021 106.437 115.891 106.643 115.693 106.72Z" fill="#F6BFBA"/>
<path d="M115.28 105.196C115.251 105.208 115.219 105.216 115.186 105.22L114.347 105.346C114.095 105.382 113.86 105.208 113.819 104.958C113.783 104.707 113.953 104.473 114.209 104.432L115.048 104.307C115.3 104.271 115.535 104.444 115.576 104.695C115.608 104.913 115.483 105.119 115.28 105.196Z" fill="#F6BFBA"/>
<path d="M115.081 103.685C114.979 103.721 114.862 103.725 114.752 103.681L114.095 103.422C113.856 103.329 113.742 103.062 113.835 102.824C113.929 102.586 114.196 102.472 114.436 102.565L115.093 102.824C115.332 102.917 115.446 103.184 115.352 103.422C115.3 103.551 115.198 103.64 115.081 103.685Z" fill="#F6BFBA"/>
<path d="M117.287 103.269C117.02 103.01 116.772 102.735 116.525 102.46C116.403 102.323 116.285 102.177 116.168 102.036C116.05 101.891 115.924 101.757 115.815 101.608L116.35 101.785C116.233 101.798 116.115 101.81 115.993 101.814C115.932 101.814 115.876 101.818 115.819 101.814L115.742 101.81C115.73 101.81 115.726 101.806 115.722 101.802L115.746 101.79L115.762 101.777C115.835 101.741 115.92 101.656 115.953 101.571C115.969 101.523 115.985 101.511 115.989 101.377C115.997 101.256 115.884 101.066 115.766 101.018C115.713 100.989 115.653 100.973 115.636 100.973H115.632H115.62C115.604 100.973 115.588 100.973 115.571 100.973C115.807 100.969 116.001 101.159 116.006 101.393C116.01 101.628 115.819 101.822 115.584 101.826C115.559 101.826 115.535 101.826 115.511 101.826H115.494H115.486C115.466 101.822 115.405 101.81 115.352 101.781C115.231 101.729 115.117 101.539 115.121 101.418C115.121 101.284 115.141 101.272 115.158 101.224C115.194 101.131 115.279 101.046 115.361 101.01L115.389 100.993L115.434 100.973L115.498 100.941L115.596 100.892C115.657 100.86 115.717 100.836 115.774 100.812C115.892 100.763 116.01 100.723 116.131 100.69C116.302 100.642 116.476 100.69 116.594 100.804L116.667 100.868C116.805 100.993 116.926 101.135 117.056 101.264C117.182 101.398 117.312 101.531 117.437 101.668C117.685 101.943 117.928 102.222 118.155 102.513C118.35 102.767 118.301 103.127 118.05 103.321C117.811 103.487 117.49 103.462 117.287 103.269Z" fill="#F6BFBA"/>
<path d="M124.325 72.3466C123.729 73.8256 118.946 74.4237 113.652 73.6801C108.355 72.9366 104.55 71.1383 105.15 69.6593C105.747 68.1803 110.529 67.5862 115.823 68.3257C121.116 69.0653 124.925 70.8676 124.325 72.3466Z" fill="#655353"/>
<path d="M115.818 70.2735C111.316 69.6431 107.198 69.9786 105.693 71.005C106.918 72.1001 109.908 73.1548 113.652 73.6801C118.155 74.3105 122.272 73.9711 123.777 72.9487C122.552 71.8536 119.558 70.7989 115.818 70.2735Z" fill="#362C2C"/>
<path d="M116.5 70.4513C116.451 71.2999 115.027 71.9101 113.32 71.8172C111.608 71.7242 110.261 70.9564 110.31 70.1119C110.359 69.2632 111.782 68.653 113.49 68.746C115.198 68.8389 116.545 69.6027 116.5 70.4513Z" fill="#F1BFBE"/>
<path d="M125.923 94.3743C126.029 95.9665 121.977 98.5648 116.882 100.177C111.787 101.79 107.572 101.81 107.471 100.218C107.365 98.6255 111.418 96.0271 116.513 94.4147C121.607 92.8023 125.822 92.7862 125.923 94.3743Z" fill="#655353"/>
<path d="M117.353 96.1766C113.02 97.5506 109.455 99.6317 108.542 101.204C110.124 101.66 113.276 101.321 116.878 100.181C121.21 98.8073 124.776 96.7262 125.689 95.1542C124.111 94.6976 120.955 95.037 117.353 96.1766Z" fill="#362C2C"/>
<path d="M118.832 96.9888C119.096 97.7971 117.993 98.88 116.366 99.4135C114.739 99.9428 113.202 99.7206 112.938 98.9124C112.675 98.1042 113.778 97.0212 115.405 96.4878C117.035 95.9584 118.569 96.1806 118.832 96.9888Z" fill="#F1BFBE"/>
<path d="M68.549 65.0242C67.9487 65.0444 66.4032 65.202 65.7866 65.2667L64.1113 65.0202C63.7097 64.9596 63.3324 65.2384 63.2716 65.6385C63.2108 66.0385 63.4906 66.4143 63.8922 66.475L64.9631 66.6326C64.9388 66.6891 64.9185 66.7498 64.8942 66.8063L63.1783 66.6568C62.7727 66.6204 62.4157 66.9195 62.3792 67.3236C62.3427 67.7277 62.6429 68.0833 63.0485 68.1197L64.452 68.2409C64.5413 68.2975 64.5332 68.3783 64.5088 68.447C64.4885 68.5076 64.4317 68.6288 64.2005 68.6369C64.1924 68.6531 64.1884 68.6733 64.1843 68.6894L62.367 68.6127C61.9573 68.5965 61.6166 68.9117 61.5963 69.3158C61.5801 69.7199 61.8965 70.0634 62.3021 70.0836L64.0748 70.1604C64.1235 70.1846 64.1681 70.217 64.1965 70.2533C64.2898 70.3786 64.1802 70.5483 64.0464 70.6736L62.3062 70.9605C61.9046 71.0252 61.6328 71.405 61.6977 71.8051C61.7626 72.2052 62.1439 72.4759 62.5455 72.4112L64.2817 72.1243C64.3344 72.1445 64.379 72.1567 64.4155 72.1567C65.4012 72.1567 66.4681 72.1688 67.6282 72.7264L67.3889 72.88L67.0522 72.8881L66.679 72.8921H66.5005C66.4762 72.8921 66.4518 72.8921 66.4356 72.8962C66.3869 72.884 66.3423 72.88 66.2896 72.876C66.2652 72.876 66.2652 72.8719 66.2247 72.8719H66.1963H66.1801L66.1192 72.88C66.0949 72.884 66.0705 72.8881 66.0503 72.8962L66.0178 72.9043L65.9854 72.9164C65.9245 72.9406 65.8393 72.981 65.7541 73.0659C65.669 73.1467 65.5878 73.276 65.5594 73.4094C65.531 73.5427 65.5473 73.6599 65.5675 73.7407C65.5797 73.7812 65.5919 73.8175 65.604 73.8458L65.6203 73.8781C65.6324 73.8983 65.6446 73.9226 65.6608 73.9428C65.7217 74.0317 65.8109 74.1125 65.9002 74.161C66.0827 74.2499 66.0503 74.2216 66.0908 74.2378L66.1354 74.254L66.2531 74.2903L66.4478 74.3509L66.825 74.4641L67.5674 74.6823C67.7783 74.7106 67.9973 74.6661 68.188 74.5409L70.5042 73.0416C71.5589 72.7588 72.6054 72.2051 73.149 71.6879C73.1733 71.6636 73.1977 71.6394 73.222 71.6111C73.3681 71.4293 73.9927 71.3848 74.1063 71.0373C74.7229 69.1663 74.3862 65.1495 74.3862 65.1495C74.3862 65.1495 70.0093 64.9757 68.549 65.0242ZM66.3139 74.2459H66.3058H66.2896C66.2652 74.2459 66.2774 74.2459 66.2734 74.2418C66.318 74.2418 66.3585 74.2378 66.3991 74.2338C66.391 74.2338 66.3829 74.2378 66.3748 74.2378L66.3139 74.2459Z" fill="#F6BFBA"/>
<path d="M115.089 53.8508C108.911 54.271 111.864 59.2981 115.141 66.9963C113.466 69.0653 111.884 71.595 111.349 74.751C110.764 78.2101 111.604 79.5073 111.953 83.7342C112.184 87.9692 111.523 89.3634 112.574 92.7174C113.47 95.5825 115.227 98.088 117.04 99.8983C114.938 107.407 113.129 112.329 119.048 111.928C127.343 111.367 131.038 101.701 132.089 88.9269C132.276 86.6559 131.546 84.3444 131.383 81.9238C131.217 79.5033 131.627 77.111 131.132 74.8844C128.353 62.3693 123.38 53.2931 115.089 53.8508Z" fill="#0270BB"/>
<path d="M117.361 70.2331C119.154 70.1119 120.638 70.4675 120.679 71.0292C120.715 71.5909 119.296 72.1445 117.499 72.2657C115.706 72.387 114.217 72.0314 114.18 71.4697C114.144 70.908 115.568 70.3543 117.361 70.2331Z" fill="#E8BAAB"/>
<path d="M119.077 95.3926C120.87 95.2714 122.293 94.7177 122.257 94.156C122.216 93.5943 120.732 93.2387 118.939 93.3599C117.142 93.4812 115.722 94.0308 115.759 94.5965C115.795 95.1582 117.28 95.5138 119.077 95.3926Z" fill="#E8BAAB"/>
<path d="M116.261 71.0211C123.96 70.4998 130.564 75.3935 131.01 81.948C131.456 88.5026 125.579 94.2409 117.88 94.7581C111.6 95.1824 106.051 92.0021 103.974 87.262C103.508 86.1911 104.846 83.718 104.846 83.718C104.846 83.718 103.305 80.6064 103.917 79.1395C105.739 74.7348 110.489 71.409 116.261 71.0211Z" fill="#EBC584"/>
<path d="M118.268 64.6848L112.918 64.8707L107.567 65.0889L96.8746 65.5778L97.7183 65.4162L85.9872 68.4793L80.1297 70.0351L74.2803 71.6192L72.1426 64.3857L77.9189 62.5592L83.6872 60.7003L95.2074 56.9341C95.3575 56.8856 95.5076 56.8492 95.6577 56.829L96.0471 56.7765L106.647 55.2813L113.356 54.1619L116.905 54.4973L118.268 64.6848Z" fill="#0270BB"/>
<path d="M129.586 78.8365C131.606 78.8446 133.245 80.9742 133.237 83.5968C133.229 86.2154 131.582 88.337 129.562 88.3329C127.538 88.3289 125.903 86.1993 125.911 83.5766C125.919 80.954 127.566 78.8325 129.586 78.8365Z" fill="#BD9E6A"/>
<path d="M130.357 78.8406C132.377 78.8446 134.008 80.9783 134 83.6009C133.991 86.2236 132.349 88.3411 130.329 88.337C128.304 88.333 126.67 86.2034 126.678 83.5807C126.686 80.9541 128.329 78.8325 130.357 78.8406Z" fill="#D9B67A"/>
<path d="M73.0881 64.0558L72.0088 64.3949L74.31 71.6634L75.3894 71.3243L73.0881 64.0558Z" fill="#C9C9C9"/>
<path d="M35.4281 23.9391C37.4117 22.8237 41.2125 25.7818 43.9141 30.5502C46.6198 35.3186 47.2079 40.0911 45.2243 41.2064C43.2407 42.3217 39.4399 39.3637 36.7383 34.5953C34.0327 29.8268 33.4485 25.0544 35.4281 23.9391Z" fill="#655353"/>
<path d="M43.4596 41.3155C44.1938 39.3637 42.7619 35.4883 39.8047 31.8676C38.0159 29.6733 36.0201 28.0124 34.2637 27.1072C34.3407 29.152 35.1926 31.8716 36.7381 34.5953C38.7744 38.1756 41.4233 40.7376 43.4596 41.3155Z" fill="#362C2C"/>
<path d="M40.6286 24.6624C43.0666 25.22 44.5471 27.8184 43.9387 30.4693C43.3262 33.1162 40.8558 34.8094 38.4138 34.2477C35.9759 33.69 34.4913 31.0876 35.1038 28.4407C35.7163 25.7939 38.1867 24.1047 40.6286 24.6624Z" fill="black"/>
<path d="M57.4831 9.68632C55.8281 11.2462 57.548 15.7357 61.3286 19.7121C65.1051 23.6925 69.5104 25.6565 71.1655 24.0966C72.8205 22.5368 71.1005 18.0472 67.32 14.0708C63.5394 10.0864 59.1381 8.12648 57.4831 9.68632Z" fill="#655353"/>
<path d="M71.7863 22.4439C69.6972 22.5692 66.4034 20.0678 63.7992 16.1843C62.2212 13.8365 61.2152 11.4482 60.8623 9.50854C62.8013 10.1834 65.1581 11.7958 67.3161 14.0668C70.1556 17.0572 71.8349 20.3385 71.7863 22.4439Z" fill="#362C2C"/>
<path d="M56.4694 14.8346C56.2828 17.4128 58.4124 19.6677 61.2316 19.8697C64.0509 20.0718 66.4847 18.1483 66.6754 15.5741C66.862 12.9959 64.7323 10.741 61.9131 10.539C59.0939 10.3329 56.656 12.2564 56.4694 14.8346Z" fill="black"/>
<path d="M71.6323 5.12805C71.6323 5.12805 74.0216 8.08609 74.7396 9.12867C75.1128 9.67017 76.1025 11.3795 76.1025 11.3795C76.1025 11.3795 75.4332 12.507 74.6098 13.7314C74.4759 13.6263 74.3988 13.691 74.3542 13.7557C74.3218 13.8041 74.265 13.9052 74.3785 14.0668C74.1189 14.4426 73.8512 14.8144 73.5997 15.1458C73.5348 15.0852 73.3644 14.9235 73.2225 14.9276C72.9791 14.9316 72.9466 15.4488 73.0277 15.5337C73.1738 16.2975 71.9082 16.0146 71.7378 15.7883C71.1658 15.0124 70.533 14.1719 69.2715 13.6668C68.0059 13.1616 67.4015 10.6683 67.5718 9.456C67.5759 9.42771 67.58 9.39538 67.5921 9.36305C67.6449 9.16504 67.3569 8.70436 67.5475 8.4417C68.5697 7.0233 71.6323 5.12805 71.6323 5.12805Z" fill="#F1BFBE"/>
<path d="M76.0621 12.7373C75.912 12.7373 75.7619 12.6848 75.6402 12.5837L74.9831 12.0261C74.7113 11.7957 74.6788 11.3876 74.91 11.1128C75.1413 10.8421 75.551 10.8097 75.8268 11.0401L76.4839 11.5977C76.7557 11.8281 76.7882 12.2362 76.5569 12.511C76.4271 12.6605 76.2446 12.7373 76.0621 12.7373Z" fill="#F6BFBA"/>
<path d="M75.2508 14.1315C75.0723 14.1315 74.8979 14.0588 74.7681 13.9173L73.7296 12.7737C73.4903 12.507 73.5106 12.0989 73.7742 11.8604C74.0419 11.622 74.4516 11.6422 74.691 11.9049L75.7294 13.0485C75.9688 13.3152 75.9485 13.7233 75.6848 13.9618C75.5631 14.0749 75.4049 14.1315 75.2508 14.1315Z" fill="#F6BFBA"/>
<path d="M74.3338 15.6469C74.1553 15.6469 73.9809 15.5741 73.8511 15.4327L72.8126 14.2931C72.5733 14.0304 72.5936 13.6183 72.8572 13.3798C73.1209 13.1414 73.5346 13.1616 73.774 13.4243L74.8124 14.5639C75.0518 14.8265 75.0315 15.2387 74.7678 15.4771C74.6461 15.5903 74.4879 15.6469 74.3338 15.6469Z" fill="#F6BFBA"/>
<path d="M72.6506 16.8188C72.4031 16.8188 72.1638 16.6773 72.0583 16.4349L71.5634 15.3276C71.4174 15.0003 71.5634 14.6204 71.892 14.475C72.2206 14.3295 72.6019 14.475 72.7479 14.8023L73.2428 15.9095C73.3888 16.2369 73.2428 16.6167 72.9142 16.7622C72.829 16.7986 72.7398 16.8188 72.6506 16.8188Z" fill="#F6BFBA"/>
<path d="M69.5436 11.1896C69.6613 12.2362 69.6856 13.2828 69.6897 14.3335L69.4666 13.8122C69.6045 13.9779 69.7465 14.1436 69.8722 14.3174C69.9371 14.4022 69.998 14.4952 70.0548 14.5841C70.0832 14.6285 70.1115 14.673 70.1359 14.7174C70.1481 14.7417 70.1562 14.7578 70.1643 14.774C70.1643 14.778 70.1562 14.7699 70.1521 14.7699H70.144C70.1683 14.7861 70.0791 14.7215 70.0142 14.7013C69.9452 14.673 69.8641 14.6568 69.787 14.6608C69.7505 14.6608 69.714 14.6649 69.6775 14.673L69.6248 14.6851C69.5964 14.6932 69.5599 14.7053 69.5193 14.7255C69.4382 14.7619 69.3205 14.8467 69.2435 14.9922C69.1623 15.1377 69.1623 15.3074 69.1907 15.4084C69.2029 15.461 69.2191 15.5014 69.2354 15.5337C69.2516 15.5701 69.2678 15.5903 69.2638 15.5822L69.2678 15.5862L69.2719 15.5903L69.2962 15.6105C69.0934 15.3478 69.1421 14.972 69.4057 14.7699C69.6694 14.5679 70.0466 14.6164 70.2495 14.8791L70.2982 14.9316L70.3103 14.9478L70.3144 14.9558C70.3103 14.9478 70.3265 14.972 70.3428 15.0084C70.359 15.0407 70.3752 15.0811 70.3874 15.1336C70.4117 15.2347 70.4158 15.4084 70.3347 15.5539C70.2576 15.7034 70.1399 15.7883 70.0588 15.8247C69.9696 15.8651 69.9209 15.8732 69.8966 15.8772C69.8601 15.8812 69.8235 15.8853 69.783 15.8853C69.7059 15.8853 69.6207 15.8691 69.5477 15.8368C69.4828 15.8125 69.3895 15.7479 69.4098 15.76L69.3854 15.7438L69.3408 15.7155L69.2475 15.659L69.0934 15.562C68.996 15.4973 68.9027 15.4327 68.8135 15.364C68.6309 15.2306 68.4646 15.0811 68.3024 14.9316C68.1726 14.8104 68.0995 14.6528 68.0833 14.4911L68.0752 14.4103C67.9819 13.3637 67.9089 12.317 67.9251 11.2664C67.9332 10.8178 68.3024 10.4622 68.7526 10.4703C69.1623 10.4743 69.499 10.7895 69.5436 11.1896Z" fill="#F6BFBA"/>
<path d="M71.6 71.0009L70.9753 70.5483C70.9632 70.52 70.9469 70.4958 70.9348 70.4796C70.2654 69.736 69.5515 68.9278 69.1864 67.6751L69.4663 67.7478L69.7016 67.9984L69.9572 68.2772L70.0789 68.4106C70.0951 68.4267 70.1113 68.4469 70.1235 68.455C70.1478 68.4995 70.1762 68.5399 70.2087 68.5803C70.2249 68.5965 70.2249 68.6005 70.2492 68.6328L70.2695 68.653C70.2776 68.6611 70.2736 68.6611 70.3222 68.7015C70.3385 68.7177 70.3587 68.7298 70.379 68.7419L70.4074 68.7621L70.4236 68.7702L70.4318 68.7743C70.4561 68.7864 70.4926 68.8026 70.5291 68.8187C70.6062 68.847 70.7117 68.8672 70.8374 68.8551C70.9632 68.843 71.093 68.7904 71.1863 68.7217C71.2796 68.653 71.3363 68.5763 71.3729 68.5156C71.3931 68.4793 71.4012 68.4631 71.4053 68.455L71.4215 68.4187C71.4621 68.3176 71.4783 68.1883 71.4661 68.0711C71.4378 67.9176 71.4378 67.9539 71.4337 67.9378L71.4215 67.9054L71.4013 67.8529L71.385 67.8125L71.3647 67.7681L71.312 67.6549L71.2268 67.465L71.0565 67.1053L70.7157 66.3981C70.594 66.2244 70.4115 66.087 70.1884 66.0264L67.4827 65.299C66.5538 64.6969 65.4261 64.2887 64.6676 64.2281C64.6311 64.2241 64.5986 64.2241 64.5581 64.2281C64.3187 64.2402 63.8644 63.7998 63.5237 63.9493C61.6861 64.7494 58.875 67.7236 58.875 67.7236C58.875 67.7236 61.7064 71.1504 62.7327 72.2172C63.1424 72.6456 64.2579 73.6518 64.7487 74.0923L65.1422 74.7994C65.2801 75.046 65.5357 75.1833 65.7953 75.1833C65.917 75.1833 66.0427 75.151 66.1563 75.0904C66.5173 74.8924 66.6471 74.4358 66.4483 74.0761L66.3185 73.8417C66.3916 73.8134 66.4646 73.7892 66.5416 73.7609L66.9473 74.3105C67.0933 74.5085 67.3205 74.6136 67.5517 74.6136C67.7058 74.6136 67.86 74.5651 67.9938 74.4681C68.3265 74.2256 68.3995 73.7569 68.1561 73.4255L67.9614 73.1628C67.9087 73.0254 67.9817 72.9567 68.0588 72.9285C68.1155 72.9042 68.2413 72.8678 68.3995 73.0254L68.8619 73.6558C69.008 73.8538 69.2351 73.963 69.4663 73.963C69.6205 73.963 69.7746 73.9145 69.9085 73.8175C70.2411 73.575 70.3141 73.1063 70.0707 72.7749L69.7462 72.3304C69.6854 72.2213 69.6124 72.0596 69.6367 71.9424C69.6732 71.7727 69.9166 71.7444 70.1154 71.7768L70.7198 72.2172C70.8536 72.3142 71.0078 72.3587 71.1579 72.3587C71.3891 72.3587 71.6162 72.2536 71.7623 72.0515C72.0097 71.7081 71.9367 71.2433 71.6 71.0009ZM71.2349 67.6428L71.2471 67.6549C71.2633 67.6711 71.2512 67.663 71.2552 67.6711C71.2268 67.6387 71.1944 67.6105 71.1619 67.5822C71.17 67.5903 71.1822 67.5943 71.1903 67.6024C71.2349 67.6428 71.2309 67.6387 71.2349 67.6428Z" fill="#F6BFBA"/>
<path d="M32.6984 33.7062C37.8663 33.3668 44.7095 31.128 51.5608 27.2204C58.4162 23.3127 63.8193 18.5685 66.7319 14.3052C74.0943 12.9959 78.82 12.1837 75.8751 7.05157C71.4738 -0.614268 59.049 -2.06904 46.255 2.87718C43.9834 3.75409 42.0931 5.5281 39.8418 6.81315C37.5864 8.0982 35.0917 8.82558 33.1812 10.3329C22.4195 18.815 17.3854 30.2228 21.7867 37.8846C24.7316 43.0127 27.8307 39.3717 32.6984 33.7062Z" fill="#EDA225"/>
<path d="M36.5074 28.0851C35.5542 26.4243 35.2053 24.8402 35.7286 24.5412C36.2519 24.2421 37.4485 25.3453 38.4018 27.0062C39.355 28.663 39.7039 30.2511 39.1806 30.5502C38.6533 30.8492 37.4566 29.746 36.5074 28.0851Z" fill="#E8BAAB"/>
<path d="M59.9369 14.7255C58.9837 13.0687 57.787 11.9655 57.2638 12.2605C56.7405 12.5595 57.0893 14.1436 58.0426 15.8045C58.9959 17.4613 60.1925 18.5645 60.7158 18.2695C61.2391 17.9745 60.8902 16.3864 59.9369 14.7255Z" fill="#E8BAAB"/>
<path d="M37.7774 28.7681C33.6926 21.6559 41.4566 9.62975 41.4566 9.62975C41.4566 9.62975 55.8001 9.05188 59.8849 16.1681C62.4364 20.6133 62.7609 25.6363 61.1465 29.6288C60.6678 30.8169 57.3862 34.6922 56.2301 35.3509C55.0537 36.0217 54.0193 35.2984 52.7294 35.5085C51.5895 35.6944 50.2063 36.8623 49.0461 36.7128C44.6895 36.151 40.3816 33.3062 37.7774 28.7681Z" fill="#190F28"/>
<path d="M34.3214 28.7802L47.0058 50.7149L46.1662 49.9067L64.2903 63.0522L59.309 69.8654L41.1889 56.7159L40.3452 55.9077L22.0264 38.3615L34.3214 28.7802Z" fill="#EDA225"/>
<path d="M63.4162 62.3547L58.415 69.2491L59.3323 69.9094L64.3335 63.015L63.4162 62.3547Z" fill="#C9C9C9"/>
<path d="M16.6189 88.2399C18.8743 88.5673 20.0588 93.2266 19.2678 98.6456C18.4768 104.065 16.0105 108.195 13.7551 107.867C11.5038 107.54 10.3153 102.885 11.1063 97.4616C11.8973 92.0425 14.3676 87.9126 16.6189 88.2399Z" fill="#655353"/>
<path d="M14.0305 97.11C13.3572 101.717 14.1157 105.766 15.7424 107.079C17.3081 105.657 18.7076 102.476 19.2674 98.6456C19.9408 94.0388 19.1822 89.9897 17.5556 88.6763C15.9857 90.1028 14.5863 93.2791 14.0305 97.11Z" fill="#362C2C"/>
<path d="M50.8506 106.695C49.4187 104.929 44.7943 106.287 40.5148 109.726C36.2353 113.165 33.9272 117.388 35.3591 119.15C36.7869 120.916 41.4153 119.558 45.6949 116.119C49.9744 112.68 52.2825 108.461 50.8506 106.695Z" fill="#655353"/>
<path d="M44.5103 113.436C40.8717 116.362 36.9897 117.772 35.0264 117.049C35.4563 114.98 37.4886 112.163 40.5147 109.73C44.1533 106.805 48.0353 105.394 49.9946 106.122C49.5687 108.187 47.5364 111.003 44.5103 113.436Z" fill="#362C2C"/>
<path d="M45.3915 116.661C46.5531 114.631 45.6944 111.963 43.4735 110.702C41.2527 109.441 38.5108 110.064 37.3492 112.094C36.1877 114.124 37.0464 116.792 39.2672 118.053C41.4881 119.314 44.23 118.691 45.3915 116.661Z" fill="black"/>
<path d="M18.613 102.707C19.9398 100.388 18.9595 97.3408 16.4233 95.9007C13.8872 94.4607 10.7557 95.1732 9.42882 97.4923C8.10198 99.8113 9.0823 102.859 11.6184 104.299C14.1546 105.739 17.2861 105.026 18.613 102.707Z" fill="black"/>
<path d="M71.4573 79.972C71.368 79.9599 71.2747 79.9316 71.1774 79.8791C70.3539 79.4103 71.08 78.1414 71.9035 78.6061C71.9278 78.6183 71.944 78.6344 71.9643 78.6506C72.4916 77.2686 73.1001 75.6279 73.3557 74.7954C73.5504 74.1691 73.9195 72.589 74.0858 71.8697L74.5483 71.1222C74.8809 70.5443 74.6943 69.8129 74.1304 69.4653L74.0777 69.433C73.7978 69.2754 73.4814 69.235 73.1934 69.3037C73.2705 68.8107 73.0393 68.3056 72.5768 68.0469C72.5484 68.0308 72.516 68.0146 72.4835 67.9984C72.1509 67.8489 71.7899 67.853 71.4775 67.9863C71.6439 67.4448 71.4126 66.8387 70.9096 66.5517C70.8772 66.5356 70.8447 66.5154 70.8123 66.5033C70.2241 66.2365 69.5426 66.4548 69.2222 67.0124C69.21 67.0286 69.2019 67.0488 69.1938 67.069L69.4777 65.7799C69.2506 65.7314 69.0518 65.5738 68.9707 65.2788C68.9382 65.1576 68.8206 64.9919 68.6624 64.8424C68.4839 64.6767 68.3622 64.5838 68.1269 64.4666C67.9038 64.3534 67.7902 64.1797 67.7619 63.9938C67.5712 64.0988 67.4089 64.2564 67.2913 64.4545C67.2305 64.5636 67.1858 64.6807 67.1574 64.802L66.6058 67.3155C66.5693 67.36 66.5368 67.4044 66.5125 67.4448C66.4922 67.4812 66.476 67.5176 66.4638 67.5539C66.3097 68.0025 66.1231 68.544 65.8594 69.0733V69.0572C65.8513 68.9036 65.8188 68.7582 65.758 68.6248C65.6687 68.4227 65.5065 68.2328 65.3199 68.1156C65.2996 68.1035 65.2793 68.0914 65.259 68.0793C65.0684 67.9701 64.8899 67.9378 64.7723 67.9297C64.6952 67.9217 64.6303 67.9257 64.5613 67.9297L64.4964 67.9378C64.4559 67.9459 64.4153 67.954 64.3707 67.9621C64.1922 68.0065 64.0137 68.1035 63.8596 68.2409C63.75 68.35 63.7095 68.4025 63.677 68.447L63.1497 69.1663L62.6264 69.9018L62.6142 69.93C62.4642 70.2372 62.4236 70.5887 62.5088 70.9161L63.2511 73.862C63.2227 74.3105 63.2349 74.7793 63.2795 75.2319C63.5148 75.244 63.75 75.2319 63.9894 75.2278C64.391 75.2238 64.7276 75.5511 64.7317 75.9512C64.7358 76.1169 64.6749 76.2745 64.5776 76.3997C64.8777 76.8806 64.4396 77.5999 63.8555 77.5151C63.8596 77.5636 63.8596 77.6201 63.8636 77.6605C63.8758 77.9879 63.892 78.4364 64.2449 78.7031C64.4396 78.8486 64.6709 79.0022 64.9345 79.1517C66.9749 80.3115 70.4391 81.1843 70.5851 81.2207L70.9299 81.3055L71.0597 80.9742C71.0841 80.9297 71.2342 80.5418 71.4573 79.972Z" fill="#8C675E"/>
<path d="M3.44336 95.9301C3.44336 95.9301 4.99291 93.3034 5.58921 92.475C5.8975 92.0426 6.94406 90.8303 6.94406 90.8303C6.94406 90.8303 8.13664 91.0525 9.47527 91.3677C9.4347 91.497 9.51989 91.5415 9.5929 91.5576C9.64564 91.5698 9.7511 91.59 9.8444 91.4566C10.2582 91.5576 10.6679 91.6668 11.037 91.7799C11.0127 91.8446 10.9437 92.0224 11.0005 92.1315C11.0938 92.3174 11.54 92.2083 11.5806 92.1234C12.1566 91.8082 12.4081 92.8629 12.2823 93.0528C11.8523 93.6994 11.398 94.4106 11.4548 95.5179C11.5156 96.6291 9.66997 97.7526 8.59908 97.9425C8.57474 97.9465 8.54634 97.9506 8.51795 97.9506C8.33135 97.9627 8.05957 98.3062 7.76751 98.2254C6.18956 97.8011 3.44336 95.9301 3.44336 95.9301Z" fill="#F1BFBE"/>
<path d="M7.05368 91.8122C6.82652 91.6829 6.717 91.4122 6.79813 91.1535L7.01312 90.4989C7.10642 90.2079 7.42282 90.0463 7.71894 90.1392C8.01505 90.2362 8.17325 90.5474 8.07996 90.8424L7.86497 91.497C7.77167 91.788 7.45527 91.9496 7.15915 91.8567C7.12264 91.8486 7.09019 91.8324 7.05368 91.8122Z" fill="#F6BFBA"/>
<path d="M8.18557 92.5234C7.93001 92.378 7.8286 92.0547 7.96246 91.788L8.51819 90.6848C8.65611 90.41 8.9928 90.2968 9.26863 90.4342C9.54447 90.5797 9.65805 90.907 9.52013 91.1818L8.9644 92.285C8.82648 92.5598 8.4898 92.673 8.21396 92.5356C8.20585 92.5315 8.19368 92.5275 8.18557 92.5234Z" fill="#F6BFBA"/>
<path d="M9.79982 92.8306C9.54427 92.6851 9.44286 92.3618 9.57672 92.0951L10.1284 90.9919C10.2663 90.7171 10.603 90.604 10.8788 90.7414C11.1587 90.8868 11.2683 91.2141 11.1303 91.4889L10.5787 92.5921C10.4407 92.8669 10.1041 92.9801 9.82822 92.8427C9.81605 92.8427 9.80794 92.8386 9.79982 92.8306Z" fill="#F6BFBA"/>
<path d="M11.2356 93.4004C11.1869 93.3721 11.1423 93.3357 11.1017 93.2953C10.8908 93.069 10.907 92.7174 11.1341 92.5073L11.8684 91.8325C12.0955 91.6223 12.4525 91.6385 12.6594 91.8648C12.8703 92.0911 12.8541 92.4426 12.6269 92.6528L11.8927 93.3276C11.7061 93.4933 11.4424 93.5176 11.2356 93.4004Z" fill="#F6BFBA"/>
<path d="M9.38629 95.9179C9.80411 95.732 10.23 95.5704 10.656 95.4168C11.0819 95.2592 11.5159 95.1178 11.95 94.9845L11.5565 95.3481C11.6376 95.1946 11.7228 95.0451 11.8201 94.8996C11.8648 94.8269 11.9175 94.7541 11.9662 94.6854L12.0433 94.5884C12.0554 94.5723 12.0635 94.5642 12.0757 94.5561C12.0757 94.5561 12.0757 94.5682 12.0757 94.5723V94.5804C12.0798 94.5723 12.0716 94.6006 12.0676 94.6329C12.0635 94.6652 12.0635 94.6975 12.0635 94.7299C12.0676 94.7986 12.0879 94.8673 12.1163 94.9279C12.1568 94.9925 12.1487 95.0087 12.2826 95.1218C12.3475 95.1703 12.457 95.2188 12.5828 95.2229C12.7085 95.2229 12.8221 95.1744 12.887 95.1299C13.0371 95.0006 12.9803 95.0329 12.9965 95.0289L13.0006 95.0208C13.0046 95.0127 13.0127 95.0006 13.0168 94.9925C12.8627 95.235 12.5422 95.3118 12.2988 95.1582C12.0554 95.0087 11.9783 94.6895 12.1325 94.443L12.1649 94.3864L12.1731 94.3702C12.1893 94.3621 12.1325 94.3904 12.2866 94.2611C12.3515 94.2126 12.4651 94.1641 12.5949 94.1641C12.7207 94.1641 12.8343 94.2126 12.8992 94.2611C13.0371 94.3702 13.029 94.3945 13.0695 94.4591C13.0979 94.5197 13.1182 94.5965 13.1223 94.6652C13.1263 94.7016 13.1223 94.7339 13.1182 94.7662L13.1101 94.8228L13.106 94.8471L13.0979 94.8956L13.0817 94.9845L13.0574 95.1299C13.0371 95.2229 13.0168 95.3118 12.9925 95.4007C12.9478 95.5744 12.887 95.7442 12.8221 95.9099C12.7612 96.0634 12.6436 96.1806 12.5016 96.2412L12.4286 96.2735C12.0108 96.4514 11.5889 96.6211 11.163 96.7787C10.7371 96.9363 10.3071 97.0898 9.86901 97.2151C9.49582 97.3242 9.1064 97.11 9.00093 96.7383C8.89952 96.4109 9.06989 96.0594 9.38629 95.9179Z" fill="#F6BFBA"/>
<path d="M74.4145 71.2514C74.1265 70.9322 73.4815 70.2937 72.9704 69.8007L72.9866 69.5825C72.9663 69.3724 72.8771 69.1622 72.7148 69.0006L71.5791 67.8772L71.5669 67.861C71.502 67.7559 71.4127 67.6751 71.3113 67.6145L70.7231 67.0326C70.5406 66.681 70.3256 66.3375 70.0944 66.0264C69.993 66.0385 69.8753 65.7435 69.8753 65.7435C69.5224 65.3071 69.1452 64.9393 68.8126 64.713C68.7842 64.6928 68.7517 64.6767 68.7193 64.6605C68.5083 64.5514 68.3258 63.9452 67.9607 63.9089C67.7498 63.8887 67.5186 63.8846 67.2711 63.8887C67.1535 63.9978 67.0521 64.1231 66.9709 64.2645C66.8898 64.4059 66.833 64.5595 66.7965 64.7171C66.7965 64.7171 66.1313 67.3761 66.111 67.4448C66.042 67.6468 65.9649 67.8691 65.8757 68.0994C65.7743 67.9782 65.6526 67.8731 65.5147 67.7883L65.4538 67.7519C65.2064 67.6105 64.9671 67.566 64.8129 67.5539C64.7156 67.5458 64.6304 67.5458 64.5209 67.5539L64.4478 67.562C64.3911 67.5701 64.3383 67.5822 64.2856 67.5943C64.0422 67.6549 63.811 67.7802 63.596 67.9742C63.45 68.1237 63.4013 68.1843 63.3688 68.2328L63.1133 68.5803L62.8456 68.944L62.7969 69.0167C62.9307 69.6956 63.0605 70.3058 63.1579 70.6978C63.3039 71.2716 63.7704 72.6981 63.9773 73.3245L63.9692 74.1327C63.9651 74.4115 64.1193 74.658 64.3464 74.7873C64.4519 74.848 64.5777 74.8843 64.7075 74.8843C65.1212 74.8884 65.4579 74.557 65.462 74.1489L65.466 73.8821C65.5431 73.8943 65.6202 73.9064 65.7013 73.9226L65.7784 74.6015C65.7784 74.6055 65.7784 74.6095 65.7824 74.6095C65.7662 74.6378 65.75 74.6661 65.7378 74.6863L65.7216 74.7227C65.7135 74.7469 65.7053 74.7712 65.6972 74.7954C65.6688 74.9005 65.6648 75.0177 65.6851 75.1187C65.7378 75.3127 65.7378 75.2723 65.75 75.3127L65.7702 75.3571L65.8189 75.4703L65.896 75.6602L66.0501 76.0199L66.3625 76.727C66.4761 76.9048 66.6505 77.0463 66.8695 77.1109L69.5143 77.9151C70.3946 78.5293 71.4736 78.9617 72.22 79.0547C72.7757 77.5959 73.4531 75.7895 73.7249 74.9005C73.9034 74.3267 74.2117 73.0254 74.4469 72.0111L74.7106 71.5828C74.597 71.4616 74.4997 71.3484 74.4145 71.2514ZM65.9284 75.5188L65.8879 75.4824L65.8798 75.4743L65.8676 75.4622C65.8514 75.442 65.8635 75.4541 65.8595 75.446C65.8879 75.4784 65.9163 75.5066 65.9487 75.5349C65.9406 75.5268 65.9325 75.5228 65.9284 75.5188ZM67.6321 75.4258L67.409 75.1753L67.1697 74.8964C67.2508 74.7631 67.2873 74.6015 67.2711 74.4358L67.2346 74.1125C67.2427 74.068 67.2549 74.0398 67.2752 74.0155C67.5388 74.4479 67.7619 74.9288 67.912 75.5066L67.6321 75.4258Z" fill="#D6A6A2"/>
<path d="M72.9701 74.6742C73.1648 74.0479 73.5421 72.4274 73.7043 71.7122L74.183 70.9444C74.4223 70.5564 74.3047 70.0432 73.9153 69.8048C73.5177 69.5542 73.0107 69.6835 72.7713 70.0715L72.6131 70.3261C72.5482 70.2695 72.4793 70.2129 72.4103 70.1523L72.7267 69.4613C72.9174 69.0451 72.7348 68.5561 72.317 68.3621C71.8992 68.1722 71.4043 68.354 71.2137 68.7703L71.0636 69.0976C70.9541 69.2229 70.8527 69.1865 70.7796 69.1299C70.7228 69.0855 70.6255 68.9844 70.6863 68.7541L71.0514 67.9621C71.2421 67.5458 71.0595 67.0528 70.6417 66.8629C70.2239 66.673 69.729 66.8548 69.5384 67.2711L69.2828 67.8247C69.2098 67.9419 69.0922 68.1035 68.9624 68.1439C68.8123 68.1924 68.6784 68.051 68.5932 67.8853L69.1733 65.2344C69.2706 64.7858 68.9867 64.3453 68.5405 64.2484C68.0902 64.1514 67.6481 64.4342 67.5507 64.8788L66.9747 67.5014C66.9098 67.566 66.8611 67.6307 66.8449 67.6792C66.4839 68.7258 66.0823 69.8573 65.0601 70.8837L64.983 70.5726L65.0966 70.2129L65.2264 69.8169L65.2913 69.627C65.2994 69.6027 65.3116 69.5744 65.3116 69.5583C65.34 69.5138 65.3643 69.4653 65.3846 69.4128C65.3927 69.3886 65.3968 69.3886 65.413 69.3441L65.4211 69.3118L65.4251 69.2956L65.4373 69.2269C65.4414 69.1986 65.4454 69.1744 65.4454 69.1461V69.1057V69.0733C65.4414 69.0006 65.4292 68.8996 65.3765 68.7824C65.3237 68.6652 65.2183 68.5319 65.0885 68.451C64.9587 68.3662 64.8248 68.3338 64.7274 68.3298C64.6788 68.3258 64.6341 68.3258 64.5976 68.3298L64.549 68.3338C64.5206 68.3379 64.4922 68.3419 64.4638 68.35C64.3461 68.3783 64.2285 68.443 64.1393 68.5238C63.9729 68.6935 64.0176 68.6652 63.9851 68.7016L63.9527 68.746L63.8715 68.8551L63.7336 69.041L63.474 69.3966L62.967 70.1079C62.8615 70.318 62.829 70.5726 62.8899 70.8191L63.6484 73.8256C63.5633 75.05 63.7782 76.3634 64.1312 77.1271C64.1474 77.1635 64.1677 77.1958 64.1879 77.2322C64.3259 77.4545 64.1474 78.1334 64.4759 78.3799C66.2527 79.7215 70.6701 80.8287 70.6701 80.8287C70.6701 80.8287 72.4874 76.2462 72.9701 74.6742ZM72.9701 74.6742C73.1648 74.0479 73.5421 72.4274 73.7043 71.7122L74.183 70.9444C74.4223 70.5564 74.3047 70.0432 73.9153 69.8048C73.5177 69.5542 73.0107 69.6835 72.7713 70.0715L72.6131 70.3261C72.5482 70.2695 72.4793 70.2129 72.4103 70.1523L72.7267 69.4613C72.9174 69.0451 72.7348 68.5561 72.317 68.3621C71.8992 68.1722 71.4043 68.354 71.2137 68.7703L71.0636 69.0976C70.9541 69.2229 70.8527 69.1865 70.7796 69.1299C70.7228 69.0855 70.6255 68.9844 70.6863 68.7541L71.0514 67.9621C71.2421 67.5458 71.0595 67.0528 70.6417 66.8629C70.2239 66.673 69.729 66.8548 69.5384 67.2711L69.2828 67.8247C69.2098 67.9419 69.0922 68.1035 68.9624 68.1439C68.8123 68.1924 68.6784 68.051 68.5932 67.8853L69.1733 65.2344C69.2706 64.7858 68.9867 64.3453 68.5405 64.2484C68.0902 64.1514 67.6481 64.4342 67.5507 64.8788C67.5507 64.8788 66.8611 67.6267 66.8449 67.6792C66.4839 68.7258 66.0823 69.8573 65.0601 70.8837L64.983 70.5726L65.0966 70.2129L65.2264 69.8169L65.2913 69.627C65.2994 69.6027 65.3116 69.5744 65.3116 69.5583C65.34 69.5138 65.3643 69.4653 65.3846 69.4128C65.3927 69.3886 65.3968 69.3886 65.413 69.3441L65.4211 69.3118L65.4251 69.2956L65.4373 69.2269C65.4414 69.1986 65.4454 69.1744 65.4454 69.1461V69.1057V69.0733C65.4414 69.0006 65.4292 68.8996 65.3765 68.7824C65.3237 68.6652 65.2183 68.5319 65.0885 68.451C64.9587 68.3662 64.8248 68.3338 64.7274 68.3298C64.6788 68.3258 64.6341 68.3258 64.5976 68.3298L64.549 68.3338C64.5206 68.3379 64.4922 68.3419 64.4638 68.35C64.3461 68.3783 64.2285 68.443 64.1393 68.5238C63.9729 68.6935 64.0176 68.6652 63.9851 68.7016L63.9527 68.746L63.8715 68.8551L63.7336 69.041L63.474 69.3966L62.967 70.1079C62.8615 70.318 62.829 70.5726 62.8899 70.8191L63.6484 73.8256C63.5633 75.05 63.7782 76.3634 64.1312 77.1271C64.1474 77.1635 64.1677 77.1958 64.1879 77.2322C64.3259 77.4545 64.1474 78.1334 64.4759 78.3799C66.2527 79.7215 70.6701 80.8287 70.6701 80.8287C70.6701 80.8287 72.4874 76.2462 72.9701 74.6742ZM63.9202 68.936L63.9243 68.9279L63.9283 68.9077C63.9364 68.8834 63.9364 68.8955 63.9405 68.8915C63.9243 68.936 63.9121 68.9845 63.904 69.0289C63.904 69.0168 63.904 69.0087 63.908 68.9966L63.9202 68.936Z" fill="#F6BFBA"/>
<path d="M46.2104 115.796C43.31 111.565 37.9393 106.869 31.1326 103.002C24.326 99.1346 17.5314 96.9241 12.4001 96.5968C7.56075 90.9838 4.48192 87.3711 1.56941 92.4669C-2.78719 100.08 2.23061 111.395 12.9233 119.792C14.8258 121.283 17.2962 121.999 19.5353 123.272C21.7745 124.545 23.6567 126.302 25.912 127.167C38.6168 132.053 50.9402 130.586 55.2968 122.973C58.2134 117.881 53.5241 117.081 46.2104 115.796Z" fill="#75BF1E"/>
<path d="M39.4685 115.384C38.5234 117.032 37.3429 118.127 36.8237 117.832C36.3045 117.537 36.6452 115.965 37.5904 114.317C38.5315 112.668 39.72 111.573 40.2392 111.868C40.7544 112.163 40.4096 113.739 39.4685 115.384Z" fill="#E8BAAB"/>
<path d="M16.1929 102.169C15.2478 103.818 14.907 105.39 15.4263 105.685C15.9455 105.98 17.13 104.885 18.0711 103.236C19.0121 101.588 19.3569 100.016 18.8377 99.7205C18.3185 99.4256 17.134 100.521 16.1929 102.169Z" fill="#E8BAAB"/>
<path d="M39.4157 113.957C35.3714 121.025 27.1774 123.963 21.1131 120.52C15.0487 117.077 13.4099 108.554 17.4542 101.486C21.4984 94.4187 29.6924 91.4808 35.7568 94.9238C41.8171 98.3708 43.4559 106.889 39.4157 113.957Z" fill="#341E11"/>
<path d="M43.0059 115.852L57.2034 99.9307L56.4935 101.438L62.9838 77.1554L72.0661 79.5639L65.5758 103.846C65.4947 104.154 65.3771 104.436 65.231 104.703L64.866 105.354L55.2198 123.118L43.0059 115.852Z" fill="#75BF1E"/>
<path d="M63.0429 76.9928L62.7461 78.0807L71.8668 80.5505L72.1636 79.4625L63.0429 76.9928Z" fill="#C9C9C9"/>
</g>
<defs>
<clipPath id="clip0">
<rect width="134" height="130" fill="white"/>
</clipPath>
</defs>
</svg>
