<svg width="222" height="38" viewBox="0 0 222 38" fill="none" xmlns="http://www.w3.org/2000/svg">
<ellipse cx="19.0207" cy="18.624" rx="18.3528" ry="18.3951" fill="#0071B9"/>
<path d="M15.7332 20.3592C15.3116 20.8619 14.8064 21.2663 14.2176 21.5723C13.6361 21.8783 12.9964 22.0313 12.2985 22.0313C11.3826 22.0313 10.583 21.8054 9.89969 21.3537C9.22365 20.902 8.70026 20.2681 8.32953 19.4521C7.9588 18.6287 7.77344 17.7216 7.77344 16.7307C7.77344 15.667 7.97334 14.7089 8.37315 13.8564C8.78022 13.004 9.35449 12.3519 10.096 11.9001C10.8374 11.4484 11.7025 11.2225 12.6911 11.2225C14.2612 11.2225 15.497 11.8127 16.3984 12.993C17.307 14.1661 17.7613 15.769 17.7613 17.8018V18.3919C17.7613 21.4885 17.1507 23.7508 15.9295 25.1788C14.7083 26.5996 12.8655 27.3282 10.4013 27.3646H10.0087V25.6597H10.434C12.0986 25.6306 13.378 25.1971 14.2721 24.3592C15.1662 23.514 15.6533 22.1807 15.7332 20.3592ZM12.6256 20.3592C13.3017 20.3592 13.9232 20.1515 14.4902 19.7362C15.0645 19.3209 15.4824 18.8072 15.7441 18.1952V17.3865C15.7441 16.0604 15.457 14.9821 14.8827 14.1515C14.3085 13.3209 13.5815 12.9056 12.702 12.9056C11.8151 12.9056 11.1027 13.248 10.5648 13.9329C10.0269 14.6105 9.75794 15.5067 9.75794 16.6214C9.75794 17.7071 10.016 18.6032 10.5321 19.31C11.0555 20.0094 11.7533 20.3592 12.6256 20.3592Z" fill="white"/>
<path d="M23.475 18.4138H24.9906C25.9429 18.3992 26.6916 18.1479 27.2368 17.6597C27.782 17.1715 28.0546 16.5122 28.0546 15.6816C28.0546 13.8163 27.1277 12.8837 25.2741 12.8837C24.4018 12.8837 23.7039 13.1351 23.1806 13.6378C22.6644 14.1333 22.4064 14.7927 22.4064 15.616H20.3892C20.3892 14.3555 20.8471 13.31 21.7631 12.4794C22.6862 11.6415 23.8566 11.2225 25.2741 11.2225C26.7716 11.2225 27.9455 11.6196 28.796 12.4138C29.6465 13.208 30.0718 14.3118 30.0718 15.7253C30.0718 16.4174 29.8464 17.0878 29.3957 17.7362C28.9523 18.3847 28.3453 18.8692 27.5748 19.1898C28.4471 19.4666 29.1195 19.9256 29.592 20.5668C30.0718 21.208 30.3117 21.9912 30.3117 22.9165C30.3117 24.3446 29.8464 25.4776 28.916 26.3155C27.9855 27.1533 26.7752 27.5723 25.285 27.5723C23.7948 27.5723 22.5808 27.1679 21.6431 26.3592C20.7127 25.5504 20.2474 24.483 20.2474 23.157H22.2755C22.2755 23.9949 22.5481 24.6652 23.0933 25.1679C23.6385 25.6706 24.3691 25.922 25.285 25.922C26.2591 25.922 27.0042 25.667 27.5203 25.157C28.0364 24.647 28.2945 23.9147 28.2945 22.9603C28.2945 22.0349 28.011 21.3246 27.444 20.8291C26.877 20.3337 26.0592 20.0786 24.9906 20.0641H23.475V18.4138Z" fill="white"/>
<path d="M47.1406 22.8818H52.7393V25H44.5039V12.2031H47.1406V22.8818ZM64.209 18.8916C64.209 20.1514 63.9863 21.2559 63.541 22.2051C63.0957 23.1543 62.457 23.8867 61.625 24.4023C60.7988 24.918 59.8496 25.1758 58.7773 25.1758C57.7168 25.1758 56.7705 24.9209 55.9385 24.4111C55.1064 23.9014 54.4619 23.1748 54.0049 22.2314C53.5479 21.2822 53.3164 20.1924 53.3105 18.9619V18.3291C53.3105 17.0693 53.5361 15.9619 53.9873 15.0068C54.4443 14.0459 55.0859 13.3105 55.9121 12.8008C56.7441 12.2852 57.6934 12.0273 58.7598 12.0273C59.8262 12.0273 60.7725 12.2852 61.5986 12.8008C62.4307 13.3105 63.0723 14.0459 63.5234 15.0068C63.9805 15.9619 64.209 17.0664 64.209 18.3203V18.8916ZM61.5371 18.3115C61.5371 16.9697 61.2969 15.9502 60.8164 15.2529C60.3359 14.5557 59.6504 14.207 58.7598 14.207C57.875 14.207 57.1924 14.5527 56.7119 15.2441C56.2314 15.9297 55.9883 16.9375 55.9824 18.2676V18.8916C55.9824 20.1982 56.2227 21.2119 56.7031 21.9326C57.1836 22.6533 57.875 23.0137 58.7773 23.0137C59.6621 23.0137 60.3418 22.668 60.8164 21.9766C61.291 21.2793 61.5312 20.2656 61.5371 18.9355V18.3115ZM76.1709 20.7373C76.0713 22.1143 75.5615 23.1982 74.6416 23.9893C73.7275 24.7803 72.5205 25.1758 71.0205 25.1758C69.3799 25.1758 68.0879 24.625 67.1445 23.5234C66.207 22.416 65.7383 20.8984 65.7383 18.9707V18.1885C65.7383 16.958 65.9551 15.874 66.3887 14.9365C66.8223 13.999 67.4404 13.2812 68.2432 12.7832C69.0518 12.2793 69.9893 12.0273 71.0557 12.0273C72.5322 12.0273 73.7217 12.4229 74.624 13.2139C75.5264 14.0049 76.0479 15.1152 76.1885 16.5449H73.5518C73.4873 15.7188 73.2559 15.1211 72.8574 14.752C72.4648 14.377 71.8643 14.1895 71.0557 14.1895C70.1768 14.1895 69.5176 14.5059 69.0781 15.1387C68.6445 15.7656 68.4219 16.7412 68.4102 18.0654V19.0322C68.4102 20.415 68.6182 21.4258 69.0342 22.0645C69.4561 22.7031 70.1182 23.0225 71.0205 23.0225C71.835 23.0225 72.4414 22.8379 72.8398 22.4688C73.2441 22.0938 73.4756 21.5166 73.5342 20.7373H76.1709ZM85.127 22.3633H80.5039L79.625 25H76.8213L81.585 12.2031H84.0283L88.8184 25H86.0146L85.127 22.3633ZM81.2158 20.2275H84.415L82.8066 15.4375L81.2158 20.2275ZM92.6504 22.8818H98.249V25H90.0137V12.2031H92.6504V22.8818ZM104.252 25V12.2031H108.734C110.287 12.2031 111.465 12.502 112.268 13.0996C113.07 13.6914 113.472 14.5615 113.472 15.71C113.472 16.3369 113.311 16.8906 112.988 17.3711C112.666 17.8457 112.218 18.1943 111.644 18.417C112.3 18.5811 112.815 18.9121 113.19 19.4102C113.571 19.9082 113.762 20.5176 113.762 21.2383C113.762 22.4688 113.369 23.4004 112.584 24.0332C111.799 24.666 110.68 24.9883 109.227 25H104.252ZM106.889 19.4277V22.8818H109.147C109.769 22.8818 110.252 22.7354 110.598 22.4424C110.949 22.1436 111.125 21.7334 111.125 21.2119C111.125 20.04 110.519 19.4453 109.306 19.4277H106.889ZM106.889 17.5645H108.84C110.17 17.541 110.835 17.0107 110.835 15.9736C110.835 15.3936 110.665 14.9775 110.325 14.7256C109.991 14.4678 109.461 14.3389 108.734 14.3389H106.889V17.5645ZM123.447 19.4541H118.385V22.8818H124.326V25H115.748V12.2031H124.309V14.3389H118.385V17.3887H123.447V19.4541ZM132.509 21.6426C132.509 21.1445 132.333 20.7637 131.981 20.5C131.63 20.2305 130.997 19.9492 130.083 19.6562C129.169 19.3574 128.445 19.0645 127.912 18.7773C126.459 17.9922 125.732 16.9346 125.732 15.6045C125.732 14.9131 125.926 14.2979 126.312 13.7588C126.705 13.2139 127.265 12.7891 127.991 12.4844C128.724 12.1797 129.544 12.0273 130.452 12.0273C131.366 12.0273 132.181 12.1943 132.896 12.5283C133.61 12.8564 134.164 13.3223 134.557 13.9258C134.955 14.5293 135.154 15.2148 135.154 15.9824H132.518C132.518 15.3965 132.333 14.9424 131.964 14.6201C131.595 14.292 131.076 14.1279 130.408 14.1279C129.764 14.1279 129.263 14.2656 128.905 14.541C128.548 14.8105 128.369 15.168 128.369 15.6133C128.369 16.0293 128.577 16.3779 128.993 16.6592C129.415 16.9404 130.033 17.2041 130.848 17.4502C132.348 17.9014 133.44 18.4609 134.126 19.1289C134.812 19.7969 135.154 20.6289 135.154 21.625C135.154 22.7324 134.735 23.6025 133.897 24.2354C133.06 24.8623 131.932 25.1758 130.514 25.1758C129.529 25.1758 128.633 24.9971 127.824 24.6396C127.016 24.2764 126.397 23.7812 125.97 23.1543C125.548 22.5273 125.337 21.8008 125.337 20.9746H127.982C127.982 22.3867 128.826 23.0928 130.514 23.0928C131.141 23.0928 131.63 22.9668 131.981 22.7148C132.333 22.457 132.509 22.0996 132.509 21.6426ZM146.58 14.3389H142.66V25H140.023V14.3389H136.156V12.2031H146.58V14.3389ZM162.172 23.3828C161.697 23.9512 161.026 24.3936 160.159 24.71C159.292 25.0205 158.331 25.1758 157.276 25.1758C156.169 25.1758 155.196 24.9355 154.358 24.4551C153.526 23.9688 152.882 23.2656 152.425 22.3457C151.974 21.4258 151.742 20.3447 151.73 19.1025V18.2324C151.73 16.9551 151.944 15.8506 152.372 14.9189C152.806 13.9814 153.427 13.2666 154.235 12.7744C155.05 12.2764 156.002 12.0273 157.092 12.0273C158.609 12.0273 159.796 12.3906 160.651 13.1172C161.507 13.8379 162.014 14.8896 162.172 16.2725H159.605C159.488 15.54 159.228 15.0039 158.823 14.6641C158.425 14.3242 157.874 14.1543 157.171 14.1543C156.274 14.1543 155.592 14.4912 155.123 15.165C154.654 15.8389 154.417 16.8408 154.411 18.1709V18.9883C154.411 20.3301 154.666 21.3438 155.176 22.0293C155.686 22.7148 156.433 23.0576 157.417 23.0576C158.407 23.0576 159.113 22.8467 159.535 22.4248V20.2188H157.136V18.2764H162.172V23.3828ZM169.054 20.3154H166.953V25H164.316V12.2031H169.071C170.583 12.2031 171.749 12.54 172.569 13.2139C173.39 13.8877 173.8 14.8398 173.8 16.0703C173.8 16.9434 173.609 17.6729 173.229 18.2588C172.854 18.8389 172.282 19.3018 171.515 19.6475L174.283 24.877V25H171.453L169.054 20.3154ZM166.953 18.1797H169.08C169.742 18.1797 170.255 18.0127 170.618 17.6787C170.981 17.3389 171.163 16.873 171.163 16.2812C171.163 15.6777 170.99 15.2031 170.645 14.8574C170.305 14.5117 169.78 14.3389 169.071 14.3389H166.953V18.1797ZM186.324 18.8916C186.324 20.1514 186.102 21.2559 185.656 22.2051C185.211 23.1543 184.572 23.8867 183.74 24.4023C182.914 24.918 181.965 25.1758 180.893 25.1758C179.832 25.1758 178.886 24.9209 178.054 24.4111C177.222 23.9014 176.577 23.1748 176.12 22.2314C175.663 21.2822 175.432 20.1924 175.426 18.9619V18.3291C175.426 17.0693 175.651 15.9619 176.103 15.0068C176.56 14.0459 177.201 13.3105 178.027 12.8008C178.859 12.2852 179.809 12.0273 180.875 12.0273C181.941 12.0273 182.888 12.2852 183.714 12.8008C184.546 13.3105 185.188 14.0459 185.639 15.0068C186.096 15.9619 186.324 17.0664 186.324 18.3203V18.8916ZM183.652 18.3115C183.652 16.9697 183.412 15.9502 182.932 15.2529C182.451 14.5557 181.766 14.207 180.875 14.207C179.99 14.207 179.308 14.5527 178.827 15.2441C178.347 15.9297 178.104 16.9375 178.098 18.2676V18.8916C178.098 20.1982 178.338 21.2119 178.818 21.9326C179.299 22.6533 179.99 23.0137 180.893 23.0137C181.777 23.0137 182.457 22.668 182.932 21.9766C183.406 21.2793 183.646 20.2656 183.652 18.9355V18.3115ZM197.926 12.2031V20.6318C197.926 22.0322 197.486 23.1396 196.607 23.9541C195.734 24.7686 194.539 25.1758 193.021 25.1758C191.527 25.1758 190.341 24.7803 189.462 23.9893C188.583 23.1982 188.135 22.1113 188.117 20.7285V12.2031H190.754V20.6494C190.754 21.4873 190.953 22.0996 191.352 22.4863C191.756 22.8672 192.312 23.0576 193.021 23.0576C194.504 23.0576 195.257 22.2783 195.28 20.7197V12.2031H197.926ZM202.725 20.4912V25H200.088V12.2031H205.08C206.041 12.2031 206.885 12.3789 207.611 12.7305C208.344 13.082 208.906 13.583 209.299 14.2334C209.691 14.8779 209.888 15.6133 209.888 16.4395C209.888 17.6934 209.457 18.6836 208.596 19.4102C207.74 20.1309 206.554 20.4912 205.036 20.4912H202.725ZM202.725 18.3555H205.08C205.777 18.3555 206.308 18.1914 206.671 17.8633C207.04 17.5352 207.225 17.0664 207.225 16.457C207.225 15.8301 207.04 15.3232 206.671 14.9365C206.302 14.5498 205.792 14.3506 205.142 14.3389H202.725V18.3555ZM218.343 21.6426C218.343 21.1445 218.167 20.7637 217.815 20.5C217.464 20.2305 216.831 19.9492 215.917 19.6562C215.003 19.3574 214.279 19.0645 213.746 18.7773C212.293 17.9922 211.566 16.9346 211.566 15.6045C211.566 14.9131 211.76 14.2979 212.146 13.7588C212.539 13.2139 213.099 12.7891 213.825 12.4844C214.558 12.1797 215.378 12.0273 216.286 12.0273C217.2 12.0273 218.015 12.1943 218.729 12.5283C219.444 12.8564 219.998 13.3223 220.391 13.9258C220.789 14.5293 220.988 15.2148 220.988 15.9824H218.352C218.352 15.3965 218.167 14.9424 217.798 14.6201C217.429 14.292 216.91 14.1279 216.242 14.1279C215.598 14.1279 215.097 14.2656 214.739 14.541C214.382 14.8105 214.203 15.168 214.203 15.6133C214.203 16.0293 214.411 16.3779 214.827 16.6592C215.249 16.9404 215.867 17.2041 216.682 17.4502C218.182 17.9014 219.274 18.4609 219.96 19.1289C220.646 19.7969 220.988 20.6289 220.988 21.625C220.988 22.7324 220.569 23.6025 219.731 24.2354C218.894 24.8623 217.766 25.1758 216.348 25.1758C215.363 25.1758 214.467 24.9971 213.658 24.6396C212.85 24.2764 212.231 23.7812 211.804 23.1543C211.382 22.5273 211.171 21.8008 211.171 20.9746H213.816C213.816 22.3867 214.66 23.0928 216.348 23.0928C216.975 23.0928 217.464 22.9668 217.815 22.7148C218.167 22.457 218.343 22.0996 218.343 21.6426Z" fill="#0270BB"/>
</svg>
