<svg width="160" height="104" viewBox="0 0 160 104" fill="none" xmlns="http://www.w3.org/2000/svg">
<path d="M13.3064 15.8128L13.0293 16.5107L56.5317 35.5557L56.8088 34.8577L13.3064 15.8128Z" fill="#587BC9"/>
<path d="M60.9995 94.5462L61.4463 93.9352L19.53 63.6799L19.0832 64.291L60.9995 94.5462Z" fill="#587BC9"/>
<path d="M144.952 32.3812L145.223 31.681L98.8245 11.7985L98.5534 12.4986L144.952 32.3812Z" fill="#587BC9"/>
<path d="M91.3556 66.1562L63.7695 98.7192L64.3554 99.205L91.9414 66.6419L91.3556 66.1562Z" fill="#587BC9"/>
<path d="M12.6371 15.967L11.9639 16.2354L30.3835 67.1886L31.0567 66.9202L12.6371 15.967Z" fill="#587BC9"/>
<path d="M76.9133 95.3784C78.4974 90.6886 76.1611 85.5383 71.6951 83.8748C67.229 82.2114 62.3244 84.6647 60.7403 89.3545C59.1562 94.0443 61.4925 99.1947 65.9586 100.858C70.4246 102.522 75.3292 100.068 76.9133 95.3784Z" fill="#EDA125"/>
<path d="M68.3869 100.358C70.4855 100.501 72.4422 99.7358 73.9072 98.3854C73.7138 97.6227 73.4813 96.8773 73.2097 96.1751C72.7529 94.9933 71.9011 94.0491 70.8641 93.5046C70.8724 93.4917 70.8826 93.4787 70.8909 93.4657C71.3415 92.7052 71.4773 91.8215 71.4711 90.9594C71.4649 90.1406 71.325 89.2958 70.8477 88.6044C70.3724 87.913 69.5041 87.4074 68.6111 87.4917C67.6523 87.5824 66.8787 88.3278 66.5516 89.1575C66.2244 89.9872 66.2573 90.8946 66.3211 91.7718C66.3685 92.4006 66.531 93.0401 66.817 93.5738C66.1853 93.9735 65.6277 94.5612 65.0928 95.2828C64.5475 96.0217 64.5702 96.0563 64.2266 96.9292C64.0579 97.357 63.8891 97.8021 63.7451 98.2882C64.9817 99.4722 66.5907 100.237 68.3869 100.358Z" fill="white"/>
<path d="M99.3721 12.1753L55.5996 34.8046L55.9177 35.483L99.6902 12.8537L99.3721 12.1753Z" fill="#587BC9"/>
<path d="M56.8586 34.8841L56.4814 35.5283L102.496 65.2327L102.873 64.5885L56.8586 34.8841Z" fill="#587BC9"/>
<path d="M144.447 29.1762L102.457 64.6097L102.908 65.1991L144.898 29.7657L144.447 29.1762Z" fill="#587BC9"/>
<path d="M73.5665 34.623C74.4343 25.8571 68.3707 18.0122 60.0231 17.1008C51.6754 16.1895 44.2048 22.5569 43.337 31.3228C42.4691 40.0887 48.5327 47.9337 56.8804 48.845C65.228 49.7563 72.6987 43.3889 73.5665 34.623Z" fill="#EDA125"/>
<path d="M154.028 34.8564C156.86 29.432 154.968 22.6241 149.802 19.6505C144.636 16.6769 138.153 18.6638 135.322 24.0882C132.49 29.5126 134.382 36.3205 139.548 39.2941C144.713 42.2677 151.196 40.2808 154.028 34.8564Z" fill="#EDA125"/>
<path d="M24.8867 17.6266C25.5408 10.9927 20.9499 5.05809 14.6326 4.37116C8.31529 3.68424 2.66379 8.50516 2.00964 15.139C1.35549 21.7728 5.9464 27.7075 12.2637 28.3944C18.581 29.0814 24.2325 24.2604 24.8867 17.6266Z" fill="#0270BB"/>
<path d="M106.655 17.2284C109.134 13.0905 107.949 7.62572 104.009 5.02241C100.068 2.41911 94.8644 3.66315 92.3853 7.80105C89.9062 11.939 91.0909 17.4038 95.0313 20.0071C98.9718 22.6104 104.176 21.3663 106.655 17.2284Z" fill="#75BF1E"/>
<path d="M117.968 76.2519C126.8 66.9773 126.8 51.9401 117.968 42.6655C109.136 33.3909 94.8162 33.3909 85.9841 42.6655C77.152 51.9401 77.152 66.9772 85.9841 76.2519C94.8162 85.5265 109.136 85.5265 117.968 76.2519Z" fill="#0270BB"/>
<path d="M31.01 76.578C38.0074 75.6176 42.9385 68.8824 42.024 61.5344C41.1094 54.1864 34.6956 49.0083 27.6982 49.9686C20.7008 50.929 15.7697 57.6642 16.6842 65.0122C17.5988 72.3602 24.0127 77.5383 31.01 76.578Z" fill="#75BF1E"/>
<path d="M13.0142 26.7717C15.7898 26.9597 18.374 25.9485 20.3122 24.1639C20.0571 23.157 19.7505 22.1696 19.3905 21.2427C18.7856 19.6784 17.6601 18.4339 16.2898 17.7145C16.3001 17.6972 16.3145 17.6799 16.3248 17.6626C16.9194 16.6579 17.1004 15.489 17.0922 14.3504C17.084 13.2679 16.8988 12.1509 16.2692 11.2391C15.6396 10.3252 14.4936 9.65539 13.3126 9.76774C12.0451 9.88874 11.0246 10.8718 10.5905 11.9694C10.1563 13.067 10.2016 14.264 10.2859 15.4242C10.3477 16.256 10.5637 17.1008 10.9423 17.8052C10.109 18.3345 9.37035 19.1102 8.66462 20.0652C7.94243 21.0439 7.9733 21.0893 7.51859 22.2409C7.29432 22.807 7.07416 23.3947 6.88281 24.0385C8.51237 25.6007 10.6398 26.6118 13.0142 26.7717Z" fill="white"/>
<path d="M28.6807 72.6133C31.8497 72.8142 34.8003 71.7274 37.0106 69.8066C36.7201 68.722 36.3684 67.6633 35.96 66.6651C35.2699 64.9842 33.9857 63.6446 32.4197 62.8689C32.4328 62.8495 32.4481 62.8322 32.459 62.8127C33.1383 61.7324 33.3458 60.475 33.3348 59.2521C33.3261 58.0875 33.1121 56.8862 32.3957 55.9053C31.6772 54.9222 30.3689 54.2027 29.0214 54.3237C27.5734 54.4533 26.4093 55.512 25.9135 56.6917C25.4178 57.8714 25.468 59.1592 25.5663 60.408C25.6362 61.3025 25.8851 62.2099 26.3154 62.9705C25.3632 63.5387 24.5201 64.3727 23.7142 65.4011C22.8908 66.4534 22.9236 66.5009 22.406 67.7411C22.1505 68.3504 21.8993 68.9813 21.6787 69.6748C23.5439 71.3536 25.9725 72.4426 28.6807 72.6133Z" fill="white"/>
<path d="M57.6978 46.7378C61.3006 46.9798 64.6564 45.6683 67.1707 43.3521C66.8414 42.045 66.4402 40.7637 65.9752 39.5603C65.1913 37.5314 63.7305 35.9132 61.9507 34.9798C61.9651 34.956 61.9816 34.9366 61.996 34.9128C62.7676 33.6078 63.0042 32.091 62.9918 30.6132C62.9815 29.2066 62.7388 27.759 61.924 26.5728C61.1071 25.3867 59.6196 24.5181 58.0867 24.6629C56.4407 24.8184 55.1157 26.0975 54.5519 27.5214C53.9902 28.9452 54.0457 30.5008 54.1569 32.0068C54.2371 33.0871 54.519 34.1825 55.0087 35.0986C53.9264 35.7857 52.9676 36.7904 52.052 38.0327C51.1158 39.3031 51.1529 39.3615 50.5644 40.8588C50.2743 41.5934 49.9863 42.3561 49.7373 43.1922C51.8545 45.2167 54.6157 46.5304 57.6978 46.7378Z" fill="white"/>
<path d="M99.1985 19.5427C101.387 19.681 103.425 18.9313 104.951 17.6047C104.75 16.8571 104.508 16.1247 104.226 15.4354C103.75 14.2752 102.863 13.3483 101.782 12.8146C101.791 12.8016 101.802 12.7887 101.811 12.7757C102.28 12.0281 102.422 11.1617 102.416 10.3169C102.409 9.5132 102.263 8.68353 101.767 8.0051C101.271 7.32667 100.367 6.82973 99.4365 6.91183C98.4363 7.00042 97.6325 7.73286 97.2896 8.54741C96.9489 9.36196 96.9817 10.2521 97.0494 11.1142C97.0975 11.7321 97.27 12.3587 97.567 12.8837C96.9096 13.277 96.3265 13.8517 95.7717 14.5625C95.2039 15.2885 95.2258 15.3231 94.8676 16.1787C94.6907 16.6 94.5159 17.0343 94.3652 17.5139C95.6494 18.672 97.3268 19.4239 99.1985 19.5427Z" fill="white"/>
<path d="M100.583 78.4732C106.766 78.8664 112.523 76.7447 116.839 72.9982C116.273 70.8829 115.587 68.8152 114.788 66.8685C113.443 63.5887 110.935 60.9722 107.88 59.4641C107.904 59.4274 107.935 59.3928 107.956 59.3561C109.282 57.2474 109.686 54.7951 109.664 52.4076C109.645 50.1346 109.232 47.7925 107.83 45.8761C106.43 43.9596 103.877 42.5531 101.245 42.7886C98.421 43.0414 96.1474 45.1069 95.1799 47.4101C94.2146 49.7133 94.3107 52.2261 94.5028 54.6611C94.6404 56.4069 95.1231 58.1786 95.964 59.6586C94.1054 60.767 92.4608 62.3961 90.8905 64.4011C89.283 66.4537 89.3486 66.5488 88.3374 68.9686C87.8394 70.157 87.3458 71.3885 86.9199 72.7411C90.5563 76.0144 95.2957 78.1383 100.583 78.4732Z" fill="white"/>
<path d="M143.705 39.077C146.281 39.2498 148.68 38.3121 150.478 36.6549C150.242 35.7194 149.956 34.8033 149.624 33.9434C149.063 32.4914 148.019 31.3355 146.746 30.6679C146.756 30.6506 146.768 30.6355 146.779 30.6203C147.33 29.687 147.499 28.6023 147.491 27.5458C147.482 26.5411 147.31 25.504 146.727 24.6571C146.143 23.8101 145.079 23.1879 143.983 23.2916C142.806 23.4039 141.859 24.3179 141.456 25.3355C141.053 26.3532 141.094 27.4659 141.174 28.5418C141.232 29.3132 141.433 30.0975 141.783 30.7521C141.009 31.2426 140.324 31.9621 139.668 32.8501C138.997 33.7575 139.026 33.8008 138.604 34.8703C138.396 35.3953 138.191 35.9398 138.014 36.5382C139.526 37.9902 141.501 38.9279 143.705 39.077Z" fill="white"/>
</svg>
