<svg width="354" height="378" viewBox="0 0 354 378" fill="none" xmlns="http://www.w3.org/2000/svg">
<path d="M0.0429688 228.081C3.44933 222.711 7.50015 217.796 11.7044 213.033C29.9637 192.159 51.967 175.898 76.3026 162.61C107.205 145.711 140.134 134.182 174.78 127.598C187.239 125.232 199.852 123.654 212.588 123.563C214.031 123.563 214.398 123.927 214.398 125.353C214.337 135.213 214.398 145.104 214.43 154.964C214.43 155.965 214.214 156.845 213.693 157.695C201.601 178.446 189.541 199.169 177.48 219.95C176.836 221.044 175.884 221.497 174.904 222.075C166.372 226.96 157.841 231.843 149.34 236.789C148.389 237.335 147.836 237.396 147.008 236.606C135.377 225.625 121.291 219.283 105.855 215.613C96.0042 213.276 86 212.185 75.8423 212.063C52.4581 211.79 29.7796 215.43 8.1446 224.472C5.44405 225.593 2.86627 227.021 0.257785 228.324C0.196408 228.264 0.135033 228.173 0.0429688 228.081Z" fill="#0270BB" fill-opacity="0.25"/>
<path d="M305.787 1.05347C308.765 7.06062 311.127 12.8554 313.214 18.7411C318.769 34.4568 322.144 50.6579 323.863 67.2232C325.612 84.1828 325.673 101.142 324.292 118.132C321.652 150.777 314.503 182.391 302.258 212.852C299.098 220.739 295.446 228.415 291.272 235.878C290.657 237.001 290.229 237.274 289.001 236.545C280.224 231.48 271.416 226.504 262.61 221.497C261.903 221.103 261.351 220.588 260.922 219.86C248.708 198.986 236.463 178.144 224.218 157.3C223.943 156.815 223.697 156.329 223.697 155.723C223.727 145.437 223.727 135.183 223.666 124.898C223.666 123.866 223.943 123.442 224.987 123.138C238.397 119.255 249.813 112.004 259.786 102.477C276.726 86.3065 288.081 66.6467 296.335 45.0453C300.417 34.3355 303.394 23.3528 304.836 12.0059C305.327 8.5169 305.449 4.99755 305.787 1.05347Z" fill="#0270BB" fill-opacity="0.25"/>
<path d="M351.942 376.561C341.723 376.045 331.718 374.376 321.868 371.949C295.108 365.275 270.557 353.685 247.48 338.941C229.037 327.17 212.036 313.669 196.293 298.56C181.225 284.087 167.446 268.554 156.06 251.048C155.109 249.561 154.219 248.014 153.237 246.528C152.715 245.77 152.9 245.404 153.667 244.949C162.72 239.822 171.742 234.635 180.764 229.447C181.408 229.082 182.053 229.021 182.758 229.021C207.064 228.992 231.369 228.931 255.704 228.87C256.563 228.87 257.269 229.082 258.006 229.506C266.845 234.543 275.712 239.549 284.551 244.556C285.196 244.919 285.84 245.102 285.563 246.194C281.482 262.212 283.14 277.989 288.081 293.523C294.34 313.274 304.866 330.688 318.123 346.555C326.593 356.72 336.014 365.943 347.062 373.406C348.658 374.529 350.315 375.53 351.942 376.561Z" fill="#0270BB" fill-opacity="0.25"/>
<path d="M236.801 202.232C236.801 211.88 228.975 219.587 219.185 219.587C209.365 219.587 201.447 211.79 201.447 202.112C201.447 192.373 209.396 184.667 219.399 184.667C229.066 184.667 236.801 192.464 236.801 202.232Z" fill="#0270BB" fill-opacity="0.25"/>
</svg>
