<svg width="306" height="306" viewBox="-90 -90 720 720" fill="none" xmlns="http://www.w3.org/2000/svg">
<path d="M168.729 371.616V139.825H246.442V173.81H196.343V232.227H242.491V266.226H196.343V337.622H246.436V371.616H168.723H168.729ZM59.2651 371.616V139.825H103.841C106.746 139.825 109.647 140.033 112.522 140.446C115.459 140.627 118.335 141.36 121 142.607C123.799 143.748 126.345 145.429 128.495 147.555C130.997 149.818 133.233 152.907 135.203 156.825C138.302 163.026 140.304 169.718 141.12 176.603C142.071 183.879 142.532 191.21 142.501 198.548C142.5 203.504 142.235 208.456 141.709 213.384C141.358 218.1 140.498 222.763 139.145 227.293C137.985 231.364 136.188 235.225 133.82 238.732C131.501 242.194 128.391 245.054 124.747 247.075V247.696C132.507 249.342 138.029 255.008 141.314 264.693C144.603 274.171 146.248 286.432 146.248 301.474C146.248 306.213 146.116 310.952 145.853 315.689C145.587 320.454 145.059 325.2 144.273 329.907C141.249 344.537 136.911 355.148 131.259 361.74C125.607 368.332 117.849 371.629 107.986 371.631L59.2651 371.616ZM92.0076 233.463C95.5664 233.455 99.122 233.249 102.658 232.845C106.473 232.227 109.498 229.754 111.733 225.427C113.046 222.54 113.831 219.037 114.088 214.918C114.481 210.797 114.677 205.955 114.677 200.394C114.677 191.739 113.756 185.249 111.913 180.921C110.07 176.594 106 174.224 99.7024 173.81H86.8797V233.463H92.0076ZM92.7965 337.622H101.28C104.162 337.625 106.978 336.763 109.364 335.147C111.206 333.91 112.653 332.057 113.703 329.586C114.91 327.033 115.773 324.331 116.266 321.55C116.945 318.502 117.339 315.398 117.444 312.277C117.709 308.98 117.841 305.889 117.841 303.005C117.883 297.636 117.618 292.27 117.05 286.932C116.526 282.395 115.544 278.685 114.106 275.802C112.667 272.919 110.63 270.859 107.995 269.62C105.363 268.178 101.878 267.456 97.5388 267.454H86.8797V337.616L92.7965 337.622ZM269.509 301.274C283.152 321.918 314.456 340.328 320.358 316.669C324.623 299.564 318.356 292.443 311.609 287.63C264.027 253.692 266.488 217.07 266.488 192.113C266.488 167.157 281.987 141.844 305.554 140.096C329.121 138.347 343.574 159.674 343.574 159.674V204.586C323.51 175.552 293.067 177.301 292.484 196.776C292.004 212.825 294.294 214.621 314.426 231.98L315.245 232.686C317.196 234.367 319.307 236.192 321.591 238.185C328.158 244.52 337.628 255.673 343.257 271.354C346.018 280.965 347.672 293.205 347.228 308.692C345.556 367.271 323.622 371.616 305.469 371.616C281.492 370.571 269.509 349.209 269.509 349.209V301.274ZM360.627 139.825H452.738V173.81H420.593V371.625H392.981V173.81H360.627V139.825ZM256 11.5863C121.012 11.5863 11.5863 121.012 11.5863 256C11.5863 390.988 121.012 500.425 256 500.425C390.988 500.425 500.425 390.985 500.425 256C500.425 121.015 390.985 11.5863 256 11.5863ZM256 0C397.385 0 512 114.612 512 256C512 397.388 397.397 512 256 512C114.603 512 0 397.397 0 256C0 114.603 114.612 0 256 0Z" fill="#465F86"/>
</svg>
