<svg width="306" height="140" viewBox="0 0 306 140" fill="none" xmlns="http://www.w3.org/2000/svg">
<path d="M97.5081 41.9144H84.0762V111.402H97.5081V41.9144Z" fill="#B5C3C2"/>
<path d="M95.3144 36.9335H86.2715V66.1335H95.3144V36.9335Z" fill="#B5C3C2"/>
<path d="M93.3011 33.772H88.2852V49.9686H93.3011V33.772Z" fill="#B5C3C2"/>
<path d="M92.5021 42.0957H89.083V31.058H90.3165H91.5385H92.5021V42.0957Z" fill="#B5C3C2"/>
<path d="M90.5681 37.2894H90.1963V26.25H90.3309H90.463H90.5681V37.2894Z" fill="#B5C3C2"/>
<path d="M91.3894 33.4727H91.0176V22.435H91.1509H91.2843H91.3894V33.4727Z" fill="#B5C3C2"/>
<path d="M97.8662 41.7365H83.7178V42.4765H97.8662V41.7365Z" fill="#B5C3C2"/>
<path d="M95.6433 36.576H85.9414V37.2878H95.6433V36.576Z" fill="#B5C3C2"/>
<path d="M93.5107 33.4728H87.9189V34.0199H93.5107V33.4728Z" fill="#B5C3C2"/>
<path opacity="0.29" d="M87.5235 38.1177H87.1025V41.1777H87.5235V38.1177Z" fill="#B5C3C2"/>
<path opacity="0.29" d="M88.6866 38.1177H88.2656V41.1777H88.6866V38.1177Z" fill="#B5C3C2"/>
<path opacity="0.29" d="M89.8497 38.1177H89.4287V41.1777H89.8497V38.1177Z" fill="#B5C3C2"/>
<path opacity="0.29" d="M91.0128 38.1177H90.5918V41.1777H91.0128V38.1177Z" fill="#B5C3C2"/>
<path opacity="0.29" d="M92.1758 38.1177H91.7549V41.1777H92.1758V38.1177Z" fill="#B5C3C2"/>
<path opacity="0.29" d="M93.339 38.1177H92.918V41.1777H93.339V38.1177Z" fill="#B5C3C2"/>
<path opacity="0.29" d="M94.502 38.1177H94.0811V41.1777H94.502V38.1177Z" fill="#B5C3C2"/>
<path d="M86.2719 44.6851H85.2559V48.3155H86.2719V44.6851Z" fill="#B5C3C2"/>
<path opacity="0.29" d="M88.2836 44.6851H87.2676V48.3155H88.2836V44.6851Z" fill="#B5C3C2"/>
<path d="M90.2953 44.6851H89.2793V48.3155H90.2953V44.6851Z" fill="#B5C3C2"/>
<path d="M92.306 44.6851H91.29V48.3155H92.306V44.6851Z" fill="#B5C3C2"/>
<path d="M94.3177 44.6851H93.3018V48.3155H94.3177V44.6851Z" fill="#B5C3C2"/>
<path d="M96.3295 44.6851H95.3135V48.3155H96.3295V44.6851Z" fill="#B5C3C2"/>
<path d="M86.2719 50.3428H85.2559V53.9732H86.2719V50.3428Z" fill="#B5C3C2"/>
<path d="M88.2836 50.3428H87.2676V53.9732H88.2836V50.3428Z" fill="#B5C3C2"/>
<path d="M90.2953 50.3428H89.2793V53.9732H90.2953V50.3428Z" fill="#B5C3C2"/>
<path opacity="0.29" d="M92.306 50.3428H91.29V53.9732H92.306V50.3428Z" fill="#B5C3C2"/>
<path d="M94.3177 50.3428H93.3018V53.9732H94.3177V50.3428Z" fill="#B5C3C2"/>
<path d="M96.3295 50.3428H95.3135V53.9732H96.3295V50.3428Z" fill="#B5C3C2"/>
<path d="M86.2719 56.0021H85.2559V59.6326H86.2719V56.0021Z" fill="#B5C3C2"/>
<path d="M88.2836 56.0021H87.2676V59.6326H88.2836V56.0021Z" fill="#B5C3C2"/>
<path d="M90.2953 56.0021H89.2793V59.6326H90.2953V56.0021Z" fill="#B5C3C2"/>
<path d="M92.306 56.0021H91.29V59.6326H92.306V56.0021Z" fill="#B5C3C2"/>
<path opacity="0.29" d="M94.3177 56.0021H93.3018V59.6326H94.3177V56.0021Z" fill="#B5C3C2"/>
<path opacity="0.29" d="M96.3295 56.0021H95.3135V59.6326H96.3295V56.0021Z" fill="#B5C3C2"/>
<path opacity="0.29" d="M86.2719 61.6599H85.2559V65.2904H86.2719V61.6599Z" fill="#B5C3C2"/>
<path d="M88.2836 61.6599H87.2676V65.2904H88.2836V61.6599Z" fill="#B5C3C2"/>
<path d="M90.2953 61.6599H89.2793V65.2904H90.2953V61.6599Z" fill="#B5C3C2"/>
<path d="M92.306 61.6599H91.29V65.2904H92.306V61.6599Z" fill="#B5C3C2"/>
<path d="M94.3177 61.6599H93.3018V65.2904H94.3177V61.6599Z" fill="#B5C3C2"/>
<path d="M96.3295 61.6599H95.3135V65.2904H96.3295V61.6599Z" fill="#B5C3C2"/>
<path d="M86.2719 67.3193H85.2559V70.9497H86.2719V67.3193Z" fill="#B5C3C2"/>
<path opacity="0.29" d="M88.2836 67.3193H87.2676V70.9497H88.2836V67.3193Z" fill="#B5C3C2"/>
<path d="M90.2953 67.3193H89.2793V70.9497H90.2953V67.3193Z" fill="#B5C3C2"/>
<path opacity="0.29" d="M92.306 67.3193H91.29V70.9497H92.306V67.3193Z" fill="#B5C3C2"/>
<path d="M94.3177 67.3193H93.3018V70.9497H94.3177V67.3193Z" fill="#B5C3C2"/>
<path d="M96.3295 67.3193H95.3135V70.9497H96.3295V67.3193Z" fill="#B5C3C2"/>
<path d="M86.2719 72.977H85.2559V76.6074H86.2719V72.977Z" fill="#B5C3C2"/>
<path d="M88.2836 72.977H87.2676V76.6074H88.2836V72.977Z" fill="#B5C3C2"/>
<path d="M90.2953 72.977H89.2793V76.6074H90.2953V72.977Z" fill="#B5C3C2"/>
<path d="M92.306 72.977H91.29V76.6074H92.306V72.977Z" fill="#B5C3C2"/>
<path d="M94.3177 72.977H93.3018V76.6074H94.3177V72.977Z" fill="#B5C3C2"/>
<path opacity="0.29" d="M96.3295 72.977H95.3135V76.6074H96.3295V72.977Z" fill="#B5C3C2"/>
<path d="M86.2719 78.6364H85.2559V82.2669H86.2719V78.6364Z" fill="#B5C3C2"/>
<path opacity="0.29" d="M88.2836 78.6364H87.2676V82.2669H88.2836V78.6364Z" fill="#B5C3C2"/>
<path opacity="0.29" d="M90.2953 78.6364H89.2793V82.2669H90.2953V78.6364Z" fill="#B5C3C2"/>
<path d="M92.306 78.6364H91.29V82.2669H92.306V78.6364Z" fill="#B5C3C2"/>
<path d="M94.3177 78.6364H93.3018V82.2669H94.3177V78.6364Z" fill="#B5C3C2"/>
<path d="M96.3295 78.6364H95.3135V82.2669H96.3295V78.6364Z" fill="#B5C3C2"/>
<path d="M86.2719 84.2941H85.2559V87.9246H86.2719V84.2941Z" fill="#B5C3C2"/>
<path d="M88.2836 84.2941H87.2676V87.9246H88.2836V84.2941Z" fill="#B5C3C2"/>
<path d="M90.2953 84.2941H89.2793V87.9246H90.2953V84.2941Z" fill="#B5C3C2"/>
<path d="M92.306 84.2941H91.29V87.9246H92.306V84.2941Z" fill="#B5C3C2"/>
<path opacity="0.29" d="M94.3177 84.2941H93.3018V87.9246H94.3177V84.2941Z" fill="#B5C3C2"/>
<path d="M96.3295 84.2941H95.3135V87.9246H96.3295V84.2941Z" fill="#B5C3C2"/>
<path d="M86.2719 89.9536H85.2559V93.584H86.2719V89.9536Z" fill="#B5C3C2"/>
<path opacity="0.29" d="M88.2836 89.9536H87.2676V93.584H88.2836V89.9536Z" fill="#B5C3C2"/>
<path d="M90.2953 89.9536H89.2793V93.584H90.2953V89.9536Z" fill="#B5C3C2"/>
<path d="M92.306 89.9536H91.29V93.584H92.306V89.9536Z" fill="#B5C3C2"/>
<path d="M94.3177 89.9536H93.3018V93.584H94.3177V89.9536Z" fill="#B5C3C2"/>
<path d="M96.3295 89.9536H95.3135V93.584H96.3295V89.9536Z" fill="#B5C3C2"/>
<path d="M86.2719 95.6112H85.2559V99.2417H86.2719V95.6112Z" fill="#B5C3C2"/>
<path d="M88.2836 95.6112H87.2676V99.2417H88.2836V95.6112Z" fill="#B5C3C2"/>
<path d="M90.2953 95.6112H89.2793V99.2417H90.2953V95.6112Z" fill="#B5C3C2"/>
<path opacity="0.29" d="M92.306 95.6112H91.29V99.2417H92.306V95.6112Z" fill="#B5C3C2"/>
<path d="M94.3177 95.6112H93.3018V99.2417H94.3177V95.6112Z" fill="#B5C3C2"/>
<path opacity="0.29" d="M96.3295 95.6112H95.3135V99.2417H96.3295V95.6112Z" fill="#B5C3C2"/>
<path opacity="0.29" d="M86.2719 101.269H85.2559V104.899H86.2719V101.269Z" fill="#B5C3C2"/>
<path d="M88.2836 101.269H87.2676V104.899H88.2836V101.269Z" fill="#B5C3C2"/>
<path opacity="0.29" d="M90.2953 101.269H89.2793V104.899H90.2953V101.269Z" fill="#B5C3C2"/>
<path d="M92.306 101.269H91.29V104.899H92.306V101.269Z" fill="#B5C3C2"/>
<path d="M94.3177 101.269H93.3018V104.899H94.3177V101.269Z" fill="#B5C3C2"/>
<path d="M96.3295 101.269H95.3135V104.899H96.3295V101.269Z" fill="#B5C3C2"/>
<path d="M66.6592 44.5571H45.0674V103.093H66.6592V44.5571Z" fill="#B5C3C2"/>
<path d="M67.2721 43.551H44.4531V45.2058H67.2721V43.551Z" fill="#B5C3C2"/>
<path d="M65.9337 41.4339H45.793V49.2985H65.9337V41.4339Z" fill="#B5C3C2"/>
<path d="M55.3107 38.2159H47.335V46.8089H55.3107V38.2159Z" fill="#B5C3C2"/>
<path d="M51.9504 40.6373H47.335V36.1138H50.6453L51.9504 40.6373Z" fill="#B5C3C2"/>
<path d="M49.6432 32.3603H49.1953V42.4351H49.6432V32.3603Z" fill="#B5C3C2"/>
<path d="M49.4194 32.3603C49.6413 32.3603 49.8212 32.1265 49.8212 31.8381C49.8212 31.5497 49.6413 31.3159 49.4194 31.3159C49.1975 31.3159 49.0176 31.5497 49.0176 31.8381C49.0176 32.1265 49.1975 32.3603 49.4194 32.3603Z" fill="#B5C3C2"/>
<path d="M245.465 107.55H221.829L218.88 21.4855L245.465 28.6582V107.55Z" fill="#B5C3C2"/>
<path d="M142.347 58.4004V29.6261H138.64V21.9179H137.316V10.6141H130.019V2.30709H129.371V10.6141H127.941V0.214966H127.291V10.6141H122.68V29.6261H120.297V58.4004H118.255V110.81H143.783V58.4004H142.347Z" fill="#B5C3C2"/>
<path d="M297.293 106.484H14.8906V115.214H297.293V106.484Z" fill="#B5C3C2"/>
<path d="M181.122 113.075H168.616L173.489 80.529H181.122V113.075Z" fill="#95A9A7"/>
<path d="M301.267 114.342H4.75781V139.576H301.267V114.342Z" fill="#95A9A7"/>
<path d="M170.873 52.8491V38.427H166.857V32.9373H164.709V28.3256H163.955V20.4178H163.761V28.3256H163.007V32.9373H160.859V38.427H156.874V52.8491H156.046V79.0323H149.868V108.881H156.046H162.224H171.67V52.8491H170.873Z" fill="#95A9A7"/>
<path d="M193.949 69.4164H174.514V69.8754H175.394V112.586H193.07V69.8754H193.949V69.4164Z" fill="#95A9A7"/>
<path d="M105.325 80.0551H88.0938V115.635H105.325V80.0551Z" fill="#95A9A7"/>
<path d="M85.4986 98.2838H55.8633V115.634H85.4986V98.2838Z" fill="#95A9A7"/>
<path d="M78.2535 59.5196H71.748V102.127H78.2535V59.5196Z" fill="#95A9A7"/>
<path d="M73.5221 48.1543H73.1836V71.324H73.5221V48.1543Z" fill="#95A9A7"/>
<path d="M74.6217 49.9105H74.2832V73.0802H74.6217V49.9105Z" fill="#95A9A7"/>
<path d="M76.227 56.8837H72.25V62.5946H76.227V56.8837Z" fill="#95A9A7"/>
<path d="M95.6588 86.4229H84.3369V115.633H95.6588V86.4229Z" fill="#95A9A7"/>
<path d="M129.371 55.5116H108.118V115.633H129.371V55.5116Z" fill="#95A9A7"/>
<path d="M127.282 53.4461H110.206V63.4594H127.282V53.4461Z" fill="#95A9A7"/>
<path d="M131.019 56.7705H106.472V57.474H131.019V56.7705Z" fill="#95A9A7"/>
<path d="M114.282 85.2704H104.268V115.633H114.282V85.2704Z" fill="#95A9A7"/>
<path d="M44.0357 84.1179H32.5449V115.635H44.0357V84.1179Z" fill="#95A9A7"/>
<path d="M59.1587 75.5515H36.2617V115.633H59.1587V75.5515Z" fill="#95A9A7"/>
<path d="M59.7499 74.0148H34.9258V75.5515H59.7499V74.0148Z" fill="#95A9A7"/>
<path d="M47.3381 69.8422H37.2754V77.9679H47.3381V69.8422Z" fill="#95A9A7"/>
<path d="M52.3154 69.8422H50.625V74.7832H52.3154V69.8422Z" fill="#95A9A7"/>
<path d="M55.8641 69.8422H54.0049V74.7832H55.8641V69.8422Z" fill="#95A9A7"/>
<path d="M38.2894 103.444H26.292V115.633H38.2894V103.444Z" fill="#95A9A7"/>
<path d="M27.4412 98.2838H21.7598V115.634H27.4412V98.2838Z" fill="#95A9A7"/>
<path d="M24.6002 109.539H14.8906V115.635H24.6002V109.539Z" fill="#95A9A7"/>
<path d="M246.929 102.127H127.284V115.634H246.929V102.127Z" fill="#95A9A7"/>
<path d="M237.374 64.7383C236.621 64.7383 236.004 65.4917 235.943 66.4496L234.259 66.3781C234.264 66.1635 234.265 65.949 234.265 65.7345C234.265 63.0104 233.903 60.3595 233.209 57.8715L234.616 57.198C234.837 57.8616 235.344 58.3239 235.935 58.3239C236.73 58.3239 237.373 57.4874 237.373 56.4546C237.373 55.4218 236.73 54.5853 235.935 54.5853C235.14 54.5853 234.497 55.4218 234.497 56.4546C234.497 56.6459 234.518 56.8288 234.559 57.0017L233.153 57.6753C232.352 54.8814 231.13 52.3003 229.529 50.0635L230.63 48.723C230.888 49.044 231.238 49.2403 231.623 49.2403C232.417 49.2403 233.061 48.4037 233.061 47.371C233.061 46.3382 232.417 45.5017 231.623 45.5017C230.828 45.5017 230.184 46.3382 230.184 47.371C230.184 47.8283 230.311 48.2458 230.52 48.5701L229.419 49.9105C229.305 49.7541 229.19 49.6011 229.074 49.4481C227.406 47.2812 225.467 45.5998 223.354 44.459L223.959 42.5431C224.096 42.5997 224.243 42.6313 224.394 42.6313C225.189 42.6313 225.833 41.7948 225.833 40.762C225.833 39.7292 225.189 38.8927 224.394 38.8927C223.6 38.8927 222.956 39.7292 222.956 40.762C222.956 41.5237 223.307 42.1773 223.81 42.47L223.206 44.3808C221.316 43.3846 219.29 42.8192 217.202 42.7211L217.267 40.1018C217.282 40.1018 217.298 40.1034 217.313 40.1034C218.108 40.1034 218.751 39.2669 218.751 38.2341C218.751 37.2014 218.108 36.3649 217.313 36.3649C216.518 36.3649 215.875 37.2014 215.875 38.2341C215.875 39.1754 216.411 39.9537 217.107 40.0835L217.042 42.7144C216.877 42.7078 216.712 42.7061 216.547 42.7061C214.535 42.7061 212.576 43.1385 210.73 43.97L210.15 41.833C210.673 41.5536 211.04 40.8851 211.04 40.1051C211.04 39.0723 210.397 38.2358 209.602 38.2358C208.808 38.2358 208.164 39.0723 208.164 40.1051C208.164 41.1378 208.808 41.9744 209.602 41.9744C209.739 41.9744 209.872 41.9494 209.998 41.9029L210.577 44.0415C208.339 45.0793 206.271 46.7058 204.489 48.8611L203.438 47.4042C203.674 47.0716 203.817 46.6276 203.817 46.1403C203.817 45.1076 203.174 44.271 202.379 44.271C201.584 44.271 200.941 45.1076 200.941 46.1403C200.941 47.1731 201.584 48.0096 202.379 48.0096C202.741 48.0096 203.071 47.835 203.323 47.5489L204.373 49.0041C204.252 49.1521 204.135 49.3018 204.017 49.4531C202.534 51.3806 201.348 53.5875 200.484 55.9856L199.149 55.184C199.198 54.9978 199.225 54.7965 199.225 54.5887C199.225 53.5559 198.581 52.7194 197.786 52.7194C196.992 52.7194 196.348 53.5559 196.348 54.5887C196.348 55.6214 196.992 56.4579 197.786 56.4579C198.364 56.4579 198.861 56.0156 199.09 55.3769L200.417 56.1736C199.464 58.8843 198.924 61.8313 198.84 64.883L197.126 64.8098C197.104 63.802 196.47 62.9937 195.689 62.9937C194.895 62.9937 194.251 63.8303 194.251 64.863C194.251 65.8958 194.895 66.7323 195.689 66.7323C196.443 66.7323 197.061 65.9789 197.121 65.0194L198.834 65.0925C198.829 65.3071 198.828 65.5216 198.828 65.7361C198.828 68.4602 199.19 71.1111 199.884 73.5991L198.477 74.2726C198.256 73.6107 197.749 73.1467 197.158 73.1467C196.364 73.1467 195.72 73.9832 195.72 75.016C195.72 76.0488 196.364 76.8853 197.158 76.8853C197.953 76.8853 198.596 76.0488 198.596 75.016C198.596 74.8247 198.575 74.6418 198.534 74.4688L199.94 73.7953C200.741 76.5892 201.963 79.1703 203.564 81.4071L202.463 82.7475C202.205 82.4266 201.856 82.2303 201.47 82.2303C200.676 82.2303 200.032 83.0669 200.032 84.0996C200.032 85.1324 200.676 85.9689 201.47 85.9689C202.265 85.9689 202.909 85.1324 202.909 84.0996C202.909 83.6423 202.782 83.2248 202.573 82.9005L203.674 81.5601C203.788 81.7165 203.903 81.8695 204.019 82.0225C205.142 83.481 206.389 84.7199 207.729 85.7228L199.062 106.484H197.506V107.078H196.745V108.257H236.356V107.078H235.593V106.484H234.037L225.368 85.7161C226.524 84.8513 227.609 83.8119 228.605 82.6078L230.01 84.557C229.708 84.8995 229.518 85.4034 229.518 85.9639C229.518 86.9967 230.161 87.8332 230.956 87.8332C231.751 87.8332 232.394 86.9967 232.394 85.9639C232.394 84.9311 231.751 84.0946 230.956 84.0946C230.651 84.0946 230.37 84.2177 230.137 84.4272L228.722 82.4648C228.842 82.3168 228.96 82.1671 229.078 82.0158C230.561 80.0883 231.747 77.8814 232.611 75.4833L234.175 76.4213C234.147 76.5676 234.132 76.7206 234.132 76.8786C234.132 77.9114 234.776 78.7479 235.57 78.7479C236.365 78.7479 237.008 77.9114 237.008 76.8786C237.008 75.8459 236.365 75.0093 235.57 75.0093C234.955 75.0093 234.429 75.5132 234.224 76.22L232.678 75.2921C233.632 72.5813 234.172 69.6343 234.256 66.5826L235.94 66.6541C235.961 67.662 236.596 68.4719 237.377 68.4719C238.172 68.4719 238.815 67.6353 238.815 66.6026C238.813 65.5748 238.169 64.7383 237.374 64.7383ZM233.786 65.7345C233.786 65.9423 233.784 66.1502 233.78 66.3581L228.82 66.1486C228.823 66.0105 228.824 65.8725 228.824 65.7345C228.824 63.8353 228.567 62.0109 228.096 60.3196L232.762 58.0877C233.435 60.5058 233.786 63.0852 233.786 65.7345ZM228.58 66.1386L217.514 65.6713C217.51 65.5781 217.499 65.4867 217.481 65.3985L227.87 60.4276C228.332 62.0857 228.584 63.8718 228.584 65.7345C228.584 65.8692 228.582 66.0039 228.58 66.1386ZM204.518 65.3287L215.584 65.796C215.588 65.8891 215.6 65.9806 215.618 66.0687L205.229 71.0396C204.767 69.3816 204.515 67.5954 204.515 65.7328C204.515 65.5981 204.516 65.4634 204.518 65.3287ZM217.307 64.9545L225.381 55.1208C226.428 56.5926 227.261 58.3239 227.815 60.2331L217.426 65.204C217.394 65.1141 217.354 65.031 217.307 64.9545ZM217.198 64.8015C217.135 64.7283 217.065 64.6651 216.989 64.6152L221.195 51.3058C222.745 52.1523 224.132 53.4079 225.272 54.9695L217.198 64.8015ZM216.841 64.5354C216.783 64.5121 216.722 64.4955 216.66 64.4855L217.02 50.105C218.438 50.1766 219.794 50.5674 221.047 51.226L216.841 64.5354ZM216.5 64.4789C216.433 64.4839 216.367 64.4972 216.305 64.5188L212.625 50.9482C213.856 50.3944 215.176 50.0934 216.55 50.0934C216.654 50.0934 216.758 50.0951 216.861 50.0984L216.5 64.4789ZM216.154 64.587C216.08 64.6302 216.012 64.6851 215.949 64.7483L208.383 54.2544C209.555 52.8441 210.942 51.7332 212.474 51.0147L216.154 64.587ZM215.833 64.8913C215.785 64.9595 215.743 65.0343 215.708 65.1158L205.659 59.0856C206.3 57.3177 207.189 55.7295 208.268 54.3974L215.833 64.8913ZM215.641 65.3037C215.615 65.3952 215.597 65.49 215.589 65.5898L204.525 65.1225C204.586 63.0436 204.961 61.0679 205.591 59.2735L215.641 65.3037ZM215.673 66.2633C215.698 66.3348 215.73 66.4047 215.765 66.4679L215.699 66.6259L207.717 76.3464C206.671 74.8746 205.838 73.1434 205.284 71.2342L215.673 66.2633ZM215.458 67.2046L210.447 79.2102C209.478 78.4668 208.596 77.5522 207.826 76.4994L215.458 67.2046ZM216.003 66.7706C216.037 66.8005 216.072 66.8288 216.109 66.852L211.903 80.1615C211.497 79.9403 211.104 79.6908 210.723 79.4148L216.003 66.7706ZM216.257 66.9319C216.315 66.9552 216.376 66.9718 216.438 66.9818L216.078 81.3622C214.66 81.2907 213.304 80.8999 212.051 80.2413L216.257 66.9319ZM216.549 81.3755C216.445 81.3755 216.342 81.3739 216.238 81.3705L216.598 66.9884C216.666 66.9834 216.731 66.9701 216.794 66.9485L220.474 80.519C219.244 81.0728 217.923 81.3755 216.549 81.3755ZM216.945 66.8803C216.997 66.8487 217.048 66.8121 217.096 66.7706L222.375 79.4164C221.817 79.8189 221.232 80.1665 220.626 80.4509L216.945 66.8803ZM217.833 67.6669L224.715 77.2129C224.086 77.9696 223.395 78.6398 222.651 79.2102L217.833 67.6669ZM217.532 66.9452L217.334 66.4695C217.354 66.433 217.373 66.393 217.391 66.3531L227.441 72.3834C226.8 74.1512 225.911 75.7394 224.832 77.0715L217.532 66.9452ZM217.458 66.1652C217.483 66.0737 217.501 65.9789 217.509 65.8792L228.573 66.3465C228.512 68.4253 228.137 70.401 227.508 72.1954L217.458 66.1652ZM211.813 80.4509L209.925 86.4296C209.349 86.1186 208.786 85.766 208.238 85.3735L210.611 79.6908C210.998 79.9702 211.4 80.2247 211.813 80.4509ZM211.961 80.529C213.239 81.2009 214.623 81.6 216.071 81.6732L215.909 88.1209C213.879 88.0244 211.909 87.474 210.072 86.5061L211.961 80.529ZM216.23 81.6815C216.337 81.6849 216.443 81.6865 216.549 81.6865C217.95 81.6865 219.298 81.3789 220.554 80.8134L222.207 86.9069C220.412 87.7151 218.506 88.1359 216.55 88.1359C216.39 88.1359 216.23 88.1325 216.071 88.1275L216.23 81.6815ZM220.705 80.7452C221.325 80.4542 221.921 80.1016 222.489 79.6908L224.861 85.3735C224.058 85.9506 223.221 86.4395 222.358 86.8403L220.705 80.7452ZM232.705 57.8915L228.039 60.125C227.474 58.1775 226.623 56.4097 225.555 54.908L229.181 50.4909C230.739 52.6662 231.926 55.1757 232.705 57.8915ZM228.738 49.8922C228.852 50.0402 228.964 50.1882 229.074 50.3395L225.447 54.755C224.283 53.1618 222.868 51.8795 221.286 51.0164L223.175 45.0377C225.23 46.1503 227.117 47.7851 228.738 49.8922ZM223.026 44.9595L221.138 50.9382C219.859 50.2664 218.476 49.8672 217.028 49.7941L217.189 43.3464C219.22 43.4412 221.189 43.9933 223.026 44.9595ZM216.549 43.3314C216.709 43.3314 216.869 43.3347 217.029 43.3397L216.868 49.7857C216.762 49.7824 216.655 49.7808 216.549 49.7808C215.148 49.7808 213.801 50.0884 212.544 50.6539L210.891 44.5604C212.687 43.7522 214.594 43.3314 216.549 43.3314ZM210.741 44.6286L212.394 50.7237C210.832 51.4571 209.415 52.5897 208.22 54.0299L204.822 49.3168C206.554 47.2196 208.564 45.6381 210.741 44.6286ZM204.361 49.8922C204.475 49.7442 204.589 49.5995 204.705 49.4565L208.103 54.1696C207.002 55.5283 206.095 57.1498 205.44 58.9542L200.924 56.2451C201.765 53.9135 202.919 51.7664 204.361 49.8922ZM200.857 56.433L205.372 59.1421C204.73 60.9748 204.347 62.9904 204.284 65.1108L199.323 64.9013C199.406 61.936 199.931 59.0689 200.857 56.433ZM199.312 65.7345C199.312 65.5266 199.314 65.3187 199.318 65.1108L204.278 65.3204C204.275 65.4584 204.274 65.5964 204.274 65.7345C204.274 67.6337 204.531 69.4581 205.002 71.1494L200.337 73.3812C199.664 70.9615 199.312 68.3837 199.312 65.7345ZM200.393 73.5758L205.06 71.3423C205.624 73.2897 206.475 75.0576 207.543 76.5593L203.917 80.9764C202.361 78.8011 201.172 76.2916 200.393 73.5758ZM204.361 81.5751C204.247 81.4271 204.136 81.2791 204.026 81.1277L207.652 76.7123C208.44 77.79 209.342 78.7246 210.333 79.4846L207.96 85.169C206.66 84.1944 205.45 82.9904 204.361 81.5751ZM233.674 106.484H199.426L208.009 85.9207C208.572 86.3248 209.149 86.6857 209.742 87.0066L209.136 88.9225C209 88.8659 208.852 88.8343 208.701 88.8343C207.907 88.8343 207.263 89.6709 207.263 90.7036C207.263 91.7364 207.907 92.5729 208.701 92.5729C209.496 92.5729 210.14 91.7364 210.14 90.7036C210.14 89.9419 209.789 89.2884 209.286 88.9957L209.89 87.0848C211.78 88.081 213.806 88.6464 215.894 88.7445L215.845 90.7036C215.066 90.7269 214.44 91.5534 214.44 92.5712C214.44 93.604 215.084 94.4405 215.879 94.4405C216.673 94.4405 217.317 93.604 217.317 92.5712C217.317 91.595 216.74 90.7934 216.005 90.7103L216.054 88.7512C216.219 88.7578 216.384 88.7595 216.549 88.7595C218.561 88.7595 220.52 88.3271 222.366 87.4956L222.883 89.4014C222.394 89.6991 222.055 90.3444 222.055 91.0944C222.055 92.1272 222.699 92.9637 223.493 92.9637C224.288 92.9637 224.932 92.1272 224.932 91.0944C224.932 90.0617 224.288 89.2252 223.493 89.2252C223.332 89.2252 223.177 89.2601 223.033 89.3233L222.518 87.4274C223.405 87.0166 224.265 86.5127 225.09 85.9207L233.674 106.484ZM225.139 85.1673L222.767 79.483C223.527 78.8992 224.236 78.2141 224.879 77.4391L228.278 82.1522C227.31 83.3213 226.259 84.3291 225.139 85.1673ZM228.738 81.5751C228.625 81.7231 228.511 81.8678 228.394 82.0108L224.997 77.2977C226.097 75.939 227.005 74.3175 227.66 72.5131L232.175 75.2222C231.335 77.5538 230.179 79.7008 228.738 81.5751ZM232.241 75.0343L227.726 72.3252C228.369 70.4925 228.751 68.4768 228.814 66.3564L233.775 66.566C233.692 69.5329 233.167 72.3983 232.241 75.0343Z" fill="#95A9A7"/>
<path d="M259.32 80.4509H240.844V115.633H259.32V80.4509Z" fill="#95A9A7"/>
<path d="M275.092 94.1295H256.616V115.435H275.092V94.1295Z" fill="#95A9A7"/>
<path d="M195.331 91.0013H184.967V108.881H195.331V91.0013Z" fill="#95A9A7"/>
<path d="M263.151 46.9918H250.082V115.633H263.151V46.9918Z" fill="#95A9A7"/>
<path d="M284.668 115.633H267.432V75.5515H280.5L284.668 115.633Z" fill="#95A9A7"/>
<path d="M292.215 106.484H277.119V115.635H292.215V106.484Z" fill="#95A9A7"/>
<path d="M260.221 32.653H259.771V51.3058H260.221V32.653Z" fill="#95A9A7"/>
<path d="M261.742 36.6542H261.292V55.3071H261.742V36.6542Z" fill="#95A9A7"/>
<path d="M258.841 39.2303H258.391V57.8831H258.841V39.2303Z" fill="#95A9A7"/>
<path d="M274.275 72.3118H268.107V78.6265H274.275V72.3118Z" fill="#95A9A7"/>
<path d="M273.6 70.0617H268.783V73.6107H273.6V70.0617Z" fill="#95A9A7"/>
<path d="M277.907 74.1628H276.725V76.7123H277.907V74.1628Z" fill="#95A9A7"/>
<path d="M280.018 71.8362H278.327V76.7123H280.018V71.8362Z" fill="#95A9A7"/>
<path d="M258.485 56.8487C258.485 56.561 258.334 56.3265 258.147 56.3265C257.961 56.3265 257.81 56.561 257.81 56.8487C257.81 57.1364 257.961 57.3709 258.147 57.3709C258.334 57.3709 258.485 57.1381 258.485 56.8487Z" fill="#658280"/>
<path d="M295.25 120.324L293.157 102.127H288.876V87.0266H289.405V85.6612H287.327V79.779H287.074V85.6612H285.637V80.8416H285.384V85.6612H276.725V87.0266H277.317V117.665H267.431V103.942H261.801V70.218H262.316V68.5633H261.192V66.4446H259.898V65.6496V63.2265V61.1261H258.336V57.3709H258.149H257.961V61.1261H257.119L256.609 63.2265H253.203V66.4446H244.286V68.5633H243.161V70.218H243.677V92.1587H236.215V113.719L227.936 108.951V88.0244H229.272V86.4877H226.922V82.3151H216.859V86.4877H213.572V82.3151H211.883V86.4877H210.192V82.3151H208.334V86.4877H204.447V88.0244H205.038V117.028H201.264V116.724H200.581V108.46H201.264V107.796H200.581V99.5311H201.264V98.8675H200.581V90.6038H201.264V89.9402H200.581V81.6748H201.264V81.0113H200.581V72.7475H201.264V72.084H200.581V63.5309H201.752V62.8657H202.347V61.0513H191.232V59.0356H191.593V58.4519H185.542V59.0356H185.903V61.0513H183.149V62.8657H183.744V63.5309H184.915V72.084H184.232V72.7475H184.915V81.0113H184.232V81.6748H184.915V89.9402H184.232V90.6038H184.915V98.8675H184.232V99.5311H184.915V107.796H184.232V108.46H184.915V116.724H184.232V117.387H184.915V124.141H181.121V98.0426H165.856V117.028H163.377V57.8831H161.543V59.4048L158.16 60.4808V59.493H156.326V61.0646L152.943 62.1406V61.0064H151.11V62.7226L147.725 63.7986V62.8623H145.891V64.3807L142.508 65.4567V64.6518H140.675V122.732H138.095V91.7679H128.54V110.81H118.745V94.5718H117.538V89.2384H118.255V88.7029H115.084V87.0266H114.746V88.7029H113.733V80.0966H113.479V88.7029H112.159V89.2384H112.936V94.5718H106.471V106.958H100.178L96.8907 122.732H90.2957V71.2275H81.5638V69.3832H82.059V68.7362H75.446V69.3832H75.9656V71.2275V74.1961V109.47H71.8491V96.1418H73.3117V94.9361H62.9521V86.8835H60.9764V85.2288H56.5644V86.8835H52.9751V115.633H41.1991V94.3107H31.2835V111.153H22.6782V121.927H16.4748V108.382H8.31482V119.932H0.927734V139.576H8.31482H10.8113H14.8906H16.4748H22.6782H31.2835H34.1754H35.7237H41.1991H52.9751H56.5644H60.9764H62.9521H70.6808H71.8491H75.9656H82.8702H86.2727H90.2957H106.471H110.206H116.512H118.745H128.708H131.385H140.675H141.592H142.508H145.891H147.725H151.11H152.641H152.943H156.326H158.16H161.069H161.543H162.461H163.377H165.856H178.474H180.275H181.121H184.915H191.593H197.707H200.581H205.038H216.108H227.813H227.936H236.215H240.844H243.677H245.465H259.32H261.801H264.767H267.431H277.317H284.667H286.172H288.876H305.323V120.324H295.25Z" fill="#658280"/>
<g opacity="0.52">
<path opacity="0.52" d="M54.7589 88.9707H54.0039V89.9519H54.7589V88.9707Z" fill="white"/>
<path opacity="0.52" d="M56.2764 88.9707H55.5215V89.9519H56.2764V88.9707Z" fill="white"/>
<path opacity="0.52" d="M54.7589 91.2773H54.0039V92.2586H54.7589V91.2773Z" fill="white"/>
<path opacity="0.52" d="M56.2764 91.2773H55.5215V92.2586H56.2764V91.2773Z" fill="white"/>
<path opacity="0.52" d="M54.7589 93.5059H54.0039V94.4871H54.7589V93.5059Z" fill="white"/>
<path opacity="0.52" d="M57.963 88.9707H57.208V89.9519H57.963V88.9707Z" fill="white"/>
</g>
<path opacity="0.5" d="M109.791 59.493H109.275V63.1983H109.791V59.493Z" fill="white"/>
<path opacity="0.5" d="M111.565 59.493H111.05V63.1983H111.565V59.493Z" fill="white"/>
<path opacity="0.5" d="M113.341 59.493H112.825V63.1983H113.341V59.493Z" fill="white"/>
<path opacity="0.5" d="M115.116 59.493H114.601V63.1983H115.116V59.493Z" fill="white"/>
<path opacity="0.5" d="M116.891 59.493H116.375V63.1983H116.891V59.493Z" fill="white"/>
<path opacity="0.5" d="M118.666 59.493H118.15V63.1983H118.666V59.493Z" fill="white"/>
<path opacity="0.5" d="M120.441 59.493H119.926V63.1983H120.441V59.493Z" fill="white"/>
<path opacity="0.5" d="M122.217 59.493H121.701V63.1983H122.217V59.493Z" fill="white"/>
<path opacity="0.5" d="M123.991 59.493H123.476V63.1983H123.991V59.493Z" fill="white"/>
<path opacity="0.5" d="M125.767 59.493H125.251V63.1983H125.767V59.493Z" fill="white"/>
<path opacity="0.5" d="M127.541 59.493H127.025V63.1983H127.541V59.493Z" fill="white"/>
<path opacity="0.5" d="M109.791 64.6518H109.275V68.3571H109.791V64.6518Z" fill="white"/>
<path opacity="0.5" d="M111.565 64.6518H111.05V68.3571H111.565V64.6518Z" fill="white"/>
<path opacity="0.5" d="M113.341 64.6518H112.825V68.3571H113.341V64.6518Z" fill="white"/>
<path opacity="0.5" d="M115.116 64.6518H114.601V68.3571H115.116V64.6518Z" fill="white"/>
<path opacity="0.5" d="M116.891 64.6518H116.375V68.3571H116.891V64.6518Z" fill="white"/>
<path opacity="0.5" d="M118.666 64.6518H118.15V68.3571H118.666V64.6518Z" fill="white"/>
<path opacity="0.5" d="M120.441 64.6518H119.926V68.3571H120.441V64.6518Z" fill="white"/>
<path opacity="0.5" d="M122.217 64.6518H121.701V68.3571H122.217V64.6518Z" fill="white"/>
<path opacity="0.5" d="M123.991 64.6518H123.476V68.3571H123.991V64.6518Z" fill="white"/>
<path opacity="0.5" d="M125.767 64.6518H125.251V68.3571H125.767V64.6518Z" fill="white"/>
<path opacity="0.5" d="M127.541 64.6518H127.025V68.3571H127.541V64.6518Z" fill="white"/>
<path opacity="0.5" d="M109.791 69.8106H109.275V73.5159H109.791V69.8106Z" fill="white"/>
<path opacity="0.5" d="M111.565 69.8106H111.05V73.5159H111.565V69.8106Z" fill="white"/>
<path opacity="0.5" d="M113.341 69.8106H112.825V73.5159H113.341V69.8106Z" fill="white"/>
<path opacity="0.5" d="M115.116 69.8106H114.601V73.5159H115.116V69.8106Z" fill="white"/>
<path opacity="0.5" d="M116.891 69.8106H116.375V73.5159H116.891V69.8106Z" fill="white"/>
<path opacity="0.5" d="M118.666 69.8106H118.15V73.5159H118.666V69.8106Z" fill="white"/>
<path opacity="0.5" d="M120.441 69.8106H119.926V73.5159H120.441V69.8106Z" fill="white"/>
<path opacity="0.5" d="M122.217 69.8106H121.701V73.5159H122.217V69.8106Z" fill="white"/>
<path opacity="0.5" d="M123.991 69.8106H123.476V73.5159H123.991V69.8106Z" fill="white"/>
<path opacity="0.5" d="M125.767 69.8106H125.251V73.5159H125.767V69.8106Z" fill="white"/>
<path opacity="0.5" d="M127.541 69.8106H127.025V73.5159H127.541V69.8106Z" fill="white"/>
<path opacity="0.5" d="M115.116 74.9677H114.601V78.673H115.116V74.9677Z" fill="white"/>
<path opacity="0.5" d="M116.891 74.9677H116.375V78.673H116.891V74.9677Z" fill="white"/>
<path opacity="0.5" d="M118.666 74.9677H118.15V78.673H118.666V74.9677Z" fill="white"/>
<path opacity="0.5" d="M120.441 74.9677H119.926V78.673H120.441V74.9677Z" fill="white"/>
<path opacity="0.5" d="M122.217 74.9677H121.701V78.673H122.217V74.9677Z" fill="white"/>
<path opacity="0.5" d="M123.991 74.9677H123.476V78.673H123.991V74.9677Z" fill="white"/>
<path opacity="0.5" d="M125.767 74.9677H125.251V78.673H125.767V74.9677Z" fill="white"/>
<path opacity="0.5" d="M127.541 74.9677H127.025V78.673H127.541V74.9677Z" fill="white"/>
<path opacity="0.5" d="M116.891 80.4126H116.375V84.1179H116.891V80.4126Z" fill="white"/>
<path opacity="0.5" d="M118.666 80.4126H118.15V84.1179H118.666V80.4126Z" fill="white"/>
<path opacity="0.5" d="M120.441 80.4126H119.926V84.1179H120.441V80.4126Z" fill="white"/>
<path opacity="0.5" d="M122.217 80.4126H121.701V84.1179H122.217V80.4126Z" fill="white"/>
<path opacity="0.5" d="M123.991 80.4126H123.476V84.1179H123.991V80.4126Z" fill="white"/>
<path opacity="0.5" d="M125.767 80.4126H125.251V84.1179H125.767V80.4126Z" fill="white"/>
<path opacity="0.5" d="M127.541 80.4126H127.025V84.1179H127.541V80.4126Z" fill="white"/>
<path opacity="0.33" d="M144.809 68.6896H143.592V72.7009H144.809V68.6896Z" fill="white"/>
<path opacity="0.33" d="M144.809 76.3614H143.592V80.3727H144.809V76.3614Z" fill="white"/>
<path opacity="0.33" d="M144.809 84.0347H143.592V88.046H144.809V84.0347Z" fill="white"/>
<path opacity="0.33" d="M144.809 91.7064H143.592V95.7177H144.809V91.7064Z" fill="white"/>
<path opacity="0.33" d="M144.809 98.9407H143.592V102.952H144.809V98.9407Z" fill="white"/>
<path opacity="0.33" d="M144.809 106.612H143.592V110.624H144.809V106.612Z" fill="white"/>
<path opacity="0.33" d="M150.026 68.6896H148.81V72.7009H150.026V68.6896Z" fill="white"/>
<path opacity="0.33" d="M150.026 76.3614H148.81V80.3727H150.026V76.3614Z" fill="white"/>
<path opacity="0.33" d="M150.026 84.0347H148.81V88.046H150.026V84.0347Z" fill="white"/>
<path opacity="0.33" d="M150.026 91.7064H148.81V95.7177H150.026V91.7064Z" fill="white"/>
<path opacity="0.33" d="M150.026 98.9407H148.81V102.952H150.026V98.9407Z" fill="white"/>
<path opacity="0.33" d="M150.026 106.612H148.81V110.624H150.026V106.612Z" fill="white"/>
<path opacity="0.33" d="M155.243 68.6896H154.026V72.7009H155.243V68.6896Z" fill="white"/>
<path opacity="0.33" d="M155.243 76.3614H154.026V80.3727H155.243V76.3614Z" fill="white"/>
<path opacity="0.33" d="M155.243 84.0347H154.026V88.046H155.243V84.0347Z" fill="white"/>
<path opacity="0.33" d="M155.243 91.7064H154.026V95.7177H155.243V91.7064Z" fill="white"/>
<path opacity="0.33" d="M155.243 98.9407H154.026V102.952H155.243V98.9407Z" fill="white"/>
<path opacity="0.33" d="M155.243 106.612H154.026V110.624H155.243V106.612Z" fill="white"/>
<path opacity="0.33" d="M160.461 68.6896H159.244V72.7009H160.461V68.6896Z" fill="white"/>
<path opacity="0.33" d="M160.461 76.3614H159.244V80.3727H160.461V76.3614Z" fill="white"/>
<path opacity="0.33" d="M160.461 84.0347H159.244V88.046H160.461V84.0347Z" fill="white"/>
<path opacity="0.33" d="M160.461 91.7064H159.244V95.7177H160.461V91.7064Z" fill="white"/>
<path opacity="0.33" d="M160.461 98.9407H159.244V102.952H160.461V98.9407Z" fill="white"/>
<path opacity="0.33" d="M160.461 106.612H159.244V110.624H160.461V106.612Z" fill="white"/>
<path opacity="0.5" d="M125.003 12.7511H123.991V16.2618H125.003V12.7511Z" fill="white"/>
<path opacity="0.5" d="M127.501 12.7511H126.489V16.2618H127.501V12.7511Z" fill="white"/>
<path opacity="0.5" d="M129.998 12.7511H128.986V16.2618H129.998V12.7511Z" fill="white"/>
<path opacity="0.5" d="M132.498 12.7511H131.485V16.2618H132.498V12.7511Z" fill="white"/>
<path opacity="0.5" d="M125.003 18.5967H123.991V22.1075H125.003V18.5967Z" fill="white"/>
<path opacity="0.5" d="M127.501 18.5967H126.489V22.1075H127.501V18.5967Z" fill="white"/>
<path opacity="0.5" d="M129.998 18.5967H128.986V22.1075H129.998V18.5967Z" fill="white"/>
<path opacity="0.5" d="M132.498 18.5967H131.485V22.1075H132.498V18.5967Z" fill="white"/>
<path opacity="0.5" d="M125.003 24.444H123.991V27.9547H125.003V24.444Z" fill="white"/>
<path opacity="0.5" d="M127.501 24.444H126.489V27.9547H127.501V24.444Z" fill="white"/>
<path opacity="0.5" d="M135.331 12.7511H134.318V16.2618H135.331V12.7511Z" fill="white"/>
<path opacity="0.4" d="M57.2081 48.3156H56.5645V51.5336H57.2081V48.3156Z" fill="white"/>
<path opacity="0.4" d="M59.4806 48.3156H58.8369V51.5336H59.4806V48.3156Z" fill="white"/>
<path opacity="0.4" d="M62.1388 48.3156H61.4951V51.5336H62.1388V48.3156Z" fill="white"/>
<path opacity="0.4" d="M64.4093 48.3156H63.7656V51.5336H64.4093V48.3156Z" fill="white"/>
<path opacity="0.4" d="M52.1602 48.3156H51.5166V51.5336H52.1602V48.3156Z" fill="white"/>
<path opacity="0.4" d="M54.4327 48.3156H53.7891V51.5336H54.4327V48.3156Z" fill="white"/>
<path opacity="0.4" d="M57.2081 53.9034H56.5645V57.1215H57.2081V53.9034Z" fill="white"/>
<path opacity="0.4" d="M59.4806 53.9034H58.8369V57.1215H59.4806V53.9034Z" fill="white"/>
<path opacity="0.4" d="M62.1388 53.9034H61.4951V57.1215H62.1388V53.9034Z" fill="white"/>
<path opacity="0.4" d="M64.4093 53.9034H63.7656V57.1215H64.4093V53.9034Z" fill="white"/>
<path opacity="0.4" d="M52.1602 53.9034H51.5166V57.1215H52.1602V53.9034Z" fill="white"/>
<path opacity="0.4" d="M54.4327 53.9034H53.7891V57.1215H54.4327V53.9034Z" fill="white"/>
<path opacity="0.4" d="M57.2081 59.4913H56.5645V62.7094H57.2081V59.4913Z" fill="white"/>
<path opacity="0.4" d="M59.4806 59.4913H58.8369V62.7094H59.4806V59.4913Z" fill="white"/>
<path opacity="0.4" d="M62.1388 59.4913H61.4951V62.7094H62.1388V59.4913Z" fill="white"/>
<path opacity="0.4" d="M64.4093 59.4913H63.7656V62.7094H64.4093V59.4913Z" fill="white"/>
<path opacity="0.4" d="M52.1602 59.4913H51.5166V62.7094H52.1602V59.4913Z" fill="white"/>
<path opacity="0.4" d="M54.4327 59.4913H53.7891V62.7094H54.4327V59.4913Z" fill="white"/>
<path opacity="0.5" d="M177.723 72.9771H176.725V77.9679H177.723V72.9771Z" fill="white"/>
<path opacity="0.5" d="M180.775 72.9771H179.776V77.9679H180.775V72.9771Z" fill="white"/>
<path opacity="0.5" d="M183.648 72.9771H182.65V77.9679H183.648V72.9771Z" fill="white"/>
<path opacity="0.33" d="M246.223 74.0148H245.466V76.8221H246.223V74.0148Z" fill="white"/>
<path opacity="0.33" d="M248.596 74.0148H247.839V76.8221H248.596V74.0148Z" fill="white"/>
<path opacity="0.33" d="M246.223 74.0148H245.466V76.8221H246.223V74.0148Z" fill="white"/>
<path opacity="0.33" d="M248.596 74.0148H247.839V76.8221H248.596V74.0148Z" fill="white"/>
<path opacity="0.33" d="M250.84 74.0148H250.082V76.8221H250.84V74.0148Z" fill="white"/>
<path opacity="0.33" d="M253.214 74.0148H252.456V76.8221H253.214V74.0148Z" fill="white"/>
<path opacity="0.33" d="M246.223 79.0472H245.466V81.8545H246.223V79.0472Z" fill="white"/>
<path opacity="0.33" d="M248.596 79.0472H247.839V81.8545H248.596V79.0472Z" fill="white"/>
<path opacity="0.33" d="M246.223 79.0472H245.466V81.8545H246.223V79.0472Z" fill="white"/>
<path opacity="0.33" d="M248.596 79.0472H247.839V81.8545H248.596V79.0472Z" fill="white"/>
<path opacity="0.33" d="M250.84 79.0472H250.082V81.8545H250.84V79.0472Z" fill="white"/>
<path opacity="0.33" d="M253.214 79.0472H252.456V81.8545H253.214V79.0472Z" fill="white"/>
<path opacity="0.33" d="M246.223 84.4039H245.466V87.2112H246.223V84.4039Z" fill="white"/>
<path opacity="0.33" d="M248.596 84.4039H247.839V87.2112H248.596V84.4039Z" fill="white"/>
<path opacity="0.33" d="M246.223 84.4039H245.466V87.2112H246.223V84.4039Z" fill="white"/>
<path opacity="0.33" d="M248.596 84.4039H247.839V87.2112H248.596V84.4039Z" fill="white"/>
<path opacity="0.33" d="M250.84 84.4039H250.082V87.2112H250.84V84.4039Z" fill="white"/>
<path opacity="0.33" d="M253.214 84.4039H252.456V87.2112H253.214V84.4039Z" fill="white"/>
<path opacity="0.33" d="M255.808 74.0148H255.051V76.8221H255.808V74.0148Z" fill="white"/>
<path opacity="0.33" d="M255.808 79.0472H255.051V81.8545H255.808V79.0472Z" fill="white"/>
<path opacity="0.33" d="M258.182 74.0148H257.425V76.8221H258.182V74.0148Z" fill="white"/>
<path opacity="0.33" d="M187.139 65.6862H186.325V70.0617H187.139V65.6862Z" fill="white"/>
<path opacity="0.33" d="M191.187 65.6862H190.373V70.0617H191.187V65.6862Z" fill="white"/>
<path opacity="0.33" d="M195.235 65.6862H194.421V70.0617H195.235V65.6862Z" fill="white"/>
<path opacity="0.33" d="M199.282 65.6862H198.468V70.0617H199.282V65.6862Z" fill="white"/>
<path opacity="0.33" d="M187.139 74.6917H186.325V79.0672H187.139V74.6917Z" fill="white"/>
<path opacity="0.33" d="M191.187 74.6917H190.373V79.0672H191.187V74.6917Z" fill="white"/>
<path opacity="0.33" d="M195.235 74.6917H194.421V79.0672H195.235V74.6917Z" fill="white"/>
<path opacity="0.33" d="M199.282 74.6917H198.468V79.0672H199.282V74.6917Z" fill="white"/>
<path opacity="0.33" d="M187.139 83.9216H186.325V88.2972H187.139V83.9216Z" fill="white"/>
<path opacity="0.33" d="M191.187 83.9216H190.373V88.2972H191.187V83.9216Z" fill="white"/>
<path opacity="0.33" d="M195.235 83.9216H194.421V88.2972H195.235V83.9216Z" fill="white"/>
<path opacity="0.33" d="M199.282 83.9216H198.468V88.2972H199.282V83.9216Z" fill="white"/>
<path opacity="0.33" d="M187.139 93.1516H186.325V97.5271H187.139V93.1516Z" fill="white"/>
<path opacity="0.33" d="M191.187 93.1516H190.373V97.5271H191.187V93.1516Z" fill="white"/>
<path opacity="0.33" d="M195.235 93.1516H194.421V97.5271H195.235V93.1516Z" fill="white"/>
<path opacity="0.33" d="M199.282 93.1516H198.468V97.5271H199.282V93.1516Z" fill="white"/>
<path opacity="0.33" d="M187.139 101.535H186.325V105.911H187.139V101.535Z" fill="white"/>
<path opacity="0.33" d="M191.187 101.535H190.373V105.911H191.187V101.535Z" fill="white"/>
<path opacity="0.33" d="M195.235 101.535H194.421V105.911H195.235V101.535Z" fill="white"/>
<path opacity="0.33" d="M187.139 110.886H186.325V115.262H187.139V110.886Z" fill="white"/>
<path opacity="0.33" d="M191.187 110.886H190.373V115.262H191.187V110.886Z" fill="white"/>
<path opacity="0.33" d="M195.235 110.886H194.421V115.262H195.235V110.886Z" fill="white"/>
<path opacity="0.33" d="M199.282 101.535H198.468V105.911H199.282V101.535Z" fill="white"/>
<path opacity="0.33" d="M279.172 88.8193H278.34V91.3306H279.172V88.8193Z" fill="white"/>
<path opacity="0.33" d="M279.172 92.8739H278.34V95.3851H279.172V92.8739Z" fill="white"/>
<path opacity="0.33" d="M281.304 88.8193H280.473V91.3306H281.304V88.8193Z" fill="white"/>
</svg>
