<svg width="173" height="139" viewBox="0 0 173 139" fill="none" xmlns="http://www.w3.org/2000/svg">
<rect width="173" height="139" fill="#E3E3E3"/>
<path d="M24.5813 41.6995H11.1494V111.187H24.5813V41.6995Z" fill="#B5C3C2"/>
<path d="M22.3881 36.7186H13.3452V65.9185H22.3881V36.7186Z" fill="#B5C3C2"/>
<path d="M20.3739 33.5571H15.3579V49.7536H20.3739V33.5571Z" fill="#B5C3C2"/>
<path d="M19.5753 41.8807H16.1562V30.843H17.3898H18.6118H19.5753V41.8807Z" fill="#B5C3C2"/>
<path d="M17.6419 37.0744H17.27V26.035H17.4047H17.5367H17.6419V37.0744Z" fill="#B5C3C2"/>
<path d="M18.4631 33.2577H18.0913V22.22H18.2247H18.358H18.4631V33.2577Z" fill="#B5C3C2"/>
<path d="M24.9395 41.5215H10.791V42.2615H24.9395V41.5215Z" fill="#B5C3C2"/>
<path d="M22.717 36.361H13.0151V37.0728H22.717V36.361Z" fill="#B5C3C2"/>
<path d="M20.584 33.2578H14.9922V33.805H20.584V33.2578Z" fill="#B5C3C2"/>
<path opacity="0.29" d="M14.5963 37.9027H14.1753V40.9627H14.5963V37.9027Z" fill="#B5C3C2"/>
<path opacity="0.29" d="M15.7599 37.9027H15.3389V40.9627H15.7599V37.9027Z" fill="#B5C3C2"/>
<path opacity="0.29" d="M16.9229 37.9027H16.502V40.9627H16.9229V37.9027Z" fill="#B5C3C2"/>
<path opacity="0.29" d="M18.086 37.9027H17.665V40.9627H18.086V37.9027Z" fill="#B5C3C2"/>
<path opacity="0.29" d="M19.2491 37.9027H18.8281V40.9627H19.2491V37.9027Z" fill="#B5C3C2"/>
<path opacity="0.29" d="M20.4122 37.9027H19.9912V40.9627H20.4122V37.9027Z" fill="#B5C3C2"/>
<path opacity="0.29" d="M21.5753 37.9027H21.1543V40.9627H21.5753V37.9027Z" fill="#B5C3C2"/>
<path d="M13.3456 44.4701H12.3296V48.1006H13.3456V44.4701Z" fill="#B5C3C2"/>
<path opacity="0.29" d="M15.3568 44.4701H14.3408V48.1006H15.3568V44.4701Z" fill="#B5C3C2"/>
<path d="M17.368 44.4701H16.3521V48.1006H17.368V44.4701Z" fill="#B5C3C2"/>
<path d="M19.3793 44.4701H18.3633V48.1006H19.3793V44.4701Z" fill="#B5C3C2"/>
<path d="M21.3914 44.4701H20.3755V48.1006H21.3914V44.4701Z" fill="#B5C3C2"/>
<path d="M23.4027 44.4701H22.3867V48.1006H23.4027V44.4701Z" fill="#B5C3C2"/>
<path d="M13.3456 50.1278H12.3296V53.7583H13.3456V50.1278Z" fill="#B5C3C2"/>
<path d="M15.3568 50.1278H14.3408V53.7583H15.3568V50.1278Z" fill="#B5C3C2"/>
<path d="M17.368 50.1278H16.3521V53.7583H17.368V50.1278Z" fill="#B5C3C2"/>
<path opacity="0.29" d="M19.3793 50.1278H18.3633V53.7583H19.3793V50.1278Z" fill="#B5C3C2"/>
<path d="M21.3914 50.1278H20.3755V53.7583H21.3914V50.1278Z" fill="#B5C3C2"/>
<path d="M23.4027 50.1278H22.3867V53.7583H23.4027V50.1278Z" fill="#B5C3C2"/>
<path d="M13.3456 55.7872H12.3296V59.4176H13.3456V55.7872Z" fill="#B5C3C2"/>
<path d="M15.3568 55.7872H14.3408V59.4176H15.3568V55.7872Z" fill="#B5C3C2"/>
<path d="M17.368 55.7872H16.3521V59.4176H17.368V55.7872Z" fill="#B5C3C2"/>
<path d="M19.3793 55.7872H18.3633V59.4176H19.3793V55.7872Z" fill="#B5C3C2"/>
<path opacity="0.29" d="M21.3914 55.7872H20.3755V59.4176H21.3914V55.7872Z" fill="#B5C3C2"/>
<path opacity="0.29" d="M23.4027 55.7872H22.3867V59.4176H23.4027V55.7872Z" fill="#B5C3C2"/>
<path opacity="0.29" d="M13.3456 61.4449H12.3296V65.0754H13.3456V61.4449Z" fill="#B5C3C2"/>
<path d="M15.3568 61.4449H14.3408V65.0754H15.3568V61.4449Z" fill="#B5C3C2"/>
<path d="M17.368 61.4449H16.3521V65.0754H17.368V61.4449Z" fill="#B5C3C2"/>
<path d="M19.3793 61.4449H18.3633V65.0754H19.3793V61.4449Z" fill="#B5C3C2"/>
<path d="M21.3914 61.4449H20.3755V65.0754H21.3914V61.4449Z" fill="#B5C3C2"/>
<path d="M23.4027 61.4449H22.3867V65.0754H23.4027V61.4449Z" fill="#B5C3C2"/>
<path d="M13.3456 67.1043H12.3296V70.7348H13.3456V67.1043Z" fill="#B5C3C2"/>
<path opacity="0.29" d="M15.3568 67.1043H14.3408V70.7348H15.3568V67.1043Z" fill="#B5C3C2"/>
<path d="M17.368 67.1043H16.3521V70.7348H17.368V67.1043Z" fill="#B5C3C2"/>
<path opacity="0.29" d="M19.3793 67.1043H18.3633V70.7348H19.3793V67.1043Z" fill="#B5C3C2"/>
<path d="M21.3914 67.1043H20.3755V70.7348H21.3914V67.1043Z" fill="#B5C3C2"/>
<path d="M23.4027 67.1043H22.3867V70.7348H23.4027V67.1043Z" fill="#B5C3C2"/>
<path d="M13.3456 72.762H12.3296V76.3925H13.3456V72.762Z" fill="#B5C3C2"/>
<path d="M15.3568 72.762H14.3408V76.3925H15.3568V72.762Z" fill="#B5C3C2"/>
<path d="M17.368 72.762H16.3521V76.3925H17.368V72.762Z" fill="#B5C3C2"/>
<path d="M19.3793 72.762H18.3633V76.3925H19.3793V72.762Z" fill="#B5C3C2"/>
<path d="M21.3914 72.762H20.3755V76.3925H21.3914V72.762Z" fill="#B5C3C2"/>
<path opacity="0.29" d="M23.4027 72.762H22.3867V76.3925H23.4027V72.762Z" fill="#B5C3C2"/>
<path d="M13.3456 78.4214H12.3296V82.0519H13.3456V78.4214Z" fill="#B5C3C2"/>
<path opacity="0.29" d="M15.3568 78.4214H14.3408V82.0519H15.3568V78.4214Z" fill="#B5C3C2"/>
<path opacity="0.29" d="M17.368 78.4214H16.3521V82.0519H17.368V78.4214Z" fill="#B5C3C2"/>
<path d="M19.3793 78.4214H18.3633V82.0519H19.3793V78.4214Z" fill="#B5C3C2"/>
<path d="M21.3914 78.4214H20.3755V82.0519H21.3914V78.4214Z" fill="#B5C3C2"/>
<path d="M23.4027 78.4214H22.3867V82.0519H23.4027V78.4214Z" fill="#B5C3C2"/>
<path d="M13.3456 84.0792H12.3296V87.7096H13.3456V84.0792Z" fill="#B5C3C2"/>
<path d="M15.3568 84.0792H14.3408V87.7096H15.3568V84.0792Z" fill="#B5C3C2"/>
<path d="M17.368 84.0792H16.3521V87.7096H17.368V84.0792Z" fill="#B5C3C2"/>
<path d="M19.3793 84.0792H18.3633V87.7096H19.3793V84.0792Z" fill="#B5C3C2"/>
<path opacity="0.29" d="M21.3914 84.0792H20.3755V87.7096H21.3914V84.0792Z" fill="#B5C3C2"/>
<path d="M23.4027 84.0792H22.3867V87.7096H23.4027V84.0792Z" fill="#B5C3C2"/>
<path d="M13.3456 89.7386H12.3296V93.369H13.3456V89.7386Z" fill="#B5C3C2"/>
<path opacity="0.29" d="M15.3568 89.7386H14.3408V93.369H15.3568V89.7386Z" fill="#B5C3C2"/>
<path d="M17.368 89.7386H16.3521V93.369H17.368V89.7386Z" fill="#B5C3C2"/>
<path d="M19.3793 89.7386H18.3633V93.369H19.3793V89.7386Z" fill="#B5C3C2"/>
<path d="M21.3914 89.7386H20.3755V93.369H21.3914V89.7386Z" fill="#B5C3C2"/>
<path d="M23.4027 89.7386H22.3867V93.369H23.4027V89.7386Z" fill="#B5C3C2"/>
<path d="M13.3456 95.3962H12.3296V99.0267H13.3456V95.3962Z" fill="#B5C3C2"/>
<path d="M15.3568 95.3962H14.3408V99.0267H15.3568V95.3962Z" fill="#B5C3C2"/>
<path d="M17.368 95.3962H16.3521V99.0267H17.368V95.3962Z" fill="#B5C3C2"/>
<path opacity="0.29" d="M19.3793 95.3962H18.3633V99.0267H19.3793V95.3962Z" fill="#B5C3C2"/>
<path d="M21.3914 95.3962H20.3755V99.0267H21.3914V95.3962Z" fill="#B5C3C2"/>
<path opacity="0.29" d="M23.4027 95.3962H22.3867V99.0267H23.4027V95.3962Z" fill="#B5C3C2"/>
<path opacity="0.29" d="M13.3456 101.054H12.3296V104.684H13.3456V101.054Z" fill="#B5C3C2"/>
<path d="M15.3568 101.054H14.3408V104.684H15.3568V101.054Z" fill="#B5C3C2"/>
<path opacity="0.29" d="M17.368 101.054H16.3521V104.684H17.368V101.054Z" fill="#B5C3C2"/>
<path d="M19.3793 101.054H18.3633V104.684H19.3793V101.054Z" fill="#B5C3C2"/>
<path d="M21.3914 101.054H20.3755V104.684H21.3914V101.054Z" fill="#B5C3C2"/>
<path d="M23.4027 101.054H22.3867V104.684H23.4027V101.054Z" fill="#B5C3C2"/>
<path d="M172.538 107.335H148.903L145.953 21.2705L172.538 28.4433V107.335Z" fill="#B5C3C2"/>
<path d="M69.4198 58.1854V29.4112H65.7128V21.7029H64.3884V10.3991H57.0922V2.09213H56.4435V10.3991H55.0141V0H54.3641V10.3991H49.7525V29.4112H47.3699V58.1854H45.3276V110.595H70.8555V58.1854H69.4198Z" fill="#B5C3C2"/>
<path d="M108.193 112.86H95.688L100.561 80.314H108.193V112.86Z" fill="#95A9A7"/>
<path d="M228.34 114.127H-68.1699V139.361H228.34V114.127Z" fill="#95A9A7"/>
<path d="M97.9454 52.6341V38.2121H93.9301V32.7223H91.7816V28.1107H91.028V20.2028H90.8335V28.1107H90.0798V32.7223H87.9313V38.2121H83.9467V52.6341H83.1188V78.8173H76.9409V108.666H83.1188H89.2967H98.7426V52.6341H97.9454Z" fill="#95A9A7"/>
<path d="M121.022 69.2015H101.586V69.6605H102.466V112.371H120.143V69.6605H121.022V69.2015Z" fill="#95A9A7"/>
<path d="M32.397 79.8401H15.166V115.42H32.397V79.8401Z" fill="#95A9A7"/>
<path d="M12.5709 98.0688H-17.0645V115.42H12.5709V98.0688Z" fill="#95A9A7"/>
<path d="M5.32576 59.3046H-1.17969V101.912H5.32576V59.3046Z" fill="#95A9A7"/>
<path d="M0.594853 47.9393H0.256348V71.1091H0.594853V47.9393Z" fill="#95A9A7"/>
<path d="M1.69444 49.6955H1.35596V72.8652H1.69444V49.6955Z" fill="#95A9A7"/>
<path d="M3.29973 56.6687H-0.677246V62.3796H3.29973V56.6687Z" fill="#95A9A7"/>
<path d="M22.7315 86.2079H11.4097V115.418H22.7315V86.2079Z" fill="#95A9A7"/>
<path d="M56.4432 55.2966H35.1904V115.418H56.4432V55.2966Z" fill="#95A9A7"/>
<path d="M54.355 53.2311H37.2788V63.2444H54.355V53.2311Z" fill="#95A9A7"/>
<path d="M58.0916 56.5555H33.5439V57.259H58.0916V56.5555Z" fill="#95A9A7"/>
<path d="M41.3544 85.0555H31.3403V115.418H41.3544V85.0555Z" fill="#95A9A7"/>
<path d="M174.001 101.912H54.3564V115.42H174.001V101.912Z" fill="#95A9A7"/>
<path d="M164.446 64.5233C163.693 64.5233 163.076 65.2767 163.014 66.2346L161.33 66.1631C161.336 65.9486 161.337 65.734 161.337 65.5195C161.337 62.7954 160.975 60.1445 160.281 57.6566L161.687 56.983C161.909 57.6466 162.416 58.1089 163.007 58.1089C163.801 58.1089 164.445 57.2724 164.445 56.2396C164.445 55.2069 163.801 54.3704 163.007 54.3704C162.212 54.3704 161.568 55.2069 161.568 56.2396C161.568 56.4309 161.59 56.6138 161.631 56.7868L160.225 57.4603C159.424 54.6664 158.202 52.0853 156.601 49.8485L157.702 48.5081C157.96 48.8291 158.309 49.0253 158.694 49.0253C159.489 49.0253 160.133 48.1888 160.133 47.156C160.133 46.1233 159.489 45.2867 158.694 45.2867C157.9 45.2867 157.256 46.1233 157.256 47.156C157.256 47.6134 157.383 48.0308 157.591 48.3551L156.491 49.6955C156.377 49.5392 156.262 49.3862 156.146 49.2332C154.478 47.0662 152.538 45.3849 150.426 44.244L151.031 42.3282C151.168 42.3847 151.315 42.4163 151.466 42.4163C152.261 42.4163 152.904 41.5798 152.904 40.547C152.904 39.5143 152.261 38.6778 151.466 38.6778C150.671 38.6778 150.028 39.5143 150.028 40.547C150.028 41.3087 150.378 41.9623 150.881 42.255L150.277 44.1658C148.387 43.1697 146.362 42.6042 144.273 42.5061L144.339 39.8868C144.354 39.8868 144.369 39.8885 144.385 39.8885C145.179 39.8885 145.823 39.0519 145.823 38.0192C145.823 36.9864 145.179 36.1499 144.385 36.1499C143.59 36.1499 142.947 36.9864 142.947 38.0192C142.947 38.9605 143.483 39.7388 144.179 39.8685L144.114 42.4995C143.948 42.4928 143.783 42.4911 143.618 42.4911C141.607 42.4911 139.648 42.9235 137.801 43.7551L137.222 41.618C137.745 41.3386 138.112 40.6701 138.112 39.8901C138.112 38.8574 137.469 38.0208 136.674 38.0208C135.879 38.0208 135.236 38.8574 135.236 39.8901C135.236 40.9229 135.879 41.7594 136.674 41.7594C136.811 41.7594 136.944 41.7345 137.069 41.6879L137.649 43.8266C135.411 44.8643 133.343 46.4908 131.561 48.6461L130.51 47.1893C130.746 46.8567 130.889 46.4126 130.889 45.9254C130.889 44.8926 130.245 44.0561 129.451 44.0561C128.656 44.0561 128.012 44.8926 128.012 45.9254C128.012 46.9581 128.656 47.7946 129.451 47.7946C129.813 47.7946 130.143 47.62 130.395 47.334L131.444 48.7891C131.324 48.9372 131.206 49.0868 131.089 49.2382C129.606 51.1657 128.419 53.3725 127.556 55.7707L126.221 54.9691C126.27 54.7828 126.297 54.5816 126.297 54.3737C126.297 53.3409 125.653 52.5044 124.858 52.5044C124.064 52.5044 123.42 53.3409 123.42 54.3737C123.42 55.4064 124.064 56.243 124.858 56.243C125.435 56.243 125.933 55.8006 126.162 55.162L127.489 55.9586C126.536 58.6694 125.996 61.6163 125.911 64.668L124.198 64.5948C124.176 63.587 123.542 62.7788 122.761 62.7788C121.966 62.7788 121.323 63.6153 121.323 64.6481C121.323 65.6808 121.966 66.5173 122.761 66.5173C123.515 66.5173 124.133 65.764 124.193 64.8044L125.906 64.8776C125.901 65.0921 125.9 65.3066 125.9 65.5212C125.9 68.2453 126.262 70.8962 126.955 73.3841L125.549 74.0576C125.328 73.3957 124.821 72.9318 124.23 72.9318C123.435 72.9318 122.792 73.7683 122.792 74.801C122.792 75.8338 123.435 76.6703 124.23 76.6703C125.025 76.6703 125.668 75.8338 125.668 74.801C125.668 74.6098 125.646 74.4268 125.606 74.2539L127.012 73.5803C127.813 76.3743 129.035 78.9553 130.636 81.1922L129.535 82.5326C129.277 82.2116 128.927 82.0154 128.542 82.0154C127.748 82.0154 127.104 82.8519 127.104 83.8846C127.104 84.9174 127.748 85.7539 128.542 85.7539C129.337 85.7539 129.98 84.9174 129.98 83.8846C129.98 83.4273 129.854 83.0099 129.645 82.6856L130.746 81.3452C130.86 81.5015 130.975 81.6545 131.091 81.8075C132.213 83.266 133.461 84.505 134.801 85.5078L126.134 106.269H124.578V106.863H123.817V108.042H163.428V106.863H162.665V106.269H161.109L152.44 85.5011C153.595 84.6363 154.68 83.5969 155.677 82.3929L157.082 84.342C156.78 84.6846 156.59 85.1885 156.59 85.7489C156.59 86.7817 157.233 87.6182 158.028 87.6182C158.822 87.6182 159.466 86.7817 159.466 85.7489C159.466 84.7162 158.822 83.8797 158.028 83.8797C157.723 83.8797 157.442 84.0027 157.209 84.2123L155.794 82.2499C155.914 82.1019 156.032 81.9522 156.149 81.8008C157.632 79.8734 158.819 77.6665 159.682 75.2683L161.247 76.2063C161.219 76.3527 161.204 76.5057 161.204 76.6637C161.204 77.6964 161.847 78.5329 162.642 78.5329C163.437 78.5329 164.08 77.6964 164.08 76.6637C164.08 75.6309 163.437 74.7944 162.642 74.7944C162.027 74.7944 161.501 75.2983 161.296 76.0051L159.75 75.0771C160.703 72.3663 161.243 69.4194 161.328 66.3677L163.012 66.4392C163.032 67.447 163.668 68.2569 164.449 68.2569C165.243 68.2569 165.887 67.4204 165.887 66.3876C165.884 65.3598 165.241 64.5233 164.446 64.5233ZM160.858 65.5195C160.858 65.7274 160.856 65.9353 160.852 66.1431L155.892 65.9336C155.895 65.7956 155.896 65.6575 155.896 65.5195C155.896 63.6203 155.639 61.7959 155.168 60.1046L159.833 57.8728C160.506 60.2908 160.858 62.8703 160.858 65.5195ZM155.652 65.9236L144.586 65.4563C144.582 65.3632 144.57 65.2717 144.552 65.1836L154.941 60.2127C155.403 61.8708 155.655 63.6569 155.655 65.5195C155.655 65.6542 155.654 65.7889 155.652 65.9236ZM131.59 65.1137L142.656 65.581C142.66 65.6742 142.671 65.7656 142.689 65.8538L132.3 70.8247C131.838 69.1666 131.586 67.3805 131.586 65.5178C131.586 65.3831 131.588 65.2484 131.59 65.1137ZM144.378 64.7395L152.453 54.9059C153.499 56.3777 154.332 58.1089 154.886 60.0181L144.497 64.989C144.465 64.8992 144.426 64.816 144.378 64.7395ZM144.27 64.5865C144.207 64.5133 144.137 64.4502 144.061 64.4003L148.267 51.0908C149.817 51.9373 151.204 53.1929 152.344 54.7545L144.27 64.5865ZM143.913 64.3204C143.855 64.2972 143.794 64.2805 143.732 64.2705L144.092 49.8901C145.51 49.9616 146.866 50.3524 148.119 51.011L143.913 64.3204ZM143.572 64.2639C143.504 64.2689 143.439 64.2822 143.376 64.3038L139.696 50.7333C140.927 50.1795 142.248 49.8784 143.622 49.8784C143.726 49.8784 143.829 49.8801 143.933 49.8834L143.572 64.2639ZM143.226 64.372C143.151 64.4152 143.083 64.4701 143.021 64.5333L135.455 54.0394C136.627 52.6291 138.014 51.5182 139.545 50.7998L143.226 64.372ZM142.904 64.6763C142.857 64.7445 142.815 64.8194 142.78 64.9008L132.73 58.8706C133.371 57.1028 134.261 55.5145 135.339 54.1824L142.904 64.6763ZM142.712 65.0888C142.687 65.1802 142.669 65.275 142.661 65.3748L131.597 64.9075C131.658 62.8287 132.033 60.853 132.662 59.0585L142.712 65.0888ZM142.744 66.0484C142.77 66.1199 142.802 66.1897 142.837 66.2529L142.771 66.4109L134.789 76.1315C133.742 74.6597 132.909 72.9284 132.355 71.0192L142.744 66.0484ZM142.529 66.9896L137.519 78.9953C136.55 78.2519 135.668 77.3372 134.898 76.2845L142.529 66.9896ZM143.075 66.5556C143.109 66.5855 143.144 66.6138 143.181 66.6371L138.975 79.9465C138.569 79.7253 138.176 79.4759 137.795 79.1998L143.075 66.5556ZM143.329 66.7169C143.387 66.7402 143.448 66.7568 143.51 66.7668L143.15 81.1473C141.732 81.0757 140.376 80.6849 139.123 80.0264L143.329 66.7169ZM143.621 81.1606C143.517 81.1606 143.414 81.1589 143.31 81.1556L143.67 66.7734C143.737 66.7685 143.803 66.7552 143.865 66.7335L147.545 80.3041C146.316 80.8579 144.995 81.1606 143.621 81.1606ZM144.016 66.6653C144.069 66.6337 144.12 66.5972 144.167 66.5556L149.447 79.2015C148.889 79.6039 148.304 79.9515 147.698 80.2359L144.016 66.6653ZM144.904 67.452L151.787 76.9979C151.158 77.7546 150.467 78.4248 149.723 78.9953L144.904 67.452ZM144.604 66.7302L144.405 66.2546C144.426 66.218 144.445 66.1781 144.463 66.1382L154.513 72.1684C153.872 73.9362 152.982 75.5245 151.904 76.8566L144.604 66.7302ZM144.529 65.9502C144.555 65.8588 144.573 65.764 144.581 65.6642L155.645 66.1315C155.584 68.2103 155.209 70.186 154.579 71.9805L144.529 65.9502ZM138.885 80.2359L136.996 86.2146C136.421 85.9036 135.858 85.551 135.31 85.1585L137.682 79.4759C138.07 79.7553 138.472 80.0097 138.885 80.2359ZM139.032 80.3141C140.311 80.9859 141.695 81.3851 143.142 81.4582L142.981 87.9059C140.95 87.8095 138.981 87.259 137.144 86.2911L139.032 80.3141ZM143.302 81.4666C143.408 81.4699 143.515 81.4716 143.621 81.4716C145.022 81.4716 146.369 81.1639 147.626 80.5984L149.279 86.6919C147.484 87.5001 145.577 87.9209 143.622 87.9209C143.462 87.9209 143.302 87.9176 143.142 87.9126L143.302 81.4666ZM147.777 80.5303C148.396 80.2392 148.993 79.8867 149.561 79.4759L151.933 85.1585C151.13 85.7356 150.293 86.2246 149.43 86.6254L147.777 80.5303ZM159.777 57.6765L155.11 59.91C154.546 57.9626 153.695 56.1947 152.627 54.693L156.253 50.2759C157.81 52.4512 158.998 54.9607 159.777 57.6765ZM155.81 49.6772C155.924 49.8252 156.035 49.9732 156.146 50.1246L152.519 54.54C151.355 52.9468 149.94 51.6646 148.358 50.8014L150.247 44.8227C152.302 45.9353 154.189 47.5701 155.81 49.6772ZM150.098 44.7446L148.21 50.7233C146.931 50.0514 145.548 49.6523 144.099 49.5791L144.261 43.1314C146.291 43.2262 148.261 43.7783 150.098 44.7446ZM143.621 43.1165C143.781 43.1165 143.941 43.1198 144.101 43.1248L143.94 49.5708C143.833 49.5675 143.727 49.5658 143.621 49.5658C142.22 49.5658 140.872 49.8735 139.616 50.4389L137.963 44.3455C139.759 43.5372 141.666 43.1165 143.621 43.1165ZM137.813 44.4136L139.466 50.5087C137.904 51.2421 136.487 52.3747 135.292 53.8149L131.893 49.1018C133.626 47.0047 135.636 45.4231 137.813 44.4136ZM131.433 49.6772C131.547 49.5292 131.661 49.3845 131.777 49.2415L135.174 53.9546C134.074 55.3133 133.167 56.9348 132.511 58.7392L127.996 56.0301C128.836 53.6985 129.991 51.5515 131.433 49.6772ZM127.929 56.218L132.444 58.9271C131.801 60.7598 131.419 62.7755 131.356 64.8959L126.395 64.6863C126.478 61.7211 127.003 58.854 127.929 56.218ZM126.384 65.5195C126.384 65.3116 126.386 65.1037 126.39 64.8959L131.35 65.1054C131.347 65.2434 131.346 65.3815 131.346 65.5195C131.346 67.4187 131.603 69.2431 132.074 70.9344L127.408 73.1662C126.735 70.7465 126.384 68.1688 126.384 65.5195ZM127.465 73.3608L132.131 71.1273C132.696 73.0748 133.547 74.8426 134.615 76.3443L130.989 80.7614C129.433 78.5861 128.244 76.0766 127.465 73.3608ZM131.433 81.3601C131.319 81.2121 131.208 81.0641 131.098 80.9128L134.724 76.4973C135.512 77.575 136.414 78.5096 137.405 79.2697L135.032 84.954C133.732 83.9794 132.522 82.7754 131.433 81.3601ZM160.746 106.269H126.497L135.081 85.7057C135.644 86.1098 136.221 86.4707 136.813 86.7917L136.208 88.7075C136.071 88.651 135.924 88.6194 135.773 88.6194C134.979 88.6194 134.335 89.4559 134.335 90.4886C134.335 91.5214 134.979 92.3579 135.773 92.3579C136.568 92.3579 137.211 91.5214 137.211 90.4886C137.211 89.727 136.861 89.0734 136.358 88.7807L136.962 86.8698C138.852 87.866 140.877 88.4314 142.966 88.5296L142.917 90.4886C142.138 90.5119 141.512 91.3385 141.512 92.3563C141.512 93.389 142.156 94.2255 142.95 94.2255C143.745 94.2255 144.389 93.389 144.389 92.3563C144.389 91.3801 143.812 90.5785 143.077 90.4953L143.126 88.5362C143.291 88.5429 143.456 88.5445 143.621 88.5445C145.632 88.5445 147.591 88.1121 149.438 87.2806L149.955 89.1865C149.466 89.4842 149.127 90.1294 149.127 90.8795C149.127 91.9122 149.771 92.7487 150.565 92.7487C151.36 92.7487 152.003 91.9122 152.003 90.8795C152.003 89.8467 151.36 89.0102 150.565 89.0102C150.404 89.0102 150.249 89.0451 150.105 89.1083L149.59 87.2124C150.477 86.8016 151.337 86.2977 152.162 85.7057L160.746 106.269ZM152.211 84.9523L149.838 79.268C150.599 78.6843 151.307 77.9991 151.951 77.2241L155.35 81.9372C154.382 83.1063 153.33 84.1142 152.211 84.9523ZM155.81 81.3601C155.696 81.5081 155.583 81.6528 155.466 81.7958L152.069 77.0827C153.169 75.724 154.076 74.1025 154.732 72.2981L159.247 75.0072C158.407 77.3389 157.251 79.4859 155.81 81.3601ZM159.313 74.8193L154.798 72.1102C155.44 70.2775 155.823 68.2619 155.886 66.1415L160.847 66.351C160.764 69.3179 160.239 72.1834 159.313 74.8193Z" fill="#95A9A7"/>
<path d="M186.392 80.2359H167.916V115.418H186.392V80.2359Z" fill="#95A9A7"/>
<path d="M122.404 90.7863H112.039V108.666H122.404V90.7863Z" fill="#95A9A7"/>
<path d="M222.323 120.109L220.229 101.912H215.948V86.8116H216.478V85.4462H214.4V79.564H214.146V85.4462H212.709V80.6267H212.456V85.4462H203.797V86.8116H204.389V117.45H194.503V103.727H188.873V70.0031H189.389V68.3483H188.264V66.2296H186.97V65.4346V63.0116V60.9111H185.408V57.1559H185.221H185.033V60.9111H184.191L183.682 63.0116H180.275V66.2296H171.358V68.3483H170.233V70.0031H170.749V91.9438H163.288V113.504L155.009 108.736V87.8094H156.344V86.2728H153.994V82.1001H143.931V86.2728H140.644V82.1001H138.955V86.2728H137.264V82.1001H135.406V86.2728H131.519V87.8094H132.11V116.813H128.337V116.509H127.653V108.245H128.337V107.582H127.653V99.3161H128.337V98.6526H127.653V90.3888H128.337V89.7253H127.653V81.4599H128.337V80.7963H127.653V72.5326H128.337V71.869H127.653V63.3159H128.824V62.6507H129.419V60.8363H118.305V58.8207H118.666V58.2369H112.614V58.8207H112.975V60.8363H110.222V62.6507H110.817V63.3159H111.987V71.869H111.304V72.5326H111.987V80.7963H111.304V81.4599H111.987V89.7253H111.304V90.3888H111.987V98.6526H111.304V99.3161H111.987V107.582H111.304V108.245H111.987V116.509H111.304V117.172H111.987V123.926H108.193V97.8277H92.9279V116.813H90.4493V57.6682H88.6156V59.1899L85.2324 60.2659V59.278H83.3988V60.8496L80.0155 61.9256V60.7914H78.1819V62.5077L74.7973 63.5837V62.6474H72.9637V64.1657L69.5804 65.2417V64.4368H67.7468V122.517H65.1671V91.553H55.6124V110.595H45.8171V94.3569H44.6105V89.0235H45.3271V88.488H42.1562V86.8116H41.8184V88.488H40.805V79.8816H40.5516V88.488H39.2311V89.0235H40.0078V94.3569H33.5433V106.743H27.2503L23.963 122.517H17.368V71.0125H8.63604V69.1682H9.13124V68.5213H2.51831V69.1682H3.03783V71.0125V73.9811V109.255H-1.07862V95.9268H0.383957V94.7211H-9.97562V86.6686H-11.9513V85.0138H-16.3633V86.6686H-19.9526V115.418H-31.7287V94.0958H-41.6442V110.938H-50.2495V121.713H-56.453V108.167H-64.6129V119.717H-72V139.361H-64.6129H-62.1164H-58.0371H-56.453H-50.2495H-41.6442H-38.7524H-37.2041H-31.7287H-19.9526H-16.3633H-11.9513H-9.97562H-2.24689H-1.07862H3.03783H9.9425H13.3449H17.368H33.5433H37.2784H43.5843H45.8171H55.78H58.457H67.7468H68.6643H69.5804H72.9637H74.7973H78.1819H79.7135H80.0155H83.3988H85.2324H88.1409H88.6156H89.5331H90.4493H92.9279H105.546H107.348H108.193H111.987H118.666H124.779H127.653H132.11H143.18H154.886H155.009H163.288H167.916H170.749H172.538H186.392H188.873H191.839H194.503H204.389H211.739H213.244H215.948H232.396V120.109H222.323Z" fill="#658280"/>
<path opacity="0.5" d="M36.8629 59.278H36.3472V62.9833H36.8629V59.278Z" fill="white"/>
<path opacity="0.5" d="M38.6378 59.278H38.1221V62.9833H38.6378V59.278Z" fill="white"/>
<path opacity="0.5" d="M40.4131 59.278H39.8975V62.9833H40.4131V59.278Z" fill="white"/>
<path opacity="0.5" d="M42.1885 59.278H41.6729V62.9833H42.1885V59.278Z" fill="white"/>
<path opacity="0.5" d="M43.9634 59.278H43.4478V62.9833H43.9634V59.278Z" fill="white"/>
<path opacity="0.5" d="M45.7378 59.278H45.2222V62.9833H45.7378V59.278Z" fill="white"/>
<path opacity="0.5" d="M47.5142 59.278H46.9985V62.9833H47.5142V59.278Z" fill="white"/>
<path opacity="0.5" d="M49.2891 59.278H48.7734V62.9833H49.2891V59.278Z" fill="white"/>
<path opacity="0.5" d="M51.0635 59.278H50.5479V62.9833H51.0635V59.278Z" fill="white"/>
<path opacity="0.5" d="M52.8384 59.278H52.3228V62.9833H52.8384V59.278Z" fill="white"/>
<path opacity="0.5" d="M54.6133 59.278H54.0977V62.9833H54.6133V59.278Z" fill="white"/>
<path opacity="0.5" d="M36.8629 64.4368H36.3472V68.1421H36.8629V64.4368Z" fill="white"/>
<path opacity="0.5" d="M38.6378 64.4368H38.1221V68.1421H38.6378V64.4368Z" fill="white"/>
<path opacity="0.5" d="M40.4131 64.4368H39.8975V68.1421H40.4131V64.4368Z" fill="white"/>
<path opacity="0.5" d="M42.1885 64.4368H41.6729V68.1421H42.1885V64.4368Z" fill="white"/>
<path opacity="0.5" d="M43.9634 64.4368H43.4478V68.1421H43.9634V64.4368Z" fill="white"/>
<path opacity="0.5" d="M45.7378 64.4368H45.2222V68.1421H45.7378V64.4368Z" fill="white"/>
<path opacity="0.5" d="M47.5142 64.4368H46.9985V68.1421H47.5142V64.4368Z" fill="white"/>
<path opacity="0.5" d="M49.2891 64.4368H48.7734V68.1421H49.2891V64.4368Z" fill="white"/>
<path opacity="0.5" d="M51.0635 64.4368H50.5479V68.1421H51.0635V64.4368Z" fill="white"/>
<path opacity="0.5" d="M52.8384 64.4368H52.3228V68.1421H52.8384V64.4368Z" fill="white"/>
<path opacity="0.5" d="M54.6133 64.4368H54.0977V68.1421H54.6133V64.4368Z" fill="white"/>
<path opacity="0.5" d="M36.8629 69.5956H36.3472V73.301H36.8629V69.5956Z" fill="white"/>
<path opacity="0.5" d="M38.6378 69.5956H38.1221V73.301H38.6378V69.5956Z" fill="white"/>
<path opacity="0.5" d="M40.4131 69.5956H39.8975V73.301H40.4131V69.5956Z" fill="white"/>
<path opacity="0.5" d="M42.1885 69.5956H41.6729V73.301H42.1885V69.5956Z" fill="white"/>
<path opacity="0.5" d="M43.9634 69.5956H43.4478V73.301H43.9634V69.5956Z" fill="white"/>
<path opacity="0.5" d="M45.7378 69.5956H45.2222V73.301H45.7378V69.5956Z" fill="white"/>
<path opacity="0.5" d="M47.5142 69.5956H46.9985V73.301H47.5142V69.5956Z" fill="white"/>
<path opacity="0.5" d="M49.2891 69.5956H48.7734V73.301H49.2891V69.5956Z" fill="white"/>
<path opacity="0.5" d="M51.0635 69.5956H50.5479V73.301H51.0635V69.5956Z" fill="white"/>
<path opacity="0.5" d="M52.8384 69.5956H52.3228V73.301H52.8384V69.5956Z" fill="white"/>
<path opacity="0.5" d="M54.6133 69.5956H54.0977V73.301H54.6133V69.5956Z" fill="white"/>
<path opacity="0.5" d="M42.1885 74.7527H41.6729V78.458H42.1885V74.7527Z" fill="white"/>
<path opacity="0.5" d="M43.9634 74.7527H43.4478V78.458H43.9634V74.7527Z" fill="white"/>
<path opacity="0.5" d="M45.7378 74.7527H45.2222V78.458H45.7378V74.7527Z" fill="white"/>
<path opacity="0.5" d="M47.5142 74.7527H46.9985V78.458H47.5142V74.7527Z" fill="white"/>
<path opacity="0.5" d="M49.2891 74.7527H48.7734V78.458H49.2891V74.7527Z" fill="white"/>
<path opacity="0.5" d="M51.0635 74.7527H50.5479V78.458H51.0635V74.7527Z" fill="white"/>
<path opacity="0.5" d="M52.8384 74.7527H52.3228V78.458H52.8384V74.7527Z" fill="white"/>
<path opacity="0.5" d="M54.6133 74.7527H54.0977V78.458H54.6133V74.7527Z" fill="white"/>
<path opacity="0.5" d="M43.9634 80.1976H43.4478V83.9029H43.9634V80.1976Z" fill="white"/>
<path opacity="0.5" d="M45.7378 80.1976H45.2222V83.9029H45.7378V80.1976Z" fill="white"/>
<path opacity="0.5" d="M47.5142 80.1976H46.9985V83.9029H47.5142V80.1976Z" fill="white"/>
<path opacity="0.5" d="M49.2891 80.1976H48.7734V83.9029H49.2891V80.1976Z" fill="white"/>
<path opacity="0.5" d="M51.0635 80.1976H50.5479V83.9029H51.0635V80.1976Z" fill="white"/>
<path opacity="0.5" d="M52.8384 80.1976H52.3228V83.9029H52.8384V80.1976Z" fill="white"/>
<path opacity="0.5" d="M54.6133 80.1976H54.0977V83.9029H54.6133V80.1976Z" fill="white"/>
<path opacity="0.33" d="M71.8814 68.4747H70.6646V72.486H71.8814V68.4747Z" fill="white"/>
<path opacity="0.33" d="M71.8814 76.1464H70.6646V80.1577H71.8814V76.1464Z" fill="white"/>
<path opacity="0.33" d="M71.8814 83.8198H70.6646V87.8311H71.8814V83.8198Z" fill="white"/>
<path opacity="0.33" d="M71.8814 91.4915H70.6646V95.5028H71.8814V91.4915Z" fill="white"/>
<path opacity="0.33" d="M71.8814 98.7258H70.6646V102.737H71.8814V98.7258Z" fill="white"/>
<path opacity="0.33" d="M71.8814 106.397H70.6646V110.409H71.8814V106.397Z" fill="white"/>
<path opacity="0.33" d="M77.0982 68.4747H75.8813V72.486H77.0982V68.4747Z" fill="white"/>
<path opacity="0.33" d="M77.0982 76.1464H75.8813V80.1577H77.0982V76.1464Z" fill="white"/>
<path opacity="0.33" d="M77.0982 83.8198H75.8813V87.8311H77.0982V83.8198Z" fill="white"/>
<path opacity="0.33" d="M77.0982 91.4915H75.8813V95.5028H77.0982V91.4915Z" fill="white"/>
<path opacity="0.33" d="M77.0982 98.7258H75.8813V102.737H77.0982V98.7258Z" fill="white"/>
<path opacity="0.33" d="M77.0982 106.397H75.8813V110.409H77.0982V106.397Z" fill="white"/>
<path opacity="0.33" d="M82.3156 68.4747H81.0986V72.486H82.3156V68.4747Z" fill="white"/>
<path opacity="0.33" d="M82.3156 76.1464H81.0986V80.1577H82.3156V76.1464Z" fill="white"/>
<path opacity="0.33" d="M82.3156 83.8198H81.0986V87.8311H82.3156V83.8198Z" fill="white"/>
<path opacity="0.33" d="M82.3156 91.4915H81.0986V95.5028H82.3156V91.4915Z" fill="white"/>
<path opacity="0.33" d="M82.3156 98.7258H81.0986V102.737H82.3156V98.7258Z" fill="white"/>
<path opacity="0.33" d="M82.3156 106.397H81.0986V110.409H82.3156V106.397Z" fill="white"/>
<path opacity="0.33" d="M87.5333 68.4747H86.3164V72.486H87.5333V68.4747Z" fill="white"/>
<path opacity="0.33" d="M87.5333 76.1464H86.3164V80.1577H87.5333V76.1464Z" fill="white"/>
<path opacity="0.33" d="M87.5333 83.8198H86.3164V87.8311H87.5333V83.8198Z" fill="white"/>
<path opacity="0.33" d="M87.5333 91.4915H86.3164V95.5028H87.5333V91.4915Z" fill="white"/>
<path opacity="0.33" d="M87.5333 98.7258H86.3164V102.737H87.5333V98.7258Z" fill="white"/>
<path opacity="0.33" d="M87.5333 106.397H86.3164V110.409H87.5333V106.397Z" fill="white"/>
<path opacity="0.5" d="M52.0756 12.5361H51.0635V16.0468H52.0756V12.5361Z" fill="white"/>
<path opacity="0.5" d="M54.5737 12.5361H53.5615V16.0468H54.5737V12.5361Z" fill="white"/>
<path opacity="0.5" d="M57.0712 12.5361H56.0591V16.0468H57.0712V12.5361Z" fill="white"/>
<path opacity="0.5" d="M59.5703 12.5361H58.5581V16.0468H59.5703V12.5361Z" fill="white"/>
<path opacity="0.5" d="M52.0756 18.3818H51.0635V21.8925H52.0756V18.3818Z" fill="white"/>
<path opacity="0.5" d="M54.5737 18.3818H53.5615V21.8925H54.5737V18.3818Z" fill="white"/>
<path opacity="0.5" d="M57.0712 18.3818H56.0591V21.8925H57.0712V18.3818Z" fill="white"/>
<path opacity="0.5" d="M59.5703 18.3818H58.5581V21.8925H59.5703V18.3818Z" fill="white"/>
<path opacity="0.5" d="M52.0756 24.2291H51.0635V27.7398H52.0756V24.2291Z" fill="white"/>
<path opacity="0.5" d="M54.5737 24.2291H53.5615V27.7398H54.5737V24.2291Z" fill="white"/>
<path opacity="0.5" d="M62.4033 12.5361H61.3911V16.0468H62.4033V12.5361Z" fill="white"/>
<path opacity="0.5" d="M104.795 72.7621H103.797V77.7529H104.795V72.7621Z" fill="white"/>
<path opacity="0.5" d="M107.847 72.7621H106.849V77.7529H107.847V72.7621Z" fill="white"/>
<path opacity="0.5" d="M110.721 72.7621H109.723V77.7529H110.721V72.7621Z" fill="white"/>
<path opacity="0.33" d="M173.296 73.7999H172.538V76.6071H173.296V73.7999Z" fill="white"/>
<path opacity="0.33" d="M173.296 73.7999H172.538V76.6071H173.296V73.7999Z" fill="white"/>
<path opacity="0.33" d="M173.296 78.8323H172.538V81.6395H173.296V78.8323Z" fill="white"/>
<path opacity="0.33" d="M173.296 78.8323H172.538V81.6395H173.296V78.8323Z" fill="white"/>
<path opacity="0.33" d="M173.296 84.189H172.538V86.9962H173.296V84.189Z" fill="white"/>
<path opacity="0.33" d="M173.296 84.189H172.538V86.9962H173.296V84.189Z" fill="white"/>
<path opacity="0.33" d="M114.212 65.4713H113.398V69.8468H114.212V65.4713Z" fill="white"/>
<path opacity="0.33" d="M118.259 65.4713H117.445V69.8468H118.259V65.4713Z" fill="white"/>
<path opacity="0.33" d="M122.307 65.4713H121.493V69.8468H122.307V65.4713Z" fill="white"/>
<path opacity="0.33" d="M126.354 65.4713H125.541V69.8468H126.354V65.4713Z" fill="white"/>
<path opacity="0.33" d="M114.212 74.4767H113.398V78.8522H114.212V74.4767Z" fill="white"/>
<path opacity="0.33" d="M118.259 74.4767H117.445V78.8522H118.259V74.4767Z" fill="white"/>
<path opacity="0.33" d="M122.307 74.4767H121.493V78.8522H122.307V74.4767Z" fill="white"/>
<path opacity="0.33" d="M126.354 74.4767H125.541V78.8522H126.354V74.4767Z" fill="white"/>
<path opacity="0.33" d="M114.212 83.7067H113.398V88.0822H114.212V83.7067Z" fill="white"/>
<path opacity="0.33" d="M118.259 83.7067H117.445V88.0822H118.259V83.7067Z" fill="white"/>
<path opacity="0.33" d="M122.307 83.7067H121.493V88.0822H122.307V83.7067Z" fill="white"/>
<path opacity="0.33" d="M126.354 83.7067H125.541V88.0822H126.354V83.7067Z" fill="white"/>
<path opacity="0.33" d="M114.212 92.9366H113.398V97.3121H114.212V92.9366Z" fill="white"/>
<path opacity="0.33" d="M118.259 92.9366H117.445V97.3121H118.259V92.9366Z" fill="white"/>
<path opacity="0.33" d="M122.307 92.9366H121.493V97.3121H122.307V92.9366Z" fill="white"/>
<path opacity="0.33" d="M126.354 92.9366H125.541V97.3121H126.354V92.9366Z" fill="white"/>
<path opacity="0.33" d="M114.212 101.32H113.398V105.696H114.212V101.32Z" fill="white"/>
<path opacity="0.33" d="M118.259 101.32H117.445V105.696H118.259V101.32Z" fill="white"/>
<path opacity="0.33" d="M122.307 101.32H121.493V105.696H122.307V101.32Z" fill="white"/>
<path opacity="0.33" d="M114.212 110.672H113.398V115.047H114.212V110.672Z" fill="white"/>
<path opacity="0.33" d="M118.259 110.672H117.445V115.047H118.259V110.672Z" fill="white"/>
<path opacity="0.33" d="M122.307 110.672H121.493V115.047H122.307V110.672Z" fill="white"/>
<path opacity="0.33" d="M126.354 101.32H125.541V105.696H126.354V101.32Z" fill="white"/>
</svg>
