<svg width="361" height="375" viewBox="0 0 361 375" fill="none" xmlns="http://www.w3.org/2000/svg">
<path d="M169.74 374.297C166.489 373.842 163.267 373.355 160.015 372.9C141.476 370.225 123.757 364.785 106.829 356.791C101.146 354.116 95.6142 351.138 90.1133 347.795C93.5172 344.483 96.8299 341.26 99.626 337.584C110.962 322.66 115.947 305.824 114.64 287.193C113.849 276.009 110.506 265.554 104.701 255.919C104.063 254.856 104.124 254.34 105.127 253.61C111.844 248.808 118.499 243.976 125.124 239.083C126.158 238.323 126.645 238.445 127.374 239.447C133.27 247.623 139.165 255.768 145.153 263.852C152.508 273.79 164.999 277.803 176.792 274.033C186.274 271.025 195.726 267.955 205.148 264.855C206.423 264.43 206.94 264.673 207.335 265.949C209.767 273.669 212.259 281.389 214.842 289.077C215.268 290.385 214.963 290.841 213.809 291.388C192.139 301.174 178.25 317.646 172.141 340.562C169.346 351.108 169.254 361.775 171.351 372.473C171.473 373.051 171.473 373.689 171.534 374.267C170.956 374.297 170.349 374.297 169.74 374.297Z" fill="#EDA226" fill-opacity="0.24"/>
<path d="M360.357 260.024C358.473 264.765 356.315 269.264 354.006 273.67C343.126 294.52 328.871 312.693 311.274 328.316C310.211 329.258 309.815 329.258 309.178 327.89C298.723 305.977 281.551 292.331 257.937 286.921C247.876 284.611 237.695 284.734 227.605 286.982C226.025 287.347 225.326 287.195 224.779 285.463C222.5 278.078 220.038 270.722 217.667 263.367C216.877 260.936 216.907 260.936 219.4 260.116C228.547 257.137 237.726 254.189 246.875 251.18C258.879 247.199 266.568 236.501 266.568 223.888C266.568 214.315 266.568 204.71 266.568 195.138C266.568 192.615 266.599 192.615 269.06 192.615C276.931 192.645 284.833 192.706 292.705 192.676C293.89 192.676 294.346 192.888 294.499 194.195C296.201 211.033 302.826 225.681 314.618 237.868C326.531 250.207 341.059 257.441 358.079 259.66C358.778 259.75 359.507 259.903 360.357 260.024Z" fill="#EDA226" fill-opacity="0.24"/>
<path d="M90.2344 26.9466C93.8207 24.6672 97.5589 22.6613 101.328 20.6859C120.809 10.6565 141.445 4.27413 163.176 1.38689C165.485 1.08297 167.795 0.931011 170.075 0.596698C171.473 0.414345 171.716 0.839834 171.442 2.17708C169.072 13.7868 169.405 25.3663 172.871 36.7329C179.404 58.3112 193.02 73.9023 213.596 83.2631C214.994 83.9013 215.359 84.418 214.842 85.9072C212.259 93.5356 209.766 101.164 207.335 108.823C206.909 110.16 206.484 110.464 205.086 109.978C195.725 106.878 186.304 103.869 176.913 100.83C164.756 96.9092 152.113 101.103 144.605 111.437C138.832 119.399 132.996 127.301 127.282 135.295C126.492 136.388 126.066 136.358 125.063 135.628C118.529 130.826 111.965 126.055 105.37 121.314C104.276 120.524 104.093 119.977 104.823 118.731C121.326 90.9219 117.223 55.0593 94.9148 31.7182C93.3648 30.1682 91.8148 28.6182 90.2344 26.9466Z" fill="#EDA226" fill-opacity="0.24"/>
<path d="M0 196.14C0 190.214 0 184.318 0 178.392C0.182353 170.124 1.30686 161.98 2.7049 153.866C3.16077 151.282 3.85979 148.759 4.2245 146.145C4.46763 144.353 5.10586 144.656 6.29116 145.326C15.2264 150.4 24.8303 153.439 35.0724 154.321C48.0195 155.445 60.5106 153.47 72.3635 147.999C81.7547 143.683 89.8997 137.667 96.6771 129.855C97.3761 129.066 97.8625 128.882 98.7741 129.552C105.46 134.475 112.177 139.338 118.924 144.2C119.988 144.96 119.958 145.508 119.228 146.511C113.362 154.473 107.588 162.496 101.783 170.52C94.337 180.823 94.2457 193.861 101.631 204.194C107.375 212.249 113.21 220.211 119.076 228.174C119.927 229.329 119.836 229.876 118.651 230.696C112.086 235.377 105.582 240.118 99.1085 244.92C97.9536 245.771 97.4066 245.619 96.4948 244.585C84.7331 231.456 70.0841 223.463 52.6694 220.85C36.4401 218.418 21.0921 221.306 6.68625 229.177C4.68038 230.271 4.64999 230.301 4.16372 227.992C1.88431 217.507 0.273529 206.93 0 196.14Z" fill="#EDA226" fill-opacity="0.24"/>
<path d="M360.389 114.779C346.256 116.238 333.613 121.04 322.582 129.701C306.626 142.253 297.234 158.605 294.682 178.784C294.287 181.946 294.316 181.946 291.095 181.946C283.528 181.946 275.93 181.884 268.362 181.976C266.782 182.007 266.477 181.52 266.477 180.031C266.538 170.396 266.508 160.732 266.508 151.097C266.508 137.908 258.667 127.179 246.115 123.137C236.875 120.158 227.697 117.119 218.458 114.141C217.333 113.776 216.877 113.502 217.333 112.165C219.947 104.354 222.501 96.5437 224.992 88.7026C225.327 87.6085 225.66 87.3653 226.907 87.6085C251.1 92.5624 272.647 87.0006 291.369 70.8928C298.936 64.3889 304.65 56.4566 308.905 47.4605C309.938 45.2723 309.938 45.2723 311.7 46.8527C332.58 65.3614 348.536 87.426 359.69 113.016C359.903 113.563 360.085 114.08 360.389 114.779Z" fill="#EDA226" fill-opacity="0.24"/>
<path d="M167.947 145.658C157.977 145.658 149.984 137.726 149.984 127.819C149.984 117.972 158.13 109.857 167.947 109.918C177.762 109.948 185.786 117.972 185.817 127.727C185.817 137.635 177.823 145.658 167.947 145.658Z" fill="#EDA226" fill-opacity="0.24"/>
<path d="M255.901 150.611C255.901 160.458 247.877 168.421 238.06 168.391C228.183 168.36 219.946 160.154 220.099 150.459C220.25 140.491 228.334 132.437 238.09 132.558C247.999 132.65 255.901 140.673 255.901 150.611Z" fill="#EDA226" fill-opacity="0.24"/>
<path d="M124.578 205.378C114.73 205.348 106.616 197.142 106.707 187.356C106.828 177.539 114.852 169.546 124.608 169.516C134.516 169.516 142.6 177.691 142.539 187.66C142.479 197.416 134.364 205.408 124.578 205.378Z" fill="#EDA226" fill-opacity="0.24"/>
<path d="M255.961 224.19C255.961 234.16 248.058 242.032 238.059 242.032C228.244 242.032 220.342 234.099 220.281 224.19C220.22 214.222 228.304 206.199 238.333 206.26C248.15 206.32 255.961 214.253 255.961 224.19Z" fill="#EDA226" fill-opacity="0.24"/>
<path d="M168.008 264.796C157.948 264.796 150.228 256.986 150.228 246.865C150.228 237.018 158.191 229.116 168.098 229.147C177.976 229.177 185.878 237.109 185.878 246.987C185.938 257.047 178.128 264.796 168.008 264.796Z" fill="#EDA226" fill-opacity="0.24"/>
</svg>
