<svg width="205" height="83" viewBox="0 0 205 83" fill="none" xmlns="http://www.w3.org/2000/svg">
<path d="M37.7811 82.0122C37.0697 81.9125 36.3649 81.8061 35.6535 81.7064C31.5978 81.1213 27.7215 79.9312 24.0182 78.1825C22.7748 77.5974 21.5648 76.9459 20.3613 76.2145C21.106 75.4898 21.8307 74.785 22.4424 73.9805C24.9224 70.716 26.0128 67.0325 25.7269 62.9568C25.554 60.5101 24.8227 58.2229 23.5527 56.1152C23.4131 55.8825 23.4264 55.7695 23.6458 55.6099C25.1152 54.5594 26.5713 53.5023 28.0207 52.4318C28.2468 52.2656 28.3532 52.2922 28.5127 52.5116C29.8026 54.3001 31.0925 56.082 32.4023 57.8506C34.0113 60.0247 36.7439 60.9024 39.3237 60.0779C41.3981 59.4197 43.4658 58.7482 45.527 58.07C45.8062 57.9769 45.9192 58.0301 46.0057 58.3093C46.5376 59.9981 47.0828 61.6869 47.6479 63.3691C47.741 63.655 47.6745 63.7547 47.4219 63.8744C42.6813 66.0153 39.6428 69.6189 38.3064 74.6321C37.6947 76.9392 37.6748 79.2729 38.1335 81.6133C38.1601 81.7396 38.1601 81.8793 38.1734 82.0056C38.0471 82.0122 37.9141 82.0122 37.7811 82.0122Z" fill="#EDA225"/>
<path d="M0.560547 39.1276C0.587142 39.1343 0.620386 39.1476 0.646981 39.1542C0.646981 40.4507 0.646981 41.7406 0.646981 43.0371C0.620386 43.0438 0.587142 43.0504 0.560547 43.0571C0.560547 41.7472 0.560547 40.4374 0.560547 39.1276Z" fill="#EDA227"/>
<path d="M116.616 23.7224C116.616 29.5201 116.622 35.3178 116.616 41.1156C116.616 43.6089 117.487 45.7697 119.142 47.5981C121.243 49.9186 123.903 51.0223 127.034 50.9026C131.894 50.7098 135.95 46.8734 136.456 42.0331C137.021 36.6077 133.251 31.794 127.845 31.0626C126.442 30.8698 125.046 31.0094 123.65 31.169C122.653 31.282 122.653 31.3086 122.653 30.298C122.653 28.7754 122.659 27.2529 122.646 25.7303C122.646 25.4444 122.712 25.3247 123.018 25.2582C131.894 23.2968 140.618 28.935 142.326 37.8909C143.344 43.2232 141.974 47.9971 138.237 51.973C134.78 55.6565 130.438 57.3054 125.405 56.9929C118.005 56.5341 111.882 50.9159 110.672 43.5756C110.485 42.452 110.452 41.3217 110.452 40.1847C110.459 28.7089 110.459 17.2398 110.459 5.764C110.459 5.13237 110.352 5.19221 111.037 5.19221C112.733 5.19221 114.435 5.2055 116.13 5.18556C116.509 5.17891 116.622 5.26534 116.622 5.66427C116.609 11.6748 116.616 17.6986 116.616 23.7224Z" fill="#666666"/>
<path d="M160.65 56.9929C152.984 57.0195 146.368 51.614 144.879 44.1341C143.104 35.2314 149.008 26.588 157.93 25.1053C163.163 24.2343 167.757 25.6638 171.68 29.2409C172.671 30.1451 173.502 31.189 174.233 32.3126C174.38 32.5387 174.393 32.6783 174.187 32.8844C170.197 36.9601 166.135 40.9693 162.113 45.0118C161.9 45.2312 161.78 45.2578 161.547 45.0251C160.337 43.7951 159.121 42.5783 157.891 41.3683C157.645 41.1223 157.678 41.0026 157.904 40.7765C160.537 38.1569 163.163 35.524 165.796 32.911C166.035 32.6716 166.069 32.5786 165.749 32.3858C159.958 28.8486 152.146 32.2993 150.869 38.9547C149.812 44.4533 153.23 49.6393 158.728 50.7098C162.405 51.4279 165.557 50.2976 168.116 47.5583C168.795 46.8336 169.426 46.0822 170.025 45.291C170.191 45.065 170.284 45.0849 170.47 45.2711C171.707 46.5277 172.957 47.771 174.213 49.0077C174.399 49.1939 174.413 49.3268 174.273 49.5463C171.594 53.6353 167.85 56.0887 163.01 56.8533C162.618 56.9131 162.219 56.9663 161.82 56.9929C161.428 57.0128 161.035 56.9929 160.65 56.9929Z" fill="#666666"/>
<path d="M174.287 41.0557C174.287 33.1902 179.726 26.6279 187.399 25.1319C193.728 23.8952 200.43 26.7941 203.901 32.2527C204.08 32.5386 204.08 32.7049 203.828 32.9509C202.618 34.1543 201.421 35.3777 200.231 36.601C200.025 36.8138 199.932 36.7872 199.759 36.5678C198.715 35.2447 197.638 33.9482 196.288 32.9243C190.45 28.5161 181.873 31.8605 180.544 39.0544C179.506 44.666 183.276 50.005 188.928 50.7962C192.511 51.3015 195.523 50.0848 197.95 47.4186C198.582 46.7271 199.2 46.0224 199.752 45.271C199.892 45.0849 199.971 45.025 200.164 45.2245C201.421 46.5011 202.691 47.7643 203.961 49.021C204.114 49.1739 204.12 49.2803 204.001 49.4531C201.461 53.3959 197.904 55.8958 193.289 56.7269C188.01 57.671 183.323 56.3014 179.367 52.6711C176.621 50.1446 174.999 46.9864 174.44 43.2897C174.327 42.5185 174.274 41.7339 174.287 41.0557Z" fill="#666666"/>
<path d="M79.4822 57.0129C79.07 58.0501 78.5979 59.0341 78.0926 59.9982C75.7124 64.5592 72.5941 68.5352 68.7444 71.9527C68.5117 72.1588 68.4253 72.1588 68.2857 71.8596C65.9985 67.0658 62.2419 64.0805 57.0758 62.897C54.8751 62.3917 52.6477 62.4183 50.4403 62.9103C50.0946 62.9901 49.9417 62.9569 49.822 62.5779C49.3233 60.9622 48.7848 59.3532 48.2662 57.7442C48.0933 57.2123 48.1 57.2123 48.6452 57.0328C50.6465 56.3812 52.6544 55.7363 54.6557 55.0781C57.2819 54.2071 58.9641 51.8667 58.9641 49.1075C58.9641 47.0131 58.9641 44.9121 58.9641 42.8177C58.9641 42.2659 58.9707 42.2659 59.5093 42.2659C61.2313 42.2725 62.96 42.2858 64.682 42.2792C64.9413 42.2792 65.0411 42.3257 65.0743 42.6116C65.4466 46.295 66.8961 49.4997 69.4758 52.1659C72.0821 54.8653 75.2602 56.4477 78.9836 56.9331C79.1365 56.953 79.296 56.9863 79.4822 57.0129Z" fill="#EDA225"/>
<path d="M20.3877 6.02335C21.1723 5.52469 21.9901 5.08587 22.8145 4.6537C27.0764 2.4596 31.5909 1.06336 36.3448 0.431723C36.8501 0.365235 37.3554 0.331991 37.854 0.258855C38.1599 0.218962 38.2131 0.312045 38.1532 0.604591C37.6346 3.14443 37.7078 5.67761 38.4657 8.16426C39.8952 12.8849 42.8739 16.2957 47.3751 18.3435C47.6809 18.4832 47.7607 18.5962 47.6477 18.922C47.0826 20.5908 46.5373 22.2597 46.0054 23.9352C45.9124 24.2277 45.8193 24.2942 45.5134 24.1878C43.4656 23.5096 41.4045 22.8514 39.35 22.1865C36.6905 21.3288 33.9246 22.2464 32.2824 24.507C31.0191 26.2489 29.7425 27.9776 28.4926 29.7263C28.3197 29.9656 28.2266 29.959 28.0072 29.7994C26.5777 28.7489 25.1416 27.705 23.6988 26.6678C23.4594 26.4949 23.4195 26.3753 23.5791 26.1027C27.1894 20.019 26.2918 12.1735 21.4116 7.06721C21.0725 6.72812 20.7334 6.38903 20.3877 6.02335Z" fill="#EDA225"/>
<path d="M0.646484 43.0371C0.646484 41.7406 0.646484 40.4507 0.646484 39.1542C0.686377 37.3457 0.932382 35.5639 1.23823 33.7886C1.33796 33.2235 1.49088 32.6716 1.57066 32.0998C1.62386 31.7076 1.76348 31.7741 2.02278 31.9203C3.97752 33.0307 6.07854 33.6956 8.31918 33.8884C11.1516 34.1344 13.8842 33.7022 16.4772 32.5054C18.5317 31.5613 20.3136 30.2448 21.7963 28.5361C21.9492 28.3632 22.0556 28.3233 22.255 28.4696C23.7178 29.5467 25.1871 30.6105 26.6632 31.6743C26.8959 31.8405 26.8892 31.9602 26.7297 32.1796C25.4464 33.9216 24.1832 35.6769 22.9133 37.4322C21.2843 39.6861 21.2644 42.5384 22.88 44.799C24.1366 46.5609 25.4132 48.3029 26.6964 50.0449C26.8826 50.2976 26.8626 50.4172 26.6033 50.5968C25.1672 51.6207 23.7444 52.6579 22.3282 53.7084C22.0755 53.8946 21.9558 53.8613 21.7564 53.6352C19.1833 50.763 15.9786 49.0143 12.1688 48.4426C8.61837 47.9107 5.26074 48.5423 2.10922 50.2643C1.6704 50.5037 1.66375 50.5103 1.55737 50.005C1.05871 47.7112 0.706323 45.3974 0.646484 43.0371Z" fill="#EDA225"/>
<path d="M79.4884 25.2383C76.3967 25.5574 73.6308 26.608 71.2173 28.5029C67.7267 31.2488 65.6722 34.8258 65.1137 39.2406C65.0273 39.9321 65.0339 39.9321 64.3292 39.9321C62.6736 39.9321 61.0114 39.9188 59.3559 39.9388C59.0101 39.9454 58.9436 39.839 58.9436 39.5132C58.9569 37.4056 58.9503 35.2913 58.9503 33.1836C58.9503 30.298 57.2349 27.951 54.489 27.0667C52.4677 26.4151 50.4598 25.7503 48.4386 25.0987C48.1926 25.0189 48.0928 24.9591 48.1926 24.6665C48.7644 22.9578 49.3229 21.249 49.8681 19.5336C49.9412 19.2943 50.0143 19.2411 50.2869 19.2943C55.5794 20.378 60.2934 19.1613 64.389 15.6375C66.0445 14.2146 67.2945 12.4793 68.2253 10.5113C68.4514 10.0325 68.4514 10.0325 68.837 10.3783C73.4047 14.4274 76.8954 19.2544 79.3355 24.8527C79.382 24.9723 79.4219 25.0854 79.4884 25.2383Z" fill="#EDA225"/>
<path d="M37.3884 31.9935C35.2076 31.9935 33.459 30.2582 33.459 28.0907C33.459 25.9365 35.2409 24.1612 37.3884 24.1745C39.536 24.1812 41.2912 25.9365 41.2979 28.0707C41.2979 30.2382 39.5493 31.9935 37.3884 31.9935Z" fill="#EDA226"/>
<path d="M56.6296 33.0772C56.6296 35.2314 54.8743 36.9734 52.7268 36.9668C50.5659 36.9601 48.7641 35.165 48.7973 33.044C48.8306 30.8632 50.5991 29.1013 52.7334 29.1279C54.9009 29.1478 56.6296 30.9031 56.6296 33.0772Z" fill="#EDA226"/>
<path d="M27.9009 45.0583C25.7467 45.0517 23.9714 43.2565 23.9914 41.1156C24.018 38.968 25.7733 37.2194 27.9075 37.2127C30.075 37.2127 31.8436 39.0013 31.8303 41.1821C31.817 43.3163 30.0418 45.0649 27.9009 45.0583Z" fill="#EDA226"/>
<path d="M56.6436 49.1739C56.6436 51.3547 54.915 53.0767 52.7275 53.0767C50.5799 53.0767 48.8513 51.3414 48.838 49.1739C48.8247 46.9931 50.5932 45.2378 52.7873 45.2511C54.9349 45.2644 56.6436 46.9997 56.6436 49.1739Z" fill="#EDA226"/>
<path d="M37.4013 58.0567C35.2005 58.0567 33.5117 56.348 33.5117 54.1339C33.5117 51.9797 35.2537 50.251 37.4212 50.2577C39.5821 50.2643 41.3107 51.9997 41.3107 54.1605C41.324 56.3613 39.6153 58.0567 37.4013 58.0567Z" fill="#EDA226"/>
<path d="M135.491 61.9662C135.491 63.5486 135.478 65.131 135.504 66.7201C135.511 67.119 135.398 67.232 135.019 67.1921C134.7 67.1589 134.381 67.1722 134.055 67.1921C133.809 67.2054 133.709 67.1522 133.709 66.873C133.722 64.4994 133.722 62.1191 133.709 59.7455C133.709 59.4862 133.769 59.3998 134.041 59.4064C134.6 59.4264 135.165 59.433 135.724 59.4064C136.016 59.3931 136.176 59.4862 136.315 59.7455C136.98 60.9755 137.672 62.1922 138.35 63.4156C138.39 63.4821 138.43 63.5486 138.483 63.635C138.609 63.5353 138.556 63.4023 138.556 63.3026C138.563 62.1258 138.569 60.9556 138.549 59.7787C138.543 59.4729 138.636 59.3865 138.935 59.4064C139.321 59.433 139.713 59.4197 140.098 59.4064C140.298 59.3998 140.378 59.4529 140.378 59.6724C140.371 62.0859 140.371 64.506 140.378 66.9195C140.378 67.1323 140.311 67.2187 140.105 67.1855C140.079 67.1788 140.052 67.1855 140.025 67.1855C139.52 67.1788 138.928 67.3318 138.529 67.1256C138.124 66.9195 137.997 66.3012 137.751 65.8624C137.027 64.5592 136.309 63.256 135.584 61.9462C135.544 61.9529 135.517 61.9595 135.491 61.9662Z" fill="#EDA225"/>
<path d="M146.655 62.8971C147.785 63.2694 148.277 63.9276 148.197 64.9183C148.111 66.0552 147.353 66.8863 146.196 67.0991C145.358 67.252 144.521 67.1589 143.683 67.1789C143.204 67.1922 142.719 67.1722 142.24 67.1855C142.041 67.1922 141.961 67.139 141.961 66.9196C141.968 64.5061 141.968 62.0926 141.968 59.679C141.968 59.5461 141.941 59.4064 142.154 59.4064C143.41 59.4264 144.667 59.3333 145.917 59.453C146.728 59.5328 147.413 59.8652 147.632 60.7628C147.825 61.5872 147.526 62.2654 146.655 62.8971ZM143.909 64.7454C143.909 64.9981 143.909 65.2507 143.909 65.5034C143.909 65.6098 143.896 65.7361 144.055 65.7294C144.554 65.7095 145.066 65.8092 145.558 65.6231C145.983 65.4635 146.17 65.1709 146.15 64.6922C146.136 64.2667 145.937 64.0273 145.505 63.8944C145.285 63.8279 145.059 63.8345 144.833 63.8345C143.909 63.8279 143.909 63.8279 143.909 64.7454ZM143.909 61.6271C143.909 62.4915 143.909 62.4915 144.78 62.4449C144.973 62.4383 145.146 62.3917 145.312 62.2987C145.764 62.046 145.804 61.3013 145.372 61.0154C145.166 60.8758 144.926 60.8625 144.68 60.8625C143.909 60.8625 143.909 60.8559 143.909 61.6271Z" fill="#EDA226"/>
<path d="M184.965 63.2893C184.965 62.1125 184.972 60.9423 184.958 59.7655C184.958 59.5062 184.998 59.3865 185.297 59.3998C186.441 59.4463 187.591 59.34 188.735 59.4796C190.33 59.6658 191.594 60.8625 191.84 62.4715C192.053 63.8811 191.767 65.151 190.723 66.1816C190.025 66.873 189.147 67.1257 188.21 67.1589C187.212 67.1988 186.208 67.1656 185.204 67.1855C184.925 67.1922 184.958 67.026 184.958 66.8531C184.965 65.6696 184.965 64.4795 184.965 63.2893ZM186.94 63.2694C186.94 63.8279 186.94 64.393 186.94 64.9515C186.94 65.7494 186.94 65.7494 187.751 65.7294C188.861 65.7028 189.573 65.1045 189.805 64.0274C189.892 63.6284 189.898 63.2295 189.852 62.8306C189.745 61.9596 189.346 61.2881 188.482 60.9822C188.09 60.8426 187.664 60.8758 187.252 60.8625C186.999 60.8559 186.933 60.9556 186.94 61.1883C186.946 61.8798 186.94 62.5713 186.94 63.2694Z" fill="#EDA227"/>
<path d="M153.696 62.1457C153.696 61.3345 153.702 60.5167 153.689 59.7056C153.689 59.4862 153.742 59.3931 153.975 59.4064C154.454 59.4197 154.939 59.413 155.418 59.413C155.564 59.413 155.677 59.4197 155.677 59.6191C155.664 61.3412 155.737 63.0632 155.631 64.7786C155.537 66.3012 154.726 67.0658 153.21 67.2985C152.539 67.4049 151.854 67.3916 151.183 67.212C149.873 66.8597 149.175 65.9754 149.148 64.4993C149.115 62.897 149.141 61.2946 149.135 59.6923C149.135 59.4662 149.208 59.3931 149.434 59.3997C149.886 59.413 150.345 59.4197 150.797 59.3997C151.076 59.3864 151.123 59.4928 151.123 59.7388C151.109 61.2082 151.116 62.6776 151.123 64.1403C151.123 64.3531 151.136 64.5658 151.169 64.7786C151.309 65.5897 151.714 65.9155 152.512 65.8823C153.224 65.849 153.643 65.4169 153.682 64.6257C153.716 63.9475 153.696 63.2627 153.702 62.5845C153.696 62.4382 153.696 62.2919 153.696 62.1457Z" fill="#EDA227"/>
<path d="M118.47 60.6564C118.47 60.8159 118.483 60.9755 118.47 61.1351C118.457 61.2747 118.55 61.4609 118.41 61.5407C118.257 61.6337 118.151 61.4542 118.031 61.3811C117.366 60.9423 116.655 60.683 115.85 60.7029C115.564 60.7096 115.299 60.7694 115.046 60.9024C114.807 61.0287 114.634 61.2149 114.64 61.5008C114.647 61.78 114.826 61.9595 115.079 62.0659C115.491 62.2388 115.93 62.2986 116.349 62.4116C116.635 62.4848 116.914 62.5646 117.193 62.6643C118.091 62.9834 118.716 63.5353 118.783 64.5592C118.849 65.6297 118.404 66.4408 117.453 66.9195C116.229 67.5312 114.94 67.4647 113.663 67.1389C112.592 66.873 112.599 66.8464 112.599 65.7493C112.599 64.8983 112.592 64.9049 113.344 65.3105C114.175 65.756 115.039 66.0153 115.997 65.8291C116.462 65.736 116.755 65.4767 116.775 65.1376C116.795 64.8185 116.549 64.526 116.103 64.393C115.538 64.2334 114.959 64.1337 114.401 63.9542C112.905 63.4754 112.233 62.2055 112.785 60.8758C113.164 59.9649 113.949 59.5327 114.86 59.3466C116.01 59.1005 117.14 59.2668 118.244 59.6657C118.423 59.7322 118.49 59.8319 118.477 60.0181C118.457 60.2308 118.47 60.4436 118.47 60.6564Z" fill="#EDA227"/>
<path d="M131.895 67.1855C130.924 67.1855 130.924 67.1855 130.638 66.2547C130.459 65.6629 130.459 65.6629 129.847 65.6629C129.382 65.6629 128.91 65.6895 128.444 65.6563C128.092 65.6297 127.939 65.756 127.872 66.0884C127.819 66.3477 127.7 66.5937 127.653 66.853C127.6 67.1389 127.447 67.2054 127.181 67.1921C126.769 67.1722 126.35 67.1722 125.938 67.1921C125.638 67.2054 125.579 67.1389 125.678 66.8398C126.243 65.2042 126.789 63.5619 127.341 61.9197C127.593 61.175 127.853 60.4303 128.085 59.6857C128.152 59.4729 128.251 59.3931 128.477 59.3998C129.009 59.4197 129.548 59.4131 130.08 59.3998C130.273 59.3931 130.359 59.4663 130.419 59.6458C131.223 62.0593 132.028 64.4728 132.846 66.8796C132.939 67.1589 132.852 67.1988 132.606 67.1855C132.38 67.1722 132.141 67.1855 131.895 67.1855ZM130.02 64.2201C129.761 63.3757 129.515 62.5779 129.235 61.667C128.969 62.5313 128.73 63.2893 128.497 64.0473C128.451 64.2068 128.564 64.2201 128.677 64.2201C129.109 64.2201 129.535 64.2201 130.02 64.2201Z" fill="#EDA226"/>
<path d="M200.083 65.7427C201.073 65.7427 202.004 65.7427 202.935 65.7427C203.826 65.7427 203.826 65.7427 203.826 66.6337C203.826 67.1855 203.826 67.1855 203.281 67.1855C201.532 67.1855 199.783 67.1789 198.028 67.1922C197.742 67.1922 197.656 67.139 197.636 66.8265C197.589 66.1151 197.775 65.53 198.228 64.9582C199.178 63.7548 200.049 62.4915 200.954 61.2482C201.033 61.1418 201.1 61.0354 201.22 60.8492C200.94 60.8492 200.721 60.8492 200.501 60.8492C199.724 60.8492 198.952 60.8426 198.174 60.8559C197.928 60.8625 197.835 60.7894 197.862 60.5434C197.902 60.1777 197.709 59.7123 197.948 59.4663C198.154 59.2602 198.607 59.4131 198.952 59.4065C200.382 59.3998 201.811 59.4131 203.241 59.3998C203.54 59.3998 203.633 59.4597 203.66 59.7854C203.719 60.5235 203.5 61.1086 203.048 61.687C202.091 62.917 201.193 64.2002 200.275 65.4569C200.216 65.53 200.176 65.6098 200.083 65.7427Z" fill="#EDA226"/>
<path d="M172.897 59.4064C172.033 60.8758 171.215 62.2654 170.384 63.6483C170.264 63.8544 170.211 64.0539 170.211 64.2866C170.218 65.1443 170.205 65.9953 170.218 66.853C170.224 67.119 170.138 67.1988 169.879 67.1855C169.427 67.1655 168.968 67.1722 168.516 67.1855C168.283 67.1921 168.217 67.1123 168.223 66.8863C168.237 66.0685 168.217 65.2573 168.23 64.4395C168.237 64.1337 168.157 63.8744 167.997 63.6151C167.239 62.3451 166.488 61.0619 165.743 59.7854C165.677 59.6723 165.624 59.5593 165.537 59.3997C166.249 59.3997 166.913 59.4064 167.578 59.3931C167.798 59.3864 167.838 59.546 167.911 59.679C168.356 60.4835 168.795 61.288 169.26 62.1523C169.706 61.3079 170.131 60.5167 170.544 59.7189C170.657 59.4928 170.783 59.3798 171.056 59.3931C171.654 59.4263 172.239 59.4064 172.897 59.4064Z" fill="#EDA226"/>
<path d="M122.293 59.4064C123.257 59.4064 124.215 59.4131 125.179 59.3998C125.458 59.3931 125.604 59.4463 125.565 59.7655C125.525 60.1045 125.704 60.55 125.498 60.7694C125.292 60.9955 124.84 60.8226 124.494 60.8426C124.102 60.8691 123.57 60.6697 123.344 60.929C123.151 61.1484 123.277 61.667 123.277 62.0526C123.277 63.6417 123.271 65.2307 123.284 66.8198C123.284 67.0858 123.231 67.1988 122.938 67.1855C122.526 67.1589 122.107 67.1589 121.695 67.1855C121.396 67.2054 121.309 67.1124 121.316 66.8065C121.329 64.9781 121.309 63.1497 121.336 61.3146C121.343 60.929 121.249 60.8027 120.857 60.8359C120.365 60.8758 119.867 60.8359 119.375 60.8492C119.129 60.8559 119.002 60.816 119.029 60.5301C119.062 60.171 118.916 59.7056 119.095 59.4862C119.288 59.2468 119.767 59.4131 120.126 59.4064C120.844 59.3998 121.569 59.4064 122.293 59.4064Z" fill="#EDA125"/>
<path d="M194.792 67.1854C194.22 67.1854 193.641 67.1722 193.069 67.1921C192.797 67.2054 192.71 67.1057 192.75 66.853C192.757 66.8264 192.75 66.7998 192.75 66.7732C192.757 66.4807 192.651 66.115 192.79 65.9089C192.943 65.6828 193.335 65.8424 193.621 65.8291C193.821 65.8224 193.867 65.7427 193.867 65.5631C193.861 64.0539 193.861 62.5446 193.867 61.0353C193.867 60.8159 193.781 60.776 193.588 60.7694C192.757 60.7428 192.777 60.7361 192.744 59.9117C192.73 59.5261 192.804 59.3864 193.229 59.3997C194.353 59.433 195.476 59.4197 196.593 59.4064C196.846 59.4064 196.979 59.4596 196.932 59.7322C196.926 59.7588 196.932 59.7854 196.932 59.812C196.926 60.1045 197.026 60.4635 196.893 60.6763C196.74 60.9223 196.354 60.7494 196.068 60.7627C195.869 60.776 195.822 60.8492 195.822 61.0287C195.829 62.538 195.829 64.0472 195.822 65.5565C195.822 65.7759 195.908 65.8158 196.108 65.8224C196.932 65.849 196.906 65.8557 196.946 66.6934C196.966 67.1057 196.839 67.212 196.44 67.1854C195.889 67.1589 195.343 67.1854 194.792 67.1854Z" fill="#EDA125"/>
<path d="M79.2628 40.976C79.2362 33.177 84.8212 26.475 92.4606 25.112C98.9033 23.9618 105.353 26.7875 108.896 32.306C109.049 32.5387 109.069 32.6783 108.85 32.9044C104.834 36.9203 100.825 40.9428 96.8222 44.9719C96.5695 45.2246 96.4366 45.2445 96.1773 44.9786C94.9938 43.7619 93.7904 42.5651 92.5736 41.3816C92.301 41.1223 92.3542 40.996 92.5936 40.7633C95.2265 38.1436 97.8528 35.5107 100.486 32.8977C100.712 32.6717 100.725 32.572 100.432 32.3991C94.5151 28.822 86.6762 32.3858 85.506 39.1941C84.5419 44.7725 88.2985 50.0317 93.8635 50.8096C97.281 51.2883 100.213 50.2311 102.613 47.7445C103.365 46.9666 104.056 46.1288 104.714 45.2711C104.861 45.085 104.934 45.0783 105.1 45.2445C106.37 46.5277 107.646 47.8043 108.93 49.0676C109.089 49.2205 109.076 49.3269 108.963 49.4998C106.43 53.4092 102.906 55.9025 98.3182 56.7403C93.039 57.7043 88.3517 56.348 84.3823 52.7311C81.6031 50.1979 79.9675 47.0131 79.4157 43.2831C79.3559 42.8842 79.3027 42.4919 79.2761 42.093C79.2428 41.7273 79.2628 41.3484 79.2628 40.976Z" fill="#666666"/>
<path d="M175.463 59.4064C176.048 59.4064 176.64 59.413 177.225 59.3997C177.444 59.3931 177.551 59.4596 177.517 59.6923C177.511 59.7322 177.517 59.7721 177.517 59.812C177.511 60.1045 177.61 60.4635 177.477 60.6763C177.325 60.9157 176.939 60.7494 176.653 60.7627C176.447 60.776 176.414 60.8558 176.414 61.0353C176.42 62.5446 176.42 64.0539 176.414 65.5632C176.414 65.7826 176.5 65.8225 176.7 65.8291C177.524 65.8557 177.497 65.8624 177.531 66.7067C177.551 67.1256 177.411 67.2121 177.025 67.1988C175.942 67.1722 174.858 67.1722 173.781 67.1988C173.395 67.2121 173.289 67.0791 173.342 66.7333C173.342 66.72 173.342 66.7067 173.342 66.6935C173.342 65.869 173.342 65.8557 174.173 65.8358C174.412 65.8291 174.459 65.736 174.452 65.5233C174.446 64.0406 174.446 62.5579 174.452 61.0752C174.452 60.8159 174.359 60.7694 174.126 60.7694C173.335 60.7627 173.335 60.7561 173.335 59.9449C173.335 59.413 173.335 59.413 173.86 59.413C174.392 59.4064 174.924 59.4064 175.463 59.4064Z" fill="#EDA125"/>
<path d="M109.666 67.1855C109.081 67.1855 108.489 67.1722 107.904 67.1922C107.612 67.2055 107.519 67.0991 107.565 66.8331C107.572 66.8065 107.565 66.7799 107.565 66.7533C107.572 66.4608 107.479 66.1018 107.618 65.8956C107.758 65.6962 108.137 65.8292 108.416 65.8292C108.642 65.8292 108.682 65.7361 108.682 65.5433C108.676 64.0473 108.676 62.5513 108.682 61.0553C108.682 60.816 108.596 60.7694 108.376 60.7694C107.565 60.7561 107.585 60.7495 107.552 59.9317C107.539 59.5328 107.625 59.3865 108.064 59.3998C109.188 59.433 110.311 59.4197 111.428 59.4064C111.668 59.4064 111.774 59.4596 111.747 59.7123C111.727 59.9649 111.727 60.2176 111.747 60.4702C111.774 60.7362 111.648 60.7694 111.422 60.7761C110.637 60.7827 110.637 60.7894 110.637 61.5739C110.637 62.8571 110.644 64.1404 110.63 65.4169C110.63 65.7095 110.677 65.8424 111.016 65.8292C111.741 65.8026 111.741 65.8225 111.741 66.5539C111.741 67.1789 111.741 67.1789 111.109 67.1789C110.63 67.1855 110.145 67.1855 109.666 67.1855Z" fill="#EDA125"/>
<path d="M157.199 63.276C157.199 62.1124 157.212 60.9489 157.192 59.792C157.185 59.4596 157.298 59.3864 157.598 59.4064C157.996 59.433 158.402 59.433 158.801 59.4064C159.113 59.3864 159.18 59.4995 159.173 59.792C159.16 61.6337 159.18 63.4821 159.16 65.3238C159.153 65.6895 159.266 65.7693 159.605 65.756C160.423 65.7294 161.234 65.756 162.052 65.7427C162.318 65.736 162.444 65.7959 162.418 66.0884C162.391 66.3411 162.391 66.6004 162.418 66.8464C162.444 67.1456 162.318 67.1921 162.052 67.1921C160.556 67.1788 159.06 67.1788 157.558 67.1921C157.238 67.1987 157.185 67.0924 157.192 66.8065C157.212 65.6296 157.199 64.4528 157.199 63.276Z" fill="#EDA225"/>
<path d="M178.78 63.2893C178.78 62.1125 178.787 60.9356 178.773 59.7654C178.773 59.4928 178.833 59.3865 179.126 59.4064C179.511 59.433 179.904 59.433 180.289 59.4064C180.642 59.3798 180.761 59.4795 180.761 59.8585C180.741 61.6736 180.761 63.4888 180.741 65.3105C180.741 65.6563 180.808 65.7693 181.174 65.756C182.018 65.7227 182.856 65.756 183.7 65.7427C183.926 65.7427 183.993 65.8092 183.999 66.0352C184.033 67.1921 184.039 67.1921 182.882 67.1921C181.626 67.1921 180.369 67.1855 179.113 67.1988C178.853 67.1988 178.773 67.1323 178.773 66.8663C178.787 65.6696 178.78 64.4794 178.78 63.2893Z" fill="#EDA225"/>
</svg>
