<svg width="122" height="119" viewBox="0 0 122 119" fill="none" xmlns="http://www.w3.org/2000/svg">
<path d="M121.566 59.3834C121.566 91.8698 94.5626 118.206 61.2518 118.206C27.941 118.206 0.9375 91.8716 0.9375 59.3834C0.9375 26.8952 27.941 0.560913 61.2518 0.560913C94.5626 0.560913 121.566 26.897 121.566 59.3834Z" fill="#272838"/>
<path d="M61.1904 104.909C85.6366 104.909 105.454 85.5819 105.454 61.7406C105.454 37.8992 85.6366 18.572 61.1904 18.572C36.7443 18.572 16.9268 37.8992 16.9268 61.7406C16.9268 85.5819 36.7443 104.909 61.1904 104.909Z" fill="white"/>
<path d="M60.9192 91.0331C77.0531 91.0331 90.1323 78.2774 90.1323 62.5424C90.1323 46.8074 77.0531 34.0516 60.9192 34.0516C44.7852 34.0516 31.7061 46.8074 31.7061 62.5424C31.7061 78.2774 44.7852 91.0331 60.9192 91.0331Z" fill="#272838"/>
<path d="M60.9198 78.3876C69.8927 78.3876 77.1668 71.2935 77.1668 62.5425C77.1668 53.7915 69.8927 46.6974 60.9198 46.6974C51.9469 46.6974 44.6729 53.7915 44.6729 62.5425C44.6729 71.2935 51.9469 78.3876 60.9198 78.3876Z" fill="white"/>
<path d="M60.9207 71.2228C65.8362 71.2228 69.8209 67.3367 69.8209 62.543C69.8209 57.7493 65.8362 53.8633 60.9207 53.8633C56.0053 53.8633 52.0205 57.7493 52.0205 62.543C52.0205 67.3367 56.0053 71.2228 60.9207 71.2228Z" fill="#FC0404"/>
</svg>
