<svg width="30" height="32" viewBox="0 0 30 32" fill="none" xmlns="http://www.w3.org/2000/svg">
<path d="M13.9228 31.883C13.6567 31.8441 13.3931 31.8027 13.1269 31.7638C11.6097 31.5356 10.1596 31.0715 8.77424 30.3896C8.30912 30.1615 7.85644 29.9074 7.40625 29.6222C7.68482 29.3396 7.95593 29.0648 8.18476 28.7511C9.1125 27.4781 9.52041 26.0417 9.41346 24.4524C9.34879 23.4983 9.07519 22.6064 8.60013 21.7845C8.5479 21.6938 8.55287 21.6497 8.63495 21.5875C9.18463 21.1778 9.72934 20.7656 10.2716 20.3482C10.3561 20.2834 10.3959 20.2937 10.4556 20.3793C10.9381 21.0767 11.4207 21.7716 11.9107 22.4612C12.5126 23.309 13.5348 23.6513 14.4999 23.3298C15.2759 23.0731 16.0494 22.8112 16.8205 22.5468C16.9249 22.5105 16.9672 22.5312 16.9996 22.6401C17.1985 23.2987 17.4025 23.9572 17.6139 24.6131C17.6487 24.7246 17.6239 24.7635 17.5294 24.8102C15.7559 25.645 14.6193 27.0503 14.1193 29.0052C13.8905 29.9048 13.883 30.8149 14.0547 31.7275C14.0646 31.7767 14.0646 31.8312 14.0696 31.8804C14.0223 31.883 13.9726 31.883 13.9228 31.883Z" fill="#EDA225"/>
<path d="M0 15.1603C0.00994873 15.1629 0.0223846 15.1681 0.0323334 15.1706C0.0323334 15.6762 0.0323334 16.1792 0.0323334 16.6848C0.0223846 16.6874 0.00994873 16.69 0 16.6926C0 16.1818 0 15.671 0 15.1603Z" fill="#EDA227"/>
<path d="M29.5237 22.1345C29.3695 22.539 29.1929 22.9227 29.0039 23.2987C28.1134 25.0772 26.9469 26.6277 25.5068 27.9603C25.4197 28.0407 25.3874 28.0407 25.3352 27.924C24.4796 26.0547 23.0743 24.8906 21.1417 24.4291C20.3184 24.232 19.4852 24.2424 18.6594 24.4343C18.5301 24.4654 18.4729 24.4524 18.4281 24.3046C18.2415 23.6746 18.0401 23.0472 17.8461 22.4197C17.7814 22.2123 17.7839 22.2123 17.9878 22.1423C18.7365 21.8882 19.4877 21.6367 20.2363 21.3801C21.2188 21.0404 21.848 20.1278 21.848 19.0518C21.848 18.2351 21.848 17.4159 21.848 16.5992C21.848 16.384 21.8505 16.384 22.052 16.384C22.6962 16.3866 23.3429 16.3918 23.9871 16.3892C24.0841 16.3892 24.1214 16.4073 24.1338 16.5188C24.2731 17.9551 24.8153 19.2048 25.7804 20.2445C26.7554 21.2971 27.9443 21.9142 29.3371 22.1034C29.3944 22.1112 29.4541 22.1242 29.5237 22.1345Z" fill="#EDA225"/>
<path d="M7.41602 2.25127C7.70951 2.05682 8.01544 1.88571 8.32386 1.71718C9.91819 0.861595 11.607 0.317132 13.3854 0.070827C13.5744 0.0449001 13.7635 0.0319367 13.95 0.0034172C14.0644 -0.0121389 14.0843 0.0241587 14.0619 0.138237C13.8679 1.12864 13.8953 2.11645 14.1788 3.08612C14.7136 4.92692 15.8279 6.25697 17.5118 7.05552C17.6262 7.10996 17.656 7.15404 17.6137 7.28108C17.4023 7.93184 17.1984 8.58261 16.9994 9.23596C16.9646 9.35004 16.9297 9.37597 16.8153 9.33449C16.0493 9.07003 15.2782 8.81336 14.5096 8.55409C13.5147 8.21963 12.4801 8.57742 11.8657 9.45893C11.3931 10.1382 10.9156 10.8123 10.448 11.4942C10.3833 11.5875 10.3485 11.5849 10.2664 11.5227C9.73164 11.1131 9.1944 10.706 8.65467 10.3016C8.56512 10.2341 8.5502 10.1875 8.60989 10.0812C9.96047 7.70887 9.62469 4.64951 7.79905 2.65833C7.6722 2.5261 7.54535 2.39387 7.41602 2.25127Z" fill="#EDA225"/>
<path d="M0.0332031 16.6847C0.0332031 16.1792 0.0332031 15.6762 0.0332031 15.1706C0.0481266 14.4654 0.140155 13.7706 0.254568 13.0783C0.291877 12.8579 0.349084 12.6427 0.378931 12.4198C0.398829 12.2668 0.451061 12.2927 0.548064 12.3498C1.27931 12.7827 2.06528 13.042 2.90349 13.1172C3.96306 13.2131 4.98531 13.0446 5.95534 12.5779C6.7239 12.2098 7.39048 11.6964 7.94514 11.0301C8.00235 10.9627 8.04214 10.9471 8.11676 11.0042C8.66395 11.4242 9.21363 11.839 9.7658 12.2538C9.85286 12.3187 9.85037 12.3653 9.79068 12.4509C9.31064 13.1302 8.83806 13.8146 8.363 14.4991C7.75362 15.378 7.74616 16.4903 8.35056 17.3718C8.82065 18.0589 9.2982 18.7381 9.77824 19.4174C9.84788 19.5159 9.84042 19.5626 9.74342 19.6326C9.20617 20.0319 8.6739 20.4364 8.14412 20.846C8.0496 20.9186 8.00483 20.9056 7.93022 20.8175C6.96765 19.6974 5.7688 19.0156 4.3436 18.7926C3.01541 18.5852 1.75935 18.8315 0.580398 19.503C0.416239 19.5963 0.413752 19.5989 0.373956 19.4019C0.187413 18.5074 0.0555884 17.6051 0.0332031 16.6847Z" fill="#EDA225"/>
<path d="M29.5265 9.74407C28.3699 9.86852 27.3352 10.2782 26.4323 11.0171C25.1265 12.0879 24.358 13.4827 24.1491 15.2043C24.1167 15.4739 24.1192 15.4739 23.8556 15.4739C23.2362 15.4739 22.6144 15.4687 21.9951 15.4765C21.8658 15.4791 21.8409 15.4376 21.8409 15.3106C21.8459 14.4887 21.8434 13.6642 21.8434 12.8423C21.8434 11.7171 21.2017 10.8019 20.1744 10.4571C19.4183 10.203 18.6672 9.94371 17.911 9.68963C17.819 9.65851 17.7817 9.63518 17.819 9.5211C18.0329 8.85478 18.2418 8.18846 18.4458 7.51955C18.4732 7.42621 18.5005 7.40547 18.6025 7.42621C20.5823 7.84882 22.3458 7.37436 23.8779 6.00024C24.4973 5.4454 24.9649 4.76871 25.3131 4.00128C25.3976 3.8146 25.3977 3.8146 25.5419 3.94942C27.2507 5.52837 28.5565 7.41066 29.4693 9.5937C29.4867 9.64037 29.5016 9.68444 29.5265 9.74407Z" fill="#EDA225"/>
<path d="M13.7766 12.3783C12.9608 12.3783 12.3066 11.7016 12.3066 10.8564C12.3066 10.0164 12.9732 9.32413 13.7766 9.32931C14.58 9.33191 15.2366 10.0164 15.2391 10.8486C15.2391 11.6938 14.585 12.3783 13.7766 12.3783Z" fill="#EDA226"/>
<path d="M20.9751 12.8009C20.9751 13.6409 20.3184 14.3202 19.5151 14.3176C18.7067 14.315 18.0327 13.615 18.0451 12.7879C18.0575 11.9375 18.7191 11.2505 19.5175 11.2609C20.3284 11.2686 20.9751 11.9531 20.9751 12.8009Z" fill="#EDA226"/>
<path d="M10.2282 17.4729C9.42232 17.4703 8.75823 16.7703 8.76569 15.9355C8.77564 15.098 9.43227 14.4162 10.2307 14.4136C11.0415 14.4136 11.7031 15.111 11.6982 15.9614C11.6932 16.7937 11.0291 17.4755 10.2282 17.4729Z" fill="#EDA226"/>
<path d="M20.9806 19.0777C20.9806 19.9281 20.3339 20.5997 19.5156 20.5997C18.7122 20.5997 18.0655 19.923 18.0606 19.0777C18.0556 18.2273 18.7172 17.5429 19.538 17.5481C20.3414 17.5532 20.9806 18.2299 20.9806 19.0777Z" fill="#EDA226"/>
<path d="M13.7812 22.5416C12.9579 22.5416 12.3262 21.8753 12.3262 21.0119C12.3262 20.1719 12.9778 19.4978 13.7887 19.5004C14.597 19.503 15.2437 20.1797 15.2437 21.0223C15.2487 21.8805 14.6095 22.5416 13.7812 22.5416Z" fill="#EDA226"/>
</svg>
