<svg width="16" height="16" viewBox="0 0 16 16" fill="none" xmlns="http://www.w3.org/2000/svg">
<path d="M7.54498 16C7.40076 15.9805 7.25789 15.9597 7.11368 15.9402C6.2915 15.8257 5.50572 15.5928 4.75498 15.2506C4.50293 15.1361 4.25763 15.0086 4.01367 14.8655C4.16463 14.7236 4.31154 14.5857 4.43554 14.4283C4.93828 13.7894 5.15933 13.0686 5.10137 12.2711C5.06633 11.7923 4.91806 11.3447 4.66063 10.9322C4.63233 10.8867 4.63502 10.8646 4.6795 10.8334C4.97737 10.6278 5.27254 10.4209 5.56637 10.2114C5.6122 10.1789 5.63376 10.1841 5.66611 10.227C5.92759 10.577 6.18907 10.9257 6.45459 11.2718C6.78076 11.6973 7.33472 11.869 7.85768 11.7077C8.2782 11.5789 8.69737 11.4475 9.1152 11.3148C9.17181 11.2965 9.19472 11.307 9.21224 11.3616C9.32007 11.6921 9.43059 12.0226 9.54516 12.3517C9.56403 12.4077 9.55055 12.4272 9.49933 12.4506C8.53833 12.8696 7.92237 13.5748 7.65146 14.5558C7.52746 15.0073 7.52342 15.464 7.61642 15.9219C7.62181 15.9467 7.62181 15.974 7.6245 15.9987C7.59889 16 7.57194 16 7.54498 16Z" fill="#EDA225"/>
<path d="M0 7.60794C0.00539131 7.60924 0.0121305 7.61184 0.0175218 7.61314C0.0175218 7.86686 0.0175218 8.11927 0.0175218 8.37299C0.0121305 8.37429 0.00539131 8.37559 0 8.37689C0 8.12057 0 7.86426 0 7.60794Z" fill="#EDA227"/>
<path d="M15.9987 11.1079C15.9152 11.3109 15.8195 11.5034 15.7171 11.6921C15.2345 12.5846 14.6024 13.3627 13.822 14.0314C13.7748 14.0718 13.7573 14.0718 13.729 14.0132C13.2654 13.0751 12.5038 12.4909 11.4566 12.2594C11.0104 12.1605 10.5589 12.1657 10.1114 12.262C10.0413 12.2776 10.0103 12.2711 9.98609 12.1969C9.885 11.8807 9.77583 11.5659 9.6707 11.251C9.63565 11.1469 9.637 11.1469 9.74752 11.1118C10.1532 10.9843 10.5603 10.8581 10.966 10.7293C11.4984 10.5588 11.8394 10.1008 11.8394 9.56088C11.8394 9.15103 11.8394 8.73988 11.8394 8.33004C11.8394 8.22205 11.8407 8.22205 11.9499 8.22205C12.299 8.22335 12.6494 8.22595 12.9985 8.22465C13.051 8.22465 13.0713 8.23376 13.078 8.2897C13.1535 9.01051 13.4473 9.63764 13.9703 10.1594C14.4986 10.6876 15.1429 10.9973 15.8977 11.0923C15.9287 11.0962 15.961 11.1027 15.9987 11.1079Z" fill="#EDA225"/>
<path d="M4.01953 1.12977C4.17857 1.03218 4.34436 0.946311 4.51149 0.86174C5.37545 0.432378 6.29062 0.159148 7.25432 0.0355434C7.35675 0.0225324 7.45919 0.0160269 7.56028 0.00171487C7.62228 -0.00609171 7.63306 0.0121236 7.62093 0.0693719C7.5158 0.566391 7.53062 1.06211 7.68428 1.54872C7.97406 2.4725 8.57789 3.13996 9.49037 3.5407C9.55237 3.56802 9.56854 3.59014 9.54563 3.65389C9.43106 3.98047 9.32054 4.30704 9.21271 4.63492C9.19384 4.69217 9.17497 4.70518 9.11297 4.68436C8.69784 4.55165 8.28002 4.42284 7.86354 4.29273C7.32441 4.12489 6.76371 4.30444 6.4308 4.74682C6.17471 5.0877 5.91592 5.42599 5.66253 5.76818C5.62749 5.81502 5.60862 5.81372 5.56414 5.78249C5.27436 5.57692 4.98323 5.37264 4.69075 5.16967C4.64223 5.13584 4.63414 5.11242 4.66649 5.05908C5.39836 3.86858 5.2164 2.33328 4.2271 1.33404C4.15836 1.26768 4.08962 1.20133 4.01953 1.12977Z" fill="#EDA225"/>
<path d="M0.0175781 8.37296C0.0175781 8.11925 0.0175781 7.86684 0.0175781 7.61312C0.0256651 7.25922 0.0755347 6.91053 0.137535 6.56314C0.157752 6.45254 0.188752 6.34455 0.204926 6.23266C0.215709 6.15589 0.244013 6.1689 0.296579 6.19753C0.69284 6.41481 1.11875 6.54492 1.57297 6.58265C2.14715 6.63079 2.7011 6.54622 3.22676 6.31202C3.64324 6.12727 4.00445 5.86965 4.30502 5.53527C4.33602 5.50144 4.35758 5.49363 4.39802 5.52226C4.69454 5.73304 4.99241 5.94121 5.29163 6.14939C5.3388 6.18191 5.33746 6.20533 5.30511 6.24827C5.04498 6.58916 4.78889 6.93265 4.53145 7.27614C4.20124 7.71721 4.19719 8.27538 4.52471 8.71775C4.77945 9.06254 5.03824 9.40343 5.29837 9.74432C5.33611 9.79376 5.33206 9.81718 5.2795 9.85231C4.98837 10.0527 4.69993 10.2557 4.41285 10.4612C4.36163 10.4977 4.33737 10.4911 4.29693 10.4469C3.77532 9.88484 3.12567 9.54265 2.35336 9.43075C1.63362 9.32667 0.952971 9.45027 0.3141 9.78726C0.225144 9.83409 0.223796 9.8354 0.202231 9.73651C0.101143 9.28763 0.0297086 8.83485 0.0175781 8.37296Z" fill="#EDA225"/>
<path d="M16.0004 4.88992C15.3737 4.95237 14.813 5.15795 14.3237 5.52876C13.6161 6.06611 13.1996 6.7661 13.0864 7.63003C13.0689 7.76534 13.0702 7.76534 12.9274 7.76534C12.5918 7.76534 12.2548 7.76274 11.9192 7.76664C11.8491 7.76795 11.8356 7.74713 11.8356 7.68337C11.8383 7.27093 11.837 6.85718 11.837 6.44473C11.837 5.88005 11.4892 5.42077 10.9326 5.24772C10.5229 5.12021 10.1158 4.9901 9.70607 4.8626C9.6562 4.84698 9.63598 4.83527 9.6562 4.77802C9.77211 4.44364 9.88533 4.10926 9.99585 3.77358C10.0107 3.72674 10.0255 3.71633 10.0808 3.72674C11.1536 3.93882 12.1092 3.70072 12.9395 3.01113C13.2751 2.7327 13.5285 2.39311 13.7172 2.00799C13.763 1.91431 13.763 1.91431 13.8412 1.98197C14.7672 2.77434 15.4748 3.71893 15.9694 4.81446C15.9789 4.83788 15.9869 4.85999 16.0004 4.88992Z" fill="#EDA225"/>
<path d="M7.46649 6.21187C7.0244 6.21187 6.66992 5.87228 6.66992 5.44812C6.66992 5.02657 7.03114 4.67918 7.46649 4.68178C7.90184 4.68308 8.25766 5.02657 8.25901 5.44422C8.25901 5.86838 7.90453 6.21187 7.46649 6.21187Z" fill="#EDA226"/>
<path d="M11.3671 6.42394C11.3671 6.8455 11.0113 7.18638 10.576 7.18508C10.1379 7.18378 9.77265 6.83249 9.77939 6.41744C9.78613 5.99068 10.1446 5.64589 10.5773 5.65109C11.0167 5.65499 11.3671 5.99848 11.3671 6.42394Z" fill="#EDA226"/>
<path d="M5.54256 8.76851C5.10586 8.76721 4.74599 8.41591 4.75003 7.99696C4.75543 7.5767 5.11125 7.23452 5.5439 7.23322C5.9833 7.23322 6.34182 7.58321 6.33912 8.00997C6.33643 8.42762 5.97656 8.76981 5.54256 8.76851Z" fill="#EDA226"/>
<path d="M11.3695 9.57388C11.3695 10.0006 11.019 10.3376 10.5756 10.3376C10.1403 10.3376 9.78982 9.99803 9.78712 9.57388C9.78443 9.14712 10.143 8.80363 10.5877 8.80623C11.0231 8.80883 11.3695 9.14842 11.3695 9.57388Z" fill="#EDA226"/>
<path d="M7.46817 11.3121C7.02204 11.3121 6.67969 10.9778 6.67969 10.5445C6.67969 10.1229 7.03282 9.78465 7.47221 9.78595C7.91025 9.78725 8.26069 10.1268 8.26069 10.5497C8.26339 10.9804 7.91699 11.3121 7.46817 11.3121Z" fill="#EDA226"/>
</svg>
