<svg width="512" height="512" viewBox="0 0 1321 434" fill="none" xmlns="http://www.w3.org/2000/svg">
<g clip-path="url(#clip0)">
<path d="M1121.02 86.5049L1071.07 115.342L1096.05 129.763L1121.02 115.347V86.5049ZM1121.02 86.5049L1071.07 57.677L1121.02 28.8443V86.5049Z" fill="#CEDC00"/>
<path d="M1121.02 86.5048L1071.07 115.342L1021.13 86.5048L1071.07 57.6768L1121.02 86.5048Z" fill="#0082CA"/>
<path d="M1320.79 28.8466L1270.83 -5.34058e-05V57.6838L1320.79 28.8466Z" fill="#E63323"/>
<path d="M998.88 373.554L895.091 313.629V433.47L998.88 373.554ZM1021.13 144.179L1071.07 115.342L1021.13 86.5044V144.179ZM1021.13 28.8438V86.5044L1071.07 57.6764L1021.13 28.8438ZM1121.02 259.514V173.012L1170.96 201.849V86.5091L1121.02 115.346V86.5044V28.8438L1320.79 144.179L1121.02 259.514Z" fill="#08BEC9"/>
<path d="M753.777 338.09V289.156L796.164 313.628L753.777 338.09ZM946.99 144.182V86.4984L996.948 115.345L946.99 144.182ZM132.146 154.321H154.386V171.775H132.146V154.321ZM95.9705 154.321H118.21V171.775H95.9705V154.321ZM145.444 259.424L142.146 249.066C141.395 250.571 135.394 260.92 119.347 260.92C104.949 260.92 87.9097 253.12 87.9097 228.374V184.91H110.252V228.518C110.252 239.612 116.248 244.575 124.048 244.575C134.248 244.575 140.492 236.472 140.492 225.671V184.91H162.447V259.424H145.444ZM81.1628 144.182V163.463H52.1158V259.517H29.0516V163.463H0V144.182H81.1628ZM208.594 173.84L208.515 186.448C213.785 175.573 221.887 173.02 237.044 173.02V194.761H234.244C219.744 194.761 209.367 202.011 209.367 220.476V259.517H187.123V173.84H208.594ZM465.52 144.182V163.463H436.478V259.517H413.414V163.463H384.362V144.182H465.52ZM830.615 244.165C815.374 244.165 803.008 231.803 803.008 216.553C803.008 201.298 815.374 188.946 830.615 188.946C845.87 188.946 858.227 201.298 858.227 216.553C858.227 231.803 845.87 244.165 830.615 244.165ZM830.615 167.941C803.772 167.941 782.022 189.705 782.022 216.553C782.022 243.4 803.772 265.169 830.615 265.169C857.472 265.169 879.241 243.4 879.241 216.553C879.241 189.705 857.472 167.941 830.615 167.941ZM911.904 173.84L915.529 185.204C919.149 177.791 929.531 172.19 939.25 172.19C949.301 172.19 958.862 178.122 962.813 187.515C967.1 179.114 976.321 172.19 990.486 172.19C1008.12 172.19 1021.13 183.065 1021.13 207.942V259.517H998.882V206.465C998.882 197.724 995.42 190.148 985.048 190.148C974.028 190.148 969.234 198.884 969.234 210.09V259.517H946.994V205.305C946.994 197.724 943.374 190.148 933.319 190.148C922.281 190.148 917.337 198.884 917.337 209.918V259.517H895.088V173.84H911.904ZM725 140.483L725.023 211.567L753.618 173.84H780.135L746.196 214.051L778.649 259.517H753.777L733.34 229.692L725.102 238.923V259.517H702.868V152.993L725 140.483ZM276.393 140.483L276.412 211.567L304.998 173.84H331.529L297.585 214.051L330.047 259.517H305.161L284.738 229.692L276.496 238.923V259.517H254.261V152.993L276.393 140.483ZM646.651 172.19C671.691 172.19 686.695 188.834 686.695 214.703C686.695 219.493 686.201 223.439 686.201 223.439H625.563C626.551 236.956 638.413 243.046 650.44 243.046C658.351 243.046 668.728 240.898 674.99 237.604L682.562 253.744C673.341 258.697 660.327 261.172 649.95 261.172C620.787 261.172 602.163 243.209 602.163 217.009C602.163 190.646 620.293 172.19 646.651 172.19ZM665.271 208.608C665.103 198.712 659.507 190.152 647.97 190.152C635.776 190.152 627.538 196.252 625.237 208.608H665.271ZM579.271 140.571V236.29C579.271 241.061 582.071 243.209 587.01 243.209C588.166 243.209 590.635 242.879 592.28 242.552V259.517C587.84 260.342 582.235 261.172 577.123 261.172C566.747 261.172 557.027 257.22 557.027 237.767V152.993L579.271 140.571ZM500.028 172.19C525.068 172.19 540.057 188.834 540.057 214.703C540.057 219.493 539.568 223.439 539.568 223.439H478.939C479.927 236.956 491.79 243.046 503.811 243.046C511.723 243.046 522.095 240.898 528.362 237.604L535.943 253.744C526.713 258.697 513.699 261.172 503.318 261.172C474.159 261.172 455.544 243.209 455.544 217.009C455.544 190.646 473.665 172.19 500.028 172.19ZM518.642 208.608C518.479 198.712 512.874 190.152 501.342 190.152C489.153 190.152 480.915 196.252 478.604 208.608H518.642Z" fill="#001B55"/>
<path d="M1170.96 86.5095L1121.02 115.347V173.017L1170.96 201.849V86.5095Z" fill="#0082CA"/>
<path d="M1071.07 144.184L1121.02 173.016V115.346L1071.07 144.184Z" fill="#001B55"/>
</g>
<defs>
<clipPath id="clip0">
<rect width="1320.79" height="433.47" fill="white"/>
</clipPath>
</defs>
</svg>
