<svg xmlns="http://www.w3.org/2000/svg" xmlns:xlink="http://www.w3.org/1999/xlink" width="200" height="30" viewBox="0 0 200 30"><defs><clipPath id="b"><rect width="200" height="30"/></clipPath></defs><g id="a" clip-path="url(#b)"><g transform="translate(1.6 1.3)"><path d="M577.566,485c4.9,0,8.191,3,8.191,7.471v11.845h-5.131l-.077-1.974a6.969,6.969,0,0,1-5.257,2.313c-4.006,0-6.7-2.417-6.7-6.013,0-3.7,3.278-6.182,8.157-6.182a21.534,21.534,0,0,1,3.69.337c-.035-2.208-1.512-3.471-4.064-3.471a6.122,6.122,0,0,0-4.056,1.379l-.284.233-2.419-3.277.258-.209A11.571,11.571,0,0,1,577.566,485ZM504.9,479.982v5.359h5.4V489.8h-5.4v7.79a2.145,2.145,0,0,0,2.163,2.4,7.661,7.661,0,0,0,3.022-.583l.484-.2v4.488l-.216.089a12.647,12.647,0,0,1-4.785.875,5.728,5.728,0,0,1-5.984-6.114V489.8h-3.021V485.34h3.021v-5.359Zm13.121,5.359v11.1a3.589,3.589,0,0,0,7.178,0v-11.1h5.315v18.976h-5.135l-.052-1.7a7.428,7.428,0,0,1-5.313,2.042c-4.371,0-7.308-3.016-7.308-7.5V485.34Zm73.546,12.581a3.367,3.367,0,1,1-3.37,3.367A3.373,3.373,0,0,1,591.566,497.922ZM606.226,485a10.454,10.454,0,0,1,6.5,2.177l.285.222-3.073,3.667-.268-.23a4.9,4.9,0,0,0-3.371-1.205c-2.858,0-4.777,2.081-4.777,5.179,0,3.146,1.888,5.179,4.811,5.179a5.04,5.04,0,0,0,3.888-1.517l.266-.283,3.077,3.591-.229.227a9.91,9.91,0,0,1-7.205,2.647c-6.037,0-10.092-3.956-10.092-9.845C596.032,488.943,600.129,485,606.226,485Zm17.685,0c6.056,0,10.126,3.943,10.126,9.811,0,5.888-4.07,9.845-10.126,9.845-6.077,0-10.16-3.956-10.16-9.845C613.751,488.943,617.834,485,623.911,485Zm-65.338,0c4.574,0,7.648,3,7.648,7.471v11.845h-5.315v-11.1c0-2.179-1.542-3.585-3.929-3.585s-3.928,1.407-3.928,3.585v11.1h-5.315V485.34h5.135l.052,1.785A7.972,7.972,0,0,1,558.573,485Zm99.644,0c4.656,0,7.784,3,7.784,7.471v11.845h-5.315v-11.1a3.407,3.407,0,1,0-6.8,0v11.1h-5.315v-11.1a3.407,3.407,0,1,0-6.8,0v11.1h-5.315V485.34h5.135l.051,1.635A7.2,7.2,0,0,1,646.776,485a6.86,6.86,0,0,1,5.543,2.522A7.51,7.51,0,0,1,658.216,485Zm-113.169,0-.117,4.9,0,.041H544.6c-3.568,0-5.966,1.7-5.966,4.229h0v10.15h-5.315V485.34h5.136l.053,1.923a8.957,8.957,0,0,1,6.4-2.263h.139Zm-66.265,9.422a12.125,12.125,0,0,0,3.666,1.279c3,.623,6,1.257,9,1.856a11.949,11.949,0,0,0,2.206,3.095,1.25,1.25,0,0,0,.372.226,3.274,3.274,0,0,1-.456.009c-2.643-.382-5.284-.779-7.927-1.158a13.773,13.773,0,0,1-2.085-.39,5.9,5.9,0,0,1-3.331-2.529C479.742,496.017,479.28,495.208,478.783,494.423Zm98.545,1.89c-1.954,0-3.215.875-3.215,2.228s.912,2.128,2.5,2.128a3.945,3.945,0,0,0,3.816-4.046A17.688,17.688,0,0,0,577.328,496.313Zm46.583-6.681c-2.84,0-4.675,2.033-4.675,5.179s1.835,5.179,4.675,5.179c2.819,0,4.641-2.033,4.641-5.179S626.73,489.632,623.911,489.632ZM470,478q9.65,4.548,19.3,9.086c1.833.941,3.641,2.37,4.2,4.439a7.739,7.739,0,0,0,1.887,3.562,4.691,4.691,0,0,0,1.169.8h0v2.836h0l-.169-.042a7.2,7.2,0,0,1-3.456-1.979,7.742,7.742,0,0,1-1.745-3.328,5.975,5.975,0,0,0-3.322-3.473,15.128,15.128,0,0,0-2.529-.82c-2.2-.61-4.4-1.205-6.6-1.816a12.288,12.288,0,0,1-6.7-5.428C471.326,480.578,470.656,479.292,470,478Zm4.636,8.729a12.344,12.344,0,0,0,3.874,1.961c2.627.722,5.258,1.434,7.883,2.165a5.587,5.587,0,0,1,3.162,2.321,5.3,5.3,0,0,1,.448,1.191,13.421,13.421,0,0,0,.653,1.593c-2.937-.574-5.859-1.236-8.793-1.829a10.035,10.035,0,0,1-4.2-2.233,4.948,4.948,0,0,1-1-1.321C475.989,489.294,475.291,488.024,474.636,486.729Z" transform="translate(-470 -478)" fill="#ff3200" fill-rule="evenodd"/></g></g></svg>