<svg width="140" height="38" viewBox="0 0 140 38" fill="none" xmlns="http://www.w3.org/2000/svg">
<ellipse cx="18.4104" cy="18.624" rx="18.3528" ry="18.3951" fill="#75BF1E"/>
<path d="M10.6016 18.2498H12.1172C13.0695 18.2352 13.8182 17.9839 14.3634 17.4957C14.9086 17.0075 15.1812 16.3482 15.1812 15.5176C15.1812 13.6523 14.2543 12.7197 12.4007 12.7197C11.5284 12.7197 10.8305 12.9711 10.3072 13.4738C9.79104 13.9693 9.53298 14.6287 9.53298 15.452H7.51577C7.51577 14.1915 7.97373 13.146 8.88966 12.3154C9.81285 11.4775 10.9832 11.0585 12.4007 11.0585C13.8982 11.0585 15.0721 11.4556 15.9226 12.2498C16.7731 13.044 17.1984 14.1478 17.1984 15.5613C17.1984 16.2534 16.973 16.9238 16.5223 17.5722C16.0789 18.2207 15.4719 18.7052 14.7014 19.0258C15.5737 19.3026 16.2461 19.7616 16.7186 20.4028C17.1984 21.044 17.4383 21.8272 17.4383 22.7525C17.4383 24.1806 16.973 25.3136 16.0426 26.1515C15.1121 26.9893 13.9018 27.4083 12.4116 27.4083C10.9214 27.4083 9.70744 27.0039 8.76971 26.1952C7.83925 25.3864 7.37402 24.319 7.37402 22.993H9.40214C9.40214 23.8309 9.67473 24.5012 10.2199 25.0039C10.7651 25.5066 11.4957 25.758 12.4116 25.758C13.3857 25.758 14.1308 25.503 14.6469 24.993C15.163 24.483 15.4211 23.7507 15.4211 22.7963C15.4211 21.8709 15.1376 21.1606 14.5706 20.6651C14.0036 20.1697 13.1858 19.9146 12.1172 19.9001H10.6016V18.2498Z" fill="white"/>
<path d="M23.141 18.2498H24.6566C25.6089 18.2352 26.3576 17.9839 26.9028 17.4957C27.448 17.0075 27.7206 16.3482 27.7206 15.5176C27.7206 13.6523 26.7938 12.7197 24.9401 12.7197C24.0678 12.7197 23.37 12.9711 22.8466 13.4738C22.3305 13.9693 22.0724 14.6287 22.0724 15.452H20.0552C20.0552 14.1915 20.5131 13.146 21.4291 12.3154C22.3523 11.4775 23.5226 11.0585 24.9401 11.0585C26.4376 11.0585 27.6115 11.4556 28.462 12.2498C29.3125 13.044 29.7378 14.1478 29.7378 15.5613C29.7378 16.2534 29.5124 16.9238 29.0618 17.5722C28.6183 18.2207 28.0113 18.7052 27.2408 19.0258C28.1131 19.3026 28.7855 19.7616 29.258 20.4028C29.7378 21.044 29.9777 21.8272 29.9777 22.7525C29.9777 24.1806 29.5124 25.3136 28.582 26.1515C27.6515 26.9893 26.4412 27.4083 24.951 27.4083C23.4608 27.4083 22.2469 27.0039 21.3091 26.1952C20.3787 25.3864 19.9134 24.319 19.9134 22.993H21.9415C21.9415 23.8309 22.2141 24.5012 22.7593 25.0039C23.3045 25.5066 24.0351 25.758 24.951 25.758C25.9251 25.758 26.6702 25.503 27.1863 24.993C27.7024 24.483 27.9605 23.7507 27.9605 22.7963C27.9605 21.8709 27.677 21.1606 27.11 20.6651C26.543 20.1697 25.7252 19.9146 24.6566 19.9001H23.141V18.2498Z" fill="white"/>
<path d="M53.3916 20.7373C53.292 22.1143 52.7822 23.1982 51.8623 23.9893C50.9482 24.7803 49.7412 25.1758 48.2412 25.1758C46.6006 25.1758 45.3086 24.625 44.3652 23.5234C43.4277 22.416 42.959 20.8984 42.959 18.9707V18.1885C42.959 16.958 43.1758 15.874 43.6094 14.9365C44.043 13.999 44.6611 13.2812 45.4639 12.7832C46.2725 12.2793 47.21 12.0273 48.2764 12.0273C49.7529 12.0273 50.9424 12.4229 51.8447 13.2139C52.7471 14.0049 53.2686 15.1152 53.4092 16.5449H50.7725C50.708 15.7188 50.4766 15.1211 50.0781 14.752C49.6855 14.377 49.085 14.1895 48.2764 14.1895C47.3975 14.1895 46.7383 14.5059 46.2988 15.1387C45.8652 15.7656 45.6426 16.7412 45.6309 18.0654V19.0322C45.6309 20.415 45.8389 21.4258 46.2549 22.0645C46.6768 22.7031 47.3389 23.0225 48.2412 23.0225C49.0557 23.0225 49.6621 22.8379 50.0605 22.4688C50.4648 22.0938 50.6963 21.5166 50.7549 20.7373H53.3916ZM65.6348 18.8916C65.6348 20.1514 65.4121 21.2559 64.9668 22.2051C64.5215 23.1543 63.8828 23.8867 63.0508 24.4023C62.2246 24.918 61.2754 25.1758 60.2031 25.1758C59.1426 25.1758 58.1963 24.9209 57.3643 24.4111C56.5322 23.9014 55.8877 23.1748 55.4307 22.2314C54.9736 21.2822 54.7422 20.1924 54.7363 18.9619V18.3291C54.7363 17.0693 54.9619 15.9619 55.4131 15.0068C55.8701 14.0459 56.5117 13.3105 57.3379 12.8008C58.1699 12.2852 59.1191 12.0273 60.1855 12.0273C61.252 12.0273 62.1982 12.2852 63.0244 12.8008C63.8564 13.3105 64.498 14.0459 64.9492 15.0068C65.4062 15.9619 65.6348 17.0664 65.6348 18.3203V18.8916ZM62.9629 18.3115C62.9629 16.9697 62.7227 15.9502 62.2422 15.2529C61.7617 14.5557 61.0762 14.207 60.1855 14.207C59.3008 14.207 58.6182 14.5527 58.1377 15.2441C57.6572 15.9297 57.4141 16.9375 57.4082 18.2676V18.8916C57.4082 20.1982 57.6484 21.2119 58.1289 21.9326C58.6094 22.6533 59.3008 23.0137 60.2031 23.0137C61.0879 23.0137 61.7676 22.668 62.2422 21.9766C62.7168 21.2793 62.957 20.2656 62.9629 18.9355V18.3115ZM77.2363 12.2031V20.6318C77.2363 22.0322 76.7969 23.1396 75.918 23.9541C75.0449 24.7686 73.8496 25.1758 72.332 25.1758C70.8379 25.1758 69.6514 24.7803 68.7725 23.9893C67.8936 23.1982 67.4453 22.1113 67.4277 20.7285V12.2031H70.0645V20.6494C70.0645 21.4873 70.2637 22.0996 70.6621 22.4863C71.0664 22.8672 71.623 23.0576 72.332 23.0576C73.8145 23.0576 74.5674 22.2783 74.5908 20.7197V12.2031H77.2363ZM89.8047 25H87.168L82.0352 16.5801V25H79.3984V12.2031H82.0352L87.1768 20.6406V12.2031H89.8047V25ZM101.477 14.3389H97.5566V25H94.9199V14.3389H91.0527V12.2031H101.477V14.3389ZM107.726 20.3154H105.625V25H102.988V12.2031H107.743C109.255 12.2031 110.421 12.54 111.241 13.2139C112.062 13.8877 112.472 14.8398 112.472 16.0703C112.472 16.9434 112.281 17.6729 111.9 18.2588C111.525 18.8389 110.954 19.3018 110.187 19.6475L112.955 24.877V25H110.125L107.726 20.3154ZM105.625 18.1797H107.752C108.414 18.1797 108.927 18.0127 109.29 17.6787C109.653 17.3389 109.835 16.873 109.835 16.2812C109.835 15.6777 109.662 15.2031 109.316 14.8574C108.977 14.5117 108.452 14.3389 107.743 14.3389H105.625V18.1797ZM117.288 25H114.651V12.2031H117.288V25ZM127.439 19.4541H122.377V22.8818H128.318V25H119.74V12.2031H128.301V14.3389H122.377V17.3887H127.439V19.4541ZM136.501 21.6426C136.501 21.1445 136.325 20.7637 135.974 20.5C135.622 20.2305 134.989 19.9492 134.075 19.6562C133.161 19.3574 132.438 19.0645 131.904 18.7773C130.451 17.9922 129.725 16.9346 129.725 15.6045C129.725 14.9131 129.918 14.2979 130.305 13.7588C130.697 13.2139 131.257 12.7891 131.983 12.4844C132.716 12.1797 133.536 12.0273 134.444 12.0273C135.358 12.0273 136.173 12.1943 136.888 12.5283C137.603 12.8564 138.156 13.3223 138.549 13.9258C138.947 14.5293 139.146 15.2148 139.146 15.9824H136.51C136.51 15.3965 136.325 14.9424 135.956 14.6201C135.587 14.292 135.068 14.1279 134.4 14.1279C133.756 14.1279 133.255 14.2656 132.897 14.541C132.54 14.8105 132.361 15.168 132.361 15.6133C132.361 16.0293 132.569 16.3779 132.985 16.6592C133.407 16.9404 134.025 17.2041 134.84 17.4502C136.34 17.9014 137.433 18.4609 138.118 19.1289C138.804 19.7969 139.146 20.6289 139.146 21.625C139.146 22.7324 138.728 23.6025 137.89 24.2354C137.052 24.8623 135.924 25.1758 134.506 25.1758C133.521 25.1758 132.625 24.9971 131.816 24.6396C131.008 24.2764 130.39 23.7812 129.962 23.1543C129.54 22.5273 129.329 21.8008 129.329 20.9746H131.975C131.975 22.3867 132.818 23.0928 134.506 23.0928C135.133 23.0928 135.622 22.9668 135.974 22.7148C136.325 22.457 136.501 22.0996 136.501 21.6426Z" fill="#75BF1E"/>
</svg>
