<svg width="192" height="38" viewBox="0 0 192 38" fill="none" xmlns="http://www.w3.org/2000/svg">
<ellipse cx="28.8762" cy="18.624" rx="18.3528" ry="18.3951" fill="#EDA225"/>
<path d="M15.8853 18.8875H16.6431C17.1192 18.8802 17.4936 18.7545 17.7662 18.5105C18.0388 18.2664 18.1751 17.9367 18.1751 17.5214C18.1751 16.5888 17.7116 16.1225 16.7848 16.1225C16.3487 16.1225 15.9997 16.2482 15.738 16.4995C15.48 16.7472 15.351 17.0769 15.351 17.4886H14.3424C14.3424 16.8584 14.5713 16.3356 15.0293 15.9203C15.4909 15.5013 16.0761 15.2919 16.7848 15.2919C17.5335 15.2919 18.1205 15.4904 18.5458 15.8875C18.971 16.2846 19.1837 16.8365 19.1837 17.5432C19.1837 17.8893 19.071 18.2245 18.8456 18.5487C18.6239 18.8729 18.3204 19.1152 17.9352 19.2755C18.3713 19.4139 18.7075 19.6434 18.9438 19.964C19.1837 20.2846 19.3036 20.6762 19.3036 21.1389C19.3036 21.8529 19.071 22.4194 18.6058 22.8383C18.1405 23.2573 17.5354 23.4667 16.7903 23.4667C16.0452 23.4667 15.4382 23.2646 14.9693 22.8602C14.5041 22.4558 14.2715 21.9221 14.2715 21.2591H15.2855C15.2855 21.678 15.4218 22.0132 15.6944 22.2646C15.967 22.5159 16.3323 22.6416 16.7903 22.6416C17.2773 22.6416 17.6499 22.5141 17.9079 22.2591C18.166 22.0041 18.295 21.638 18.295 21.1607C18.295 20.6981 18.1532 20.3429 17.8697 20.0952C17.5862 19.8474 17.1774 19.7199 16.6431 19.7126H15.8853V18.8875Z" fill="white"/>
<path d="M21.1518 19.3684L21.5552 15.4012H25.6224V16.3356H22.4112L22.1713 18.505C22.5602 18.2755 23.0018 18.1607 23.4961 18.1607C24.2194 18.1607 24.7937 18.4012 25.2189 18.882C25.6442 19.3593 25.8568 20.0059 25.8568 20.8219C25.8568 21.6416 25.6351 22.2882 25.1917 22.7618C24.7519 23.2318 24.1358 23.4667 23.3435 23.4667C22.642 23.4667 22.0695 23.2718 21.6261 22.882C21.1827 22.4922 20.9301 21.9531 20.8683 21.2646H21.8224C21.8842 21.7199 22.0459 22.0642 22.3076 22.2973C22.5693 22.5269 22.9146 22.6416 23.3435 22.6416C23.8123 22.6416 24.1794 22.4813 24.4448 22.1607C24.7137 21.8401 24.8482 21.3975 24.8482 20.8329C24.8482 20.301 24.7028 19.8748 24.412 19.5542C24.1249 19.2299 23.7415 19.0678 23.2617 19.0678C22.8219 19.0678 22.4766 19.1644 22.2258 19.3574L21.9587 19.576L21.1518 19.3684Z" fill="white"/>
<path d="M31.9357 19.964C31.9357 21.148 31.734 22.0278 31.3305 22.6034C30.9271 23.1789 30.2965 23.4667 29.4387 23.4667C28.5919 23.4667 27.9649 23.1862 27.5578 22.6252C27.1507 22.0605 26.9399 21.219 26.9254 20.1006V18.7509C26.9254 17.5815 27.1271 16.7126 27.5305 16.1443C27.934 15.576 28.5664 15.2919 29.4278 15.2919C30.2819 15.2919 30.9107 15.5669 31.3142 16.117C31.7176 16.6635 31.9248 17.5086 31.9357 18.6525V19.964ZM30.9271 18.5815C30.9271 17.7254 30.8071 17.1024 30.5673 16.7126C30.3274 16.3192 29.9476 16.1225 29.4278 16.1225C28.9117 16.1225 28.5355 16.3174 28.2993 16.7072C28.063 17.097 27.9413 17.6962 27.934 18.505V20.1225C27.934 20.9822 28.0576 21.6179 28.3047 22.0296C28.5555 22.4376 28.9335 22.6416 29.4387 22.6416C29.9367 22.6416 30.3056 22.4485 30.5455 22.0624C30.789 21.6762 30.9162 21.0678 30.9271 20.2372V18.5815Z" fill="white"/>
<path d="M38.2054 19.964C38.2054 21.148 38.0037 22.0278 37.6002 22.6034C37.1968 23.1789 36.5662 23.4667 35.7084 23.4667C34.8616 23.4667 34.2346 23.1862 33.8275 22.6252C33.4204 22.0605 33.2096 21.219 33.1951 20.1006V18.7509C33.1951 17.5815 33.3968 16.7126 33.8002 16.1443C34.2037 15.576 34.8361 15.2919 35.6975 15.2919C36.5517 15.2919 37.1804 15.5669 37.5839 16.117C37.9873 16.6635 38.1945 17.5086 38.2054 18.6525V19.964ZM37.1968 18.5815C37.1968 17.7254 37.0769 17.1024 36.837 16.7126C36.5971 16.3192 36.2173 16.1225 35.6975 16.1225C35.1814 16.1225 34.8052 16.3174 34.569 16.7072C34.3327 17.097 34.211 17.6962 34.2037 18.505V20.1225C34.2037 20.9822 34.3273 21.6179 34.5744 22.0296C34.8252 22.4376 35.2032 22.6416 35.7084 22.6416C36.2064 22.6416 36.5753 22.4485 36.8152 22.0624C37.0587 21.6762 37.1859 21.0678 37.1968 20.2372V18.5815Z" fill="white"/>
<path d="M42.4906 19.0897H44.7041V20.046H42.4906V22.5596H41.4765V20.046H39.2631V19.0897H41.4765V16.7673H42.4906V19.0897Z" fill="white"/>
<path d="M65.3303 13.9552L68.6174 23.2365L71.8869 13.9552H75.3498V26.7521H72.7043V23.254L72.968 17.2159L69.5139 26.7521H67.7033L64.258 17.2247L64.5217 23.254V26.7521H61.885V13.9552H65.3303ZM85.3518 21.2062H80.2893V24.6339H86.2307V26.7521H77.6526V13.9552H86.2131V16.0909H80.2893V19.1407H85.3518V21.2062ZM91.2229 13.9552L94.51 23.2365L97.7795 13.9552H101.242V26.7521H98.5969V23.254L98.8606 17.2159L95.4065 26.7521H93.5959L90.1506 17.2247L90.4143 23.254V26.7521H87.7776V13.9552H91.2229ZM103.545 26.7521V13.9552H108.028C109.58 13.9552 110.758 14.254 111.561 14.8517C112.364 15.4435 112.765 16.3136 112.765 17.462C112.765 18.089 112.604 18.6427 112.281 19.1232C111.959 19.5978 111.511 19.9464 110.937 20.1691C111.593 20.3331 112.109 20.6642 112.484 21.1622C112.864 21.6603 113.055 22.2697 113.055 22.9904C113.055 24.2208 112.662 25.1525 111.877 25.7853C111.092 26.4181 109.973 26.7404 108.52 26.7521H103.545ZM106.182 21.1798V24.6339H108.441C109.062 24.6339 109.545 24.4874 109.891 24.1945C110.242 23.8956 110.418 23.4855 110.418 22.964C110.418 21.7921 109.812 21.1974 108.599 21.1798H106.182ZM106.182 19.3165H108.133C109.463 19.2931 110.128 18.7628 110.128 17.7257C110.128 17.1456 109.958 16.7296 109.618 16.4777C109.284 16.2198 108.754 16.0909 108.028 16.0909H106.182V19.3165ZM122.74 21.2062H117.678V24.6339H123.619V26.7521H115.041V13.9552H123.602V16.0909H117.678V19.1407H122.74V21.2062ZM129.904 22.0675H127.803V26.7521H125.166V13.9552H129.921C131.433 13.9552 132.599 14.2921 133.419 14.9659C134.239 15.6398 134.65 16.5919 134.65 17.8224C134.65 18.6954 134.459 19.4249 134.078 20.0109C133.703 20.5909 133.132 21.0538 132.364 21.3995L135.133 26.629V26.7521H132.303L129.904 22.0675ZM127.803 19.9318H129.93C130.592 19.9318 131.105 19.7648 131.468 19.4308C131.831 19.0909 132.013 18.6251 132.013 18.0333C132.013 17.4298 131.84 16.9552 131.494 16.6095C131.155 16.2638 130.63 16.0909 129.921 16.0909H127.803V19.9318ZM143.298 23.3947C143.298 22.8966 143.122 22.5157 142.771 22.2521C142.419 21.9825 141.786 21.7013 140.872 21.4083C139.958 21.1095 139.235 20.8165 138.701 20.5294C137.248 19.7443 136.522 18.6866 136.522 17.3566C136.522 16.6652 136.715 16.0499 137.102 15.5109C137.494 14.9659 138.054 14.5411 138.78 14.2365C139.513 13.9318 140.333 13.7794 141.241 13.7794C142.155 13.7794 142.97 13.9464 143.685 14.2804C144.4 14.6085 144.953 15.0743 145.346 15.6779C145.744 16.2814 145.944 16.9669 145.944 17.7345H143.307C143.307 17.1486 143.122 16.6945 142.753 16.3722C142.384 16.0441 141.865 15.88 141.197 15.88C140.553 15.88 140.052 16.0177 139.695 16.2931C139.337 16.5626 139.158 16.92 139.158 17.3654C139.158 17.7814 139.366 18.13 139.782 18.4113C140.204 18.6925 140.822 18.9562 141.637 19.2023C143.137 19.6534 144.23 20.213 144.915 20.881C145.601 21.549 145.944 22.381 145.944 23.3771C145.944 24.4845 145.525 25.3546 144.687 25.9874C143.849 26.6144 142.721 26.9279 141.303 26.9279C140.319 26.9279 139.422 26.7491 138.613 26.3917C137.805 26.0284 137.187 25.5333 136.759 24.9064C136.337 24.2794 136.126 23.5529 136.126 22.7267H138.772C138.772 24.1388 139.615 24.8448 141.303 24.8448C141.93 24.8448 142.419 24.7189 142.771 24.4669C143.122 24.2091 143.298 23.8517 143.298 23.3947Z" fill="#EDA125"/>
</svg>
