<svg width="169" height="104" viewBox="0 0 169 104" fill="none" xmlns="http://www.w3.org/2000/svg">
<path d="M12.6277 15.9669L11.9131 16.2353L31.4652 67.1886L32.1799 66.9202L12.6277 15.9669Z" fill="#587BC9"/>
<path d="M80.8565 95.3784C82.538 90.6885 80.0581 85.5382 75.3174 83.8747C70.5768 82.2113 65.3706 84.6646 63.6891 89.3545C62.0076 94.0443 64.4876 99.1946 69.2282 100.858C73.9689 102.522 79.1751 100.068 80.8565 95.3784Z" fill="#EDA125"/>
<path d="M71.8051 100.358C74.0328 100.501 76.1098 99.7358 77.6648 98.3854C77.4595 97.6227 77.2127 96.8773 76.9244 96.1751C76.4396 94.9932 75.5354 94.049 74.4347 93.5046C74.4434 93.4916 74.4543 93.4786 74.463 93.4657C74.9414 92.7051 75.0855 91.8215 75.0789 90.9594C75.0724 90.1405 74.9239 89.2957 74.4172 88.6043C73.9127 87.9129 72.991 87.4073 72.0431 87.4916C71.0254 87.5823 70.2042 88.3278 69.8569 89.1574C69.5097 89.9871 69.5446 90.8946 69.6123 91.7718C69.6626 92.4005 69.8351 93.04 70.1387 93.5737C69.4682 93.9734 68.8763 94.5611 68.3085 95.2827C67.7297 96.0217 67.7537 96.0562 67.389 96.9291C67.2099 97.3569 67.0308 97.802 66.8779 98.2881C68.1905 99.4722 69.8984 100.237 71.8051 100.358Z" fill="white"/>
<path d="M104.696 12.1752L58.2324 34.8045L58.5701 35.483L105.034 12.8537L104.696 12.1752Z" fill="#587BC9"/>
<path d="M59.5683 34.884L59.168 35.5283L108.012 65.2326L108.412 64.5884L59.5683 34.884Z" fill="#587BC9"/>
<path d="M152.542 29.1762L107.971 64.6096L108.45 65.1991L153.021 29.7656L152.542 29.1762Z" fill="#587BC9"/>
<path d="M77.304 34.6229C78.2252 25.857 71.7888 18.0121 62.9279 17.1008C54.067 16.1895 46.137 22.5569 45.2158 31.3228C44.2946 40.0887 50.731 47.9336 59.5919 48.8449C68.4528 49.7562 76.3828 43.3888 77.304 34.6229Z" fill="#EDA125"/>
<path d="M162.712 34.8564C165.718 29.4319 163.71 22.624 158.226 19.6505C152.743 16.6769 145.861 18.6637 142.856 24.0881C139.85 29.5125 141.858 36.3205 147.341 39.294C152.825 42.2676 159.706 40.2808 162.712 34.8564Z" fill="#EDA125"/>
<path d="M25.6308 17.6265C26.3251 10.9927 21.4519 5.05803 14.7462 4.3711C8.04046 3.68417 2.04149 8.5051 1.34711 15.1389C0.652743 21.7728 5.52592 27.7074 12.2317 28.3944C18.9374 29.0813 24.9364 24.2604 25.6308 17.6265Z" fill="#0270BB"/>
<path d="M112.427 17.2284C115.058 13.0905 113.8 7.62565 109.618 5.02235C105.435 2.41905 99.9109 3.66309 97.2794 7.80099C94.6479 11.9389 95.9054 17.4037 100.088 20.007C104.271 22.6103 109.795 21.3663 112.427 17.2284Z" fill="#75BF1E"/>
<path d="M124.435 76.2518C133.811 66.9772 133.811 51.9401 124.435 42.6654C115.06 33.3908 99.8601 33.3908 90.485 42.6654C81.1098 51.9401 81.1098 66.9772 90.485 76.2518C99.8601 85.5264 115.06 85.5264 124.435 76.2518Z" fill="#0270BB"/>
<path d="M32.1304 76.5779C39.558 75.6175 44.7923 68.8823 43.8215 61.5343C42.8507 54.1864 36.0425 49.0082 28.6149 49.9686C21.1873 50.9289 15.953 57.6642 16.9238 65.0121C17.8945 72.3601 24.7028 77.5383 32.1304 76.5779Z" fill="#75BF1E"/>
<path d="M13.0279 26.7717C15.9742 26.9596 18.7173 25.9485 20.7747 24.1638C20.5038 23.157 20.1784 22.1696 19.7962 21.2427C19.1541 19.6784 17.9594 18.4339 16.5049 17.7144C16.5158 17.6971 16.5311 17.6798 16.542 17.6625C17.1732 16.6579 17.3654 15.489 17.3567 14.3503C17.3479 13.2679 17.1514 12.1508 16.483 11.2391C15.8147 10.3251 14.5982 9.65533 13.3446 9.76768C11.9992 9.88868 10.916 10.8718 10.4551 11.9693C9.99431 13.0669 10.0424 14.2639 10.1319 15.4241C10.1974 16.256 10.4268 17.1008 10.8286 17.8051C9.94408 18.3345 9.16002 19.1101 8.4109 20.0651C7.6443 21.0439 7.67707 21.0893 7.1944 22.2409C6.95634 22.8069 6.72265 23.3946 6.51953 24.0385C8.24928 25.6006 10.5076 26.6118 13.0279 26.7717Z" fill="white"/>
</svg>
