<svg width="183" height="93" viewBox="0 0 183 93" fill="none" xmlns="http://www.w3.org/2000/svg">
<path d="M107.149 51.0525C107.149 52.5337 106.85 53.842 106.254 54.9773C105.657 56.1126 104.858 57.0475 103.85 57.7818C102.66 58.664 101.382 59.2881 100.021 59.654C98.6598 60.0199 96.9004 60.2054 94.7425 60.2054H85.6572V30.4133H94.0558C96.3089 30.4133 98.0007 30.4834 99.126 30.6238C100.254 30.7641 101.334 31.0925 102.369 31.6138C103.504 32.1877 104.332 32.9371 104.858 33.8619C105.382 34.7892 105.645 35.877 105.645 37.1301C105.645 38.5286 105.251 39.7817 104.467 40.887C103.68 41.9923 102.595 42.8594 101.206 43.4835V43.6439C103.096 44.1251 104.557 45.0023 105.595 46.278C106.632 47.5512 107.149 49.1427 107.149 51.0525ZM101.259 37.6915C101.259 36.9722 101.131 36.3506 100.878 35.8243C100.622 35.298 100.214 34.882 99.6473 34.5762C98.9681 34.2178 98.2112 33.9972 97.3766 33.917C96.542 33.8368 95.3891 33.7967 93.9179 33.7967H89.8878V42.5061H94.6623C95.9781 42.5061 96.9455 42.4434 97.5696 42.3156C98.1911 42.1903 98.8352 41.9271 99.5019 41.5261C100.139 41.1401 100.59 40.6339 100.86 40.0073C101.126 39.3832 101.259 38.6088 101.259 37.6915ZM102.763 51.2079C102.763 50.085 102.592 49.1602 102.251 48.4309C101.91 47.7016 101.224 47.0825 100.191 46.5763C99.5245 46.2429 98.8002 46.0274 98.0132 45.9346C97.2262 45.8419 96.1109 45.7943 94.6673 45.7943H89.8878V56.8219H93.3089C95.151 56.8219 96.6021 56.7417 97.6648 56.5813C98.7275 56.4209 99.6623 56.0801 100.469 55.5588C101.261 55.0375 101.843 54.446 102.211 53.7843C102.58 53.1227 102.763 52.263 102.763 51.2079Z" fill="#0071B9"/>
<path d="M111.352 60.2054V30.4133H131.184V33.9221H115.582V42.1H130.119V45.6088H115.582V56.6991H131.184V60.2079H111.352V60.2054Z" fill="#0071B9"/>
<path d="M144.647 60.7393C142.349 60.7393 140.397 60.5162 138.785 60.0701C137.176 59.624 135.662 59.0751 134.241 58.4235V53.4711H134.539C135.928 54.6966 137.504 55.644 139.261 56.3157C141.021 56.9874 142.715 57.3232 144.347 57.3232C146.672 57.3232 148.432 56.8671 149.622 55.9523C150.813 55.04 151.409 53.8345 151.409 52.3407C151.409 51.1528 151.096 50.1853 150.472 49.4385C149.848 48.6916 148.853 48.1377 147.492 47.7768C146.512 47.5111 145.617 47.2906 144.808 47.1176C143.998 46.9447 142.983 46.7116 141.763 46.4184C140.67 46.1527 139.69 45.8119 138.825 45.3983C137.958 44.9848 137.194 44.4459 136.527 43.7793C135.873 43.1251 135.367 42.3557 135.006 41.471C134.642 40.5838 134.462 39.5612 134.462 38.4008C134.462 35.9873 135.462 33.9647 137.467 32.3306C139.469 30.6965 142.026 29.8795 145.136 29.8795C146.91 29.8795 148.592 30.0474 150.176 30.3807C151.76 30.714 153.226 31.1877 154.575 31.8043V36.5537H154.254C153.244 35.6815 151.953 34.9221 150.377 34.2705C148.8 33.6213 147.144 33.2955 145.412 33.2955C143.452 33.2955 141.868 33.7266 140.66 34.5862C139.452 35.4459 138.848 36.5762 138.848 37.9772C138.848 39.2454 139.204 40.2529 139.913 40.9998C140.622 41.7467 141.652 42.2931 143.001 42.6414C143.895 42.8695 144.988 43.1251 146.279 43.4109C147.57 43.6966 148.642 43.9597 149.494 44.2003C151.68 44.8269 153.276 45.7743 154.284 47.0399C155.291 48.3056 155.795 49.867 155.795 51.7192C155.795 52.8796 155.542 54.0275 155.041 55.1603C154.537 56.2931 153.83 57.253 152.923 58.04C151.9 58.9072 150.748 59.5738 149.464 60.04C148.181 60.5037 146.575 60.7393 144.647 60.7393Z" fill="#0071B9"/>
<path d="M167.49 60.2054V33.9221H156.838V30.4133H182.372V33.9221H171.72V60.2054H167.49Z" fill="#0071B9"/>
<path d="M90.332 69.1377C90.332 69.4786 90.2669 69.7818 90.139 70.0425C90.0087 70.3031 89.8358 70.5187 89.6177 70.6891C89.3596 70.8921 89.0814 71.035 88.7882 71.1202C88.4924 71.2054 88.1115 71.248 87.6428 71.248H85.6729V64.3783H87.4949C87.9836 64.3783 88.3521 64.3933 88.5952 64.4259C88.8408 64.4585 89.0739 64.5337 89.2994 64.654C89.545 64.7868 89.7255 64.9597 89.8383 65.1728C89.9511 65.3858 90.0087 65.6364 90.0087 65.9272C90.0087 66.2505 89.9235 66.5387 89.7531 66.7943C89.5826 67.05 89.3471 67.248 89.0438 67.3933V67.4309C89.4523 67.5412 89.7681 67.7442 89.9937 68.0375C90.2192 68.3307 90.332 68.6966 90.332 69.1377ZM89.0613 66.0625C89.0613 65.8971 89.0338 65.7542 88.9786 65.6339C88.9235 65.5136 88.8333 65.4184 88.7105 65.3482C88.5626 65.2655 88.3972 65.2154 88.2167 65.1978C88.0363 65.1803 87.7831 65.1703 87.4648 65.1703H86.5876V67.1678H87.6277C87.9135 67.1678 88.124 67.1527 88.2593 67.1252C88.3947 67.0951 88.535 67.0349 88.6804 66.9447C88.8182 66.857 88.9185 66.7392 88.9761 66.5963C89.0338 66.451 89.0613 66.273 89.0613 66.0625ZM89.3821 69.1678C89.3821 68.9096 89.3445 68.6991 89.2719 68.5312C89.1992 68.3633 89.0488 68.2229 88.8232 68.1051C88.6779 68.0274 88.52 67.9798 88.3496 67.9573C88.1791 67.9372 87.936 67.9247 87.6227 67.9247H86.5851V70.4535H87.327C87.728 70.4535 88.0413 70.436 88.2719 70.3984C88.5024 70.3608 88.7054 70.2831 88.8809 70.1628C89.0538 70.0425 89.1791 69.9071 89.2593 69.7568C89.342 69.6064 89.3821 69.4109 89.3821 69.1678Z" fill="#0071B9"/>
<path d="M95.4422 68.6716C95.4422 69.5388 95.2342 70.208 94.8156 70.6792C94.3971 71.1504 93.8432 71.3859 93.149 71.3859C92.4322 71.3859 91.8708 71.1428 91.4597 70.6541C91.0487 70.1679 90.8457 69.5062 90.8457 68.6691C90.8457 67.8095 91.0562 67.1403 91.4798 66.6641C91.9008 66.1879 92.4597 65.9498 93.149 65.9498C93.8432 65.9498 94.3996 66.1879 94.8156 66.6616C95.2342 67.1403 95.4422 67.8095 95.4422 68.6716ZM94.55 68.6716C94.55 68.01 94.4297 67.5163 94.1866 67.1954C93.9435 66.8721 93.5976 66.7117 93.149 66.7117C92.6978 66.7117 92.3495 66.8721 92.1039 67.1954C91.8607 67.5188 91.7379 68.01 91.7379 68.6716C91.7379 69.3133 91.8607 69.7995 92.1039 70.1303C92.347 70.4611 92.6953 70.6265 93.149 70.6265C93.5951 70.6265 93.9385 70.4636 94.1841 70.1378C94.4272 69.8145 94.55 69.3258 94.55 68.6716Z" fill="#0071B9"/>
<path d="M99.2097 70.6967C99.1395 70.7493 99.0442 70.822 98.9264 70.9172C98.8087 71.01 98.6934 71.0852 98.5831 71.1403C98.4302 71.2205 98.2798 71.2807 98.1395 71.3258C97.9966 71.3684 97.7961 71.3909 97.538 71.3909C97.3249 71.3909 97.1244 71.3508 96.934 71.2706C96.7435 71.1904 96.5756 71.0776 96.4327 70.9348C96.2949 70.7944 96.1846 70.619 96.1019 70.411C96.0192 70.2029 95.9766 69.9849 95.9766 69.7543C95.9766 69.3984 96.0517 69.0952 96.2021 68.8445C96.3525 68.5939 96.5906 68.3959 96.9164 68.2481C97.2046 68.1152 97.5455 68.025 97.939 67.9724C98.3325 67.9222 98.756 67.8846 99.2097 67.8596V67.6917C99.2097 67.4887 99.1796 67.3232 99.1169 67.1979C99.0543 67.0726 98.9691 66.9749 98.8588 66.9072C98.7485 66.837 98.6132 66.7894 98.4528 66.7668C98.2924 66.7443 98.1295 66.7318 97.9615 66.7318C97.761 66.7318 97.5279 66.7618 97.2573 66.8245C96.9866 66.8871 96.7184 66.9749 96.4477 67.0927H96.3976V66.2079C96.558 66.1603 96.7861 66.1102 97.0843 66.0551C97.3826 65.9999 97.6783 65.9724 97.9691 65.9724C98.3224 65.9724 98.6207 65.9999 98.8638 66.0551C99.1069 66.1102 99.325 66.2104 99.5179 66.3558C99.7059 66.4962 99.8463 66.6791 99.9365 66.9047C100.029 67.1303 100.074 67.4034 100.074 67.7267V71.2531H99.2047V70.6967H99.2097ZM99.2097 69.9774V68.5613C99.0041 68.5789 98.7435 68.6039 98.4277 68.6365C98.1119 68.6691 97.8588 68.7142 97.6658 68.7719C97.4352 68.842 97.2447 68.9498 97.0944 69.0952C96.944 69.2405 96.8688 69.4435 96.8688 69.7017C96.8688 69.9949 96.9515 70.2155 97.1169 70.3659C97.2823 70.5162 97.5254 70.5914 97.8462 70.5914C98.1194 70.5914 98.3676 70.5313 98.5881 70.4135C98.8087 70.2932 99.0167 70.1478 99.2097 69.9774Z" fill="#0071B9"/>
<path d="M104.026 67.0325H103.981C103.916 67.015 103.848 67.0049 103.775 66.9999C103.702 66.9949 103.615 66.9924 103.515 66.9924C103.281 66.9924 103.048 67.0425 102.818 67.1453C102.587 67.2455 102.369 67.3959 102.164 67.5964V71.2456H101.294V66.0927H102.164V66.8596C102.479 66.5789 102.758 66.3809 102.991 66.2656C103.226 66.1503 103.454 66.0927 103.675 66.0927C103.765 66.0927 103.83 66.0952 103.875 66.1002C103.921 66.1052 103.971 66.1127 104.026 66.1202V67.0325Z" fill="#0071B9"/>
<path d="M108.631 71.2455H107.761V70.7167C107.626 70.8294 107.508 70.9247 107.41 70.9974C107.312 71.0701 107.195 71.1377 107.064 71.2004C106.941 71.258 106.814 71.3031 106.681 71.3357C106.548 71.3683 106.395 71.3833 106.22 71.3833C105.939 71.3833 105.681 71.3257 105.44 71.2079C105.202 71.0901 104.999 70.9197 104.831 70.6966C104.661 70.4685 104.53 70.1878 104.438 69.8545C104.345 69.5212 104.3 69.1377 104.3 68.7041C104.3 68.253 104.357 67.862 104.475 67.5312C104.593 67.2004 104.753 66.9121 104.961 66.6665C105.149 66.4409 105.378 66.2655 105.643 66.1377C105.909 66.0099 106.19 65.9472 106.483 65.9472C106.741 65.9472 106.966 65.9748 107.157 66.0324C107.347 66.0901 107.55 66.1778 107.763 66.2981V64.0675H108.633V71.2455H108.631ZM107.761 69.9898V67.0224C107.545 66.9197 107.352 66.8495 107.18 66.8094C107.009 66.7693 106.821 66.7517 106.621 66.7517C106.172 66.7517 105.824 66.9197 105.57 67.2505C105.317 67.5838 105.192 68.065 105.192 68.6941C105.192 69.2981 105.29 69.7618 105.483 70.0826C105.678 70.4034 105.989 70.5638 106.418 70.5638C106.646 70.5638 106.876 70.5112 107.107 70.4084C107.34 70.3056 107.558 70.1653 107.761 69.9898Z" fill="#0071B9"/>
<path d="M117.069 68.6716C117.069 69.5388 116.861 70.208 116.443 70.6792C116.024 71.1504 115.47 71.3859 114.776 71.3859C114.059 71.3859 113.498 71.1428 113.087 70.6541C112.676 70.1679 112.473 69.5062 112.473 68.6691C112.473 67.8095 112.683 67.1403 113.107 66.6641C113.528 66.1879 114.087 65.9498 114.776 65.9498C115.47 65.9498 116.027 66.1879 116.443 66.6616C116.861 67.1403 117.069 67.8095 117.069 68.6716ZM116.177 68.6716C116.177 68.01 116.057 67.5163 115.814 67.1954C115.57 66.8721 115.225 66.7117 114.776 66.7117C114.325 66.7117 113.976 66.8721 113.731 67.1954C113.488 67.5188 113.365 68.01 113.365 68.6716C113.365 69.3133 113.488 69.7995 113.731 70.1303C113.974 70.4611 114.322 70.6265 114.776 70.6265C115.222 70.6265 115.565 70.4636 115.811 70.1378C116.054 69.8145 116.177 69.3258 116.177 68.6716Z" fill="#0071B9"/>
<path d="M120.671 64.9022H120.626C120.548 64.8746 120.438 64.8495 120.295 64.822C120.149 64.7969 120.022 64.7844 119.909 64.7844C119.543 64.7844 119.282 64.8671 119.127 65.03C118.972 65.1929 118.894 65.4886 118.894 65.9172V66.0926H120.327V66.822H118.926V71.2481H118.057V66.822H117.468V66.0926H118.054V65.9222C118.054 65.3032 118.202 64.832 118.5 64.5087C118.799 64.1854 119.225 64.025 119.781 64.025C119.941 64.025 120.097 64.0325 120.25 64.05C120.403 64.0676 120.543 64.0851 120.668 64.1077V64.9022H120.671Z" fill="#0071B9"/>
<path d="M123.991 71.2456V64.3759H128.292V65.1904H124.909V67.0701H128.064V67.8846H124.909V70.431H128.292V71.2456H123.991Z" fill="#0071B9"/>
<path d="M133.232 71.2455H132.362V70.6716C132.094 70.9046 131.841 71.0826 131.603 71.2054C131.362 71.3257 131.096 71.3884 130.801 71.3884C130.575 71.3884 130.365 71.3508 130.167 71.2781C129.969 71.2054 129.796 71.0876 129.648 70.9272C129.5 70.7668 129.387 70.5663 129.304 70.3232C129.222 70.0801 129.182 69.7843 129.182 69.4385V66.0951H130.051V69.03C130.051 69.3031 130.061 69.5312 130.081 69.7117C130.101 69.8921 130.147 70.05 130.217 70.1853C130.287 70.3182 130.382 70.4134 130.505 70.4761C130.625 70.5387 130.801 70.5688 131.026 70.5688C131.239 70.5688 131.462 70.5087 131.703 70.3883C131.944 70.268 132.162 70.1202 132.362 69.9422V66.0951H133.232V71.2455Z" fill="#0071B9"/>
<path d="M137.222 67.0325H137.177C137.112 67.015 137.044 67.0049 136.971 66.9999C136.899 66.9949 136.811 66.9924 136.711 66.9924C136.478 66.9924 136.245 67.0425 136.014 67.1453C135.783 67.2455 135.565 67.3959 135.36 67.5964V71.2456H134.49V66.0927H135.36V66.8596C135.676 66.5789 135.954 66.3809 136.187 66.2656C136.423 66.1503 136.651 66.0927 136.871 66.0927C136.961 66.0927 137.027 66.0952 137.072 66.1002C137.117 66.1052 137.167 66.1127 137.222 66.1202V67.0325Z" fill="#0071B9"/>
<path d="M142.092 68.6716C142.092 69.5388 141.884 70.208 141.465 70.6792C141.047 71.1504 140.493 71.3859 139.798 71.3859C139.082 71.3859 138.52 71.1428 138.109 70.6541C137.698 70.1679 137.495 69.5062 137.495 68.6691C137.495 67.8095 137.706 67.1403 138.129 66.6641C138.55 66.1879 139.109 65.9498 139.798 65.9498C140.493 65.9498 141.049 66.1879 141.465 66.6616C141.884 67.1403 142.092 67.8095 142.092 68.6716ZM141.199 68.6716C141.199 68.01 141.079 67.5163 140.836 67.1954C140.593 66.8721 140.247 66.7117 139.798 66.7117C139.347 66.7117 138.999 66.8721 138.753 67.1954C138.51 67.5188 138.387 68.01 138.387 68.6716C138.387 69.3133 138.51 69.7995 138.753 70.1303C138.996 70.4611 139.345 70.6265 139.798 70.6265C140.245 70.6265 140.588 70.4636 140.833 70.1378C141.077 69.8145 141.199 69.3258 141.199 68.6716Z" fill="#0071B9"/>
<path d="M147.315 68.5338C147.315 69.3909 147.109 70.0752 146.698 70.5839C146.287 71.0927 145.766 71.3484 145.139 71.3484C144.884 71.3484 144.658 71.3183 144.46 71.2606C144.262 71.203 144.062 71.1128 143.856 70.9874V73.1479H142.986V66.0902H143.856V66.6315C144.072 66.4386 144.312 66.2756 144.575 66.1453C144.838 66.015 145.127 65.9498 145.437 65.9498C146.029 65.9498 146.49 66.1829 146.821 66.6516C147.149 67.1203 147.315 67.7468 147.315 68.5338ZM146.422 68.629C146.422 68.0426 146.327 67.5864 146.139 67.2606C145.951 66.9373 145.645 66.7744 145.222 66.7744C144.974 66.7744 144.736 66.8295 144.508 66.9373C144.277 67.0476 144.059 67.1879 143.854 67.3584V70.2782C144.082 70.3884 144.277 70.4636 144.44 70.5037C144.603 70.5438 144.788 70.5639 144.999 70.5639C145.45 70.5639 145.801 70.3985 146.049 70.0702C146.297 69.7418 146.422 69.2606 146.422 68.629Z" fill="#0071B9"/>
<path d="M150.442 71.3633C149.62 71.3633 148.981 71.1327 148.527 70.6691C148.074 70.2054 147.846 69.5488 147.846 68.6991C147.846 67.8595 148.066 67.1929 148.505 66.6966C148.946 66.2004 149.52 65.9523 150.232 65.9523C150.552 65.9523 150.836 65.9974 151.081 66.0901C151.327 66.1828 151.542 66.3257 151.728 66.5237C151.913 66.7192 152.054 66.9598 152.154 67.2455C152.252 67.5287 152.302 67.8771 152.302 68.2881V68.7568H148.723C148.723 69.3558 148.873 69.8144 149.177 70.1302C149.48 70.446 149.898 70.6039 150.43 70.6039C150.62 70.6039 150.808 70.5839 150.991 70.5388C151.174 70.4962 151.339 70.441 151.49 70.3733C151.648 70.3032 151.781 70.2355 151.888 70.1703C151.996 70.1052 152.086 70.0425 152.156 69.9849H152.207V70.9297C152.104 70.9698 151.979 71.02 151.828 71.0801C151.678 71.1403 151.542 71.1879 151.422 71.2205C151.252 71.2656 151.099 71.3032 150.964 71.3257C150.826 71.3508 150.65 71.3633 150.442 71.3633ZM151.455 68.0901C151.447 67.857 151.42 67.6565 151.372 67.4886C151.322 67.3207 151.252 67.1778 151.159 67.06C151.056 66.9322 150.926 66.8345 150.768 66.7668C150.61 66.6991 150.412 66.6666 150.179 66.6666C149.948 66.6666 149.75 66.7016 149.59 66.7693C149.43 66.837 149.282 66.9397 149.149 67.0701C149.019 67.2054 148.921 67.3533 148.853 67.5187C148.786 67.6816 148.743 67.8746 148.723 68.0901H151.455Z" fill="#0071B9"/>
<path d="M156.051 70.6967C155.981 70.7493 155.886 70.822 155.768 70.9172C155.65 71.01 155.535 71.0852 155.425 71.1403C155.272 71.2205 155.122 71.2807 154.981 71.3258C154.838 71.3684 154.638 71.3909 154.38 71.3909C154.167 71.3909 153.966 71.3508 153.776 71.2706C153.585 71.1904 153.417 71.0776 153.275 70.9348C153.137 70.7944 153.026 70.619 152.944 70.411C152.861 70.2029 152.818 69.9849 152.818 69.7543C152.818 69.3984 152.894 69.0952 153.044 68.8445C153.194 68.5939 153.432 68.3959 153.758 68.2481C154.046 68.1152 154.387 68.025 154.781 67.9724C155.174 67.9222 155.598 67.8846 156.051 67.8596V67.6917C156.051 67.4887 156.021 67.3232 155.959 67.1979C155.896 67.0726 155.811 66.9749 155.701 66.9072C155.59 66.837 155.455 66.7894 155.295 66.7668C155.134 66.7443 154.971 66.7318 154.803 66.7318C154.605 66.7318 154.37 66.7618 154.099 66.8245C153.828 66.8871 153.56 66.9749 153.29 67.0927H153.239V66.2079C153.4 66.1603 153.628 66.1102 153.926 66.0551C154.224 65.9999 154.52 65.9724 154.811 65.9724C155.164 65.9724 155.462 65.9999 155.706 66.0551C155.949 66.1102 156.167 66.2104 156.36 66.3558C156.548 66.4962 156.688 66.6791 156.778 66.9047C156.871 67.1303 156.916 67.4034 156.916 67.7267V71.2531H156.046V70.6967H156.051ZM156.051 69.9774V68.5613C155.846 68.5789 155.585 68.6039 155.27 68.6365C154.954 68.6691 154.701 68.7142 154.508 68.7719C154.277 68.842 154.087 68.9498 153.936 69.0952C153.786 69.2405 153.711 69.4435 153.711 69.7017C153.711 69.9949 153.793 70.2155 153.959 70.3659C154.124 70.5162 154.367 70.5914 154.688 70.5914C154.961 70.5914 155.209 70.5313 155.43 70.4135C155.65 70.2932 155.858 70.1478 156.051 69.9774Z" fill="#0071B9"/>
<path d="M162.185 71.2456H161.315V68.3107C161.315 68.0727 161.303 67.8521 161.28 67.6491C161.258 67.4461 161.212 67.2807 161.15 67.1579C161.08 67.0275 160.982 66.9323 160.854 66.8696C160.729 66.807 160.556 66.7744 160.338 66.7744C160.122 66.7744 159.902 66.832 159.674 66.9473C159.446 67.0626 159.222 67.213 159.004 67.3959V71.2456H158.135V66.0927H159.004V66.6666C159.263 66.436 159.518 66.2581 159.769 66.1353C160.022 66.0125 160.288 65.9498 160.566 65.9498C161.072 65.9498 161.468 66.1177 161.754 66.4511C162.04 66.7844 162.182 67.2681 162.182 67.9022V71.2456H162.185Z" fill="#0071B9"/>
<path d="M87.5877 82.7068C87.0889 82.7068 86.6679 82.6542 86.317 82.5514C85.9686 82.4487 85.6403 82.3209 85.332 82.1705V81.0276H85.3972C85.698 81.3083 86.0388 81.5264 86.4198 81.6818C86.8007 81.8372 87.1691 81.9123 87.5225 81.9123C88.0263 81.9123 88.4072 81.8071 88.6654 81.5965C88.9235 81.386 89.0539 81.1078 89.0539 80.7645C89.0539 80.4913 88.9862 80.2682 88.8508 80.0953C88.7155 79.9224 88.5 79.7945 88.2042 79.7118C87.9912 79.6492 87.7982 79.599 87.6228 79.5589C87.4473 79.5188 87.2268 79.4662 86.9636 79.3985C86.728 79.3359 86.515 79.2582 86.327 79.163C86.1391 79.0677 85.9736 78.9424 85.8283 78.7895C85.6879 78.6391 85.5776 78.4612 85.4974 78.2557C85.4198 78.0502 85.3797 77.8146 85.3797 77.5464C85.3797 76.99 85.5952 76.5238 86.0313 76.1454C86.4649 75.7695 87.0188 75.5815 87.6929 75.5815C88.0764 75.5815 88.4398 75.6191 88.7832 75.6968C89.1265 75.7745 89.4423 75.8822 89.7356 76.0251V77.1178H89.6654C89.4473 76.9198 89.1666 76.7444 88.8258 76.5965C88.4849 76.4487 88.1265 76.3735 87.7506 76.3735C87.327 76.3735 86.9837 76.4737 86.7205 76.6717C86.4599 76.8697 86.327 77.1304 86.327 77.4537C86.327 77.7469 86.4047 77.9775 86.5576 78.1504C86.7105 78.3234 86.9361 78.4487 87.2293 78.5289C87.4223 78.5815 87.6604 78.6416 87.9386 78.7068C88.2193 78.772 88.4498 78.8346 88.6353 78.8898C89.109 79.0351 89.4549 79.2532 89.6729 79.5464C89.891 79.8397 90.0012 80.198 90.0012 80.6266C90.0012 80.8948 89.9461 81.158 89.8383 81.4211C89.7306 81.6818 89.5777 81.9048 89.3797 82.0853C89.1591 82.2858 88.9085 82.4387 88.6303 82.5464C88.3521 82.6542 88.0062 82.7068 87.5877 82.7068Z" fill="#0071B9"/>
<path d="M92.4198 82.6842C91.9461 82.6842 91.5776 82.5489 91.3145 82.2807C91.0513 82.0125 90.9185 81.589 90.9185 81.0075V78.1579H90.332V77.4285H90.9185V75.9473H91.7882V77.4285H93.3772V78.1579H91.7882V80.604C91.7882 80.8646 91.7932 81.0651 91.8007 81.208C91.8107 81.3484 91.8458 81.4812 91.906 81.604C91.9586 81.7118 92.0413 81.792 92.1591 81.8446C92.2744 81.8972 92.4323 81.9248 92.6328 81.9248C92.7731 81.9248 92.911 81.9047 93.0413 81.8621C93.1742 81.822 93.2669 81.7869 93.327 81.7594H93.3772V82.5363C93.2142 82.5814 93.0488 82.619 92.8809 82.6441C92.7155 82.6717 92.5601 82.6842 92.4198 82.6842Z" fill="#0071B9"/>
<path d="M98.0335 82.5814H97.1639V82.0075C96.8957 82.2406 96.6426 82.4185 96.4045 82.5413C96.1639 82.6616 95.8982 82.7243 95.6025 82.7243C95.3794 82.7243 95.1664 82.6867 94.9684 82.614C94.7704 82.5413 94.5974 82.4235 94.4496 82.2631C94.3017 82.1027 94.1889 81.9022 94.1062 81.6591C94.0235 81.416 93.9834 81.1203 93.9834 80.7744V77.431H94.8531V80.3659C94.8531 80.6391 94.8631 80.8671 94.8832 81.0476C94.9032 81.228 94.9483 81.3859 95.0185 81.5213C95.0887 81.6541 95.1839 81.7494 95.3067 81.812C95.427 81.8747 95.6025 81.9047 95.828 81.9047C96.0386 81.9047 96.2641 81.8446 96.5047 81.7243C96.7453 81.604 96.9634 81.4561 97.1639 81.2782V77.431H98.0335V82.5814Z" fill="#0071B9"/>
<path d="M103.262 82.5814H102.392V82.0526C102.257 82.1654 102.139 82.2606 102.041 82.3333C101.944 82.406 101.828 82.4737 101.696 82.5363C101.573 82.594 101.445 82.6391 101.312 82.6716C101.179 82.7042 101.026 82.7193 100.851 82.7193C100.57 82.7193 100.31 82.6616 100.071 82.5438C99.8333 82.426 99.6303 82.2556 99.4649 82.0326C99.2945 81.8045 99.1642 81.5238 99.0714 81.1904C98.9787 80.8571 98.9336 80.4736 98.9336 80.0401C98.9336 79.5889 98.9912 79.1979 99.109 78.8671C99.2268 78.5363 99.3872 78.2481 99.5953 78.0025C99.7832 77.7769 100.011 77.6015 100.277 77.4736C100.543 77.3458 100.823 77.2832 101.117 77.2832C101.375 77.2832 101.6 77.3107 101.791 77.3684C101.981 77.426 102.184 77.5137 102.397 77.634V75.4034H103.267V82.5814H103.262ZM102.392 81.3258V78.3583C102.177 78.2556 101.984 78.1854 101.811 78.1453C101.64 78.1052 101.455 78.0877 101.254 78.0877C100.806 78.0877 100.457 78.2531 100.204 78.5864C99.9511 78.9198 99.8258 79.401 99.8258 80.03C99.8258 80.634 99.9236 81.0977 100.117 81.4185C100.312 81.7393 100.623 81.8997 101.051 81.8997C101.279 81.8997 101.51 81.8471 101.741 81.7443C101.971 81.6416 102.189 81.5012 102.392 81.3258Z" fill="#0071B9"/>
<path d="M106.748 82.6993C105.926 82.6993 105.287 82.4687 104.833 82.005C104.379 81.5414 104.151 80.8847 104.151 80.0351C104.151 79.1955 104.372 78.5288 104.811 78.0326C105.249 77.5363 105.826 77.2882 106.537 77.2882C106.858 77.2882 107.141 77.3333 107.387 77.4261C107.633 77.5188 107.848 77.6616 108.034 77.8596C108.219 78.0551 108.359 78.2957 108.46 78.5814C108.557 78.8647 108.608 79.213 108.608 79.6241V80.0927H105.029C105.029 80.6917 105.179 81.1504 105.482 81.4662C105.785 81.782 106.204 81.9399 106.735 81.9399C106.926 81.9399 107.114 81.9173 107.297 81.8747C107.48 81.8321 107.645 81.777 107.795 81.7093C107.953 81.6391 108.086 81.5714 108.194 81.5063C108.302 81.4411 108.392 81.3785 108.462 81.3208H108.512V82.2657C108.41 82.3058 108.284 82.3559 108.134 82.4161C107.983 82.4762 107.848 82.5238 107.728 82.5564C107.557 82.6015 107.405 82.6391 107.269 82.6617C107.131 82.6867 106.958 82.6993 106.748 82.6993ZM107.763 79.4261C107.755 79.193 107.728 78.9925 107.68 78.8246C107.63 78.6566 107.56 78.5138 107.467 78.396C107.364 78.2682 107.234 78.1704 107.076 78.1027C106.918 78.0351 106.72 78.0025 106.487 78.0025C106.257 78.0025 106.059 78.0376 105.898 78.1053C105.735 78.1754 105.59 78.2757 105.457 78.406C105.327 78.5414 105.229 78.6892 105.161 78.8546C105.094 79.0175 105.051 79.2105 105.031 79.4261H107.763Z" fill="#0071B9"/>
<path d="M113.533 82.5815H112.663V79.6467C112.663 79.4086 112.65 79.188 112.628 78.985C112.605 78.782 112.56 78.6166 112.497 78.4938C112.427 78.3635 112.33 78.2682 112.202 78.2056C112.076 78.1429 111.903 78.1103 111.685 78.1103C111.47 78.1103 111.249 78.168 111.021 78.2833C110.793 78.3985 110.57 78.5489 110.352 78.7319V82.5815H109.482V77.4286H110.352V78.0026C110.61 77.772 110.866 77.594 111.117 77.4712C111.37 77.3484 111.635 77.2858 111.914 77.2858C112.42 77.2858 112.816 77.4512 113.101 77.787C113.387 78.1204 113.53 78.6041 113.53 79.2382V82.5815H113.533Z" fill="#0071B9"/>
<path d="M116.307 82.6842C115.834 82.6842 115.465 82.5489 115.202 82.2807C114.939 82.0125 114.806 81.589 114.806 81.0075V78.1579H114.22V77.4285H114.806V75.9473H115.676V77.4285H117.265V78.1579H115.676V80.604C115.676 80.8646 115.681 81.0651 115.688 81.208C115.698 81.3484 115.734 81.4812 115.794 81.604C115.846 81.7118 115.929 81.792 116.047 81.8446C116.162 81.8972 116.32 81.9248 116.52 81.9248C116.661 81.9248 116.799 81.9047 116.929 81.8621C117.062 81.822 117.155 81.7869 117.215 81.7594H117.265V82.5363C117.102 82.5814 116.937 82.619 116.769 82.6441C116.603 82.6717 116.45 82.6842 116.307 82.6842Z" fill="#0071B9"/>
<path d="M119.303 82.6992C118.957 82.6992 118.636 82.6541 118.335 82.5614C118.034 82.4687 117.786 82.3709 117.591 82.2657V81.2907H117.636C117.709 81.3509 117.796 81.416 117.897 81.4862C117.997 81.5589 118.13 81.6316 118.295 81.7093C118.443 81.7769 118.603 81.8396 118.781 81.8922C118.957 81.9448 119.142 81.9724 119.33 81.9724C119.468 81.9724 119.616 81.9574 119.771 81.9248C119.927 81.8922 120.044 81.8521 120.122 81.802C120.23 81.7318 120.308 81.6566 120.355 81.5739C120.403 81.4937 120.428 81.3734 120.428 81.213C120.428 81.005 120.373 80.8496 120.26 80.7443C120.15 80.6391 119.952 80.5514 119.669 80.4812C119.558 80.4536 119.413 80.4235 119.235 80.3859C119.057 80.3509 118.892 80.3108 118.741 80.2682C118.348 80.1554 118.062 79.9774 117.884 79.7393C117.706 79.5012 117.616 79.213 117.616 78.8747C117.616 78.411 117.791 78.0326 118.142 77.7393C118.493 77.4486 118.959 77.3007 119.541 77.3007C119.826 77.3007 120.115 77.3358 120.403 77.406C120.691 77.4762 120.934 77.5664 121.132 77.6742V78.6015H121.087C120.867 78.426 120.621 78.2857 120.348 78.1829C120.077 78.0802 119.801 78.03 119.526 78.03C119.24 78.03 118.999 78.0902 118.804 78.2105C118.608 78.3308 118.508 78.5138 118.508 78.7569C118.508 78.9724 118.566 79.1328 118.681 79.2406C118.796 79.3458 118.982 79.4336 119.237 79.5012C119.365 79.5338 119.511 79.5689 119.669 79.6015C119.826 79.6341 119.994 79.6717 120.17 79.7143C120.551 79.8095 120.839 79.9674 121.029 80.188C121.222 80.4085 121.318 80.7093 121.318 81.0902C121.318 81.3108 121.273 81.5213 121.185 81.7193C121.097 81.9173 120.969 82.0877 120.799 82.2281C120.613 82.3809 120.405 82.4987 120.175 82.5789C119.944 82.6591 119.653 82.6992 119.303 82.6992Z" fill="#0071B9"/>
<path d="M129.317 80.0076C129.317 80.8748 129.109 81.5439 128.691 82.0151C128.272 82.4863 127.718 82.7219 127.024 82.7219C126.307 82.7219 125.746 82.4788 125.335 81.99C124.926 81.5038 124.721 80.8422 124.721 80.0051C124.721 79.1454 124.931 78.4762 125.355 78C125.776 77.5239 126.335 77.2858 127.024 77.2858C127.718 77.2858 128.275 77.5239 128.691 77.9975C129.107 78.4737 129.317 79.1429 129.317 80.0076ZM128.422 80.0076C128.422 79.3459 128.302 78.8522 128.059 78.5314C127.816 78.2081 127.47 78.0477 127.021 78.0477C126.57 78.0477 126.222 78.2081 125.976 78.5314C125.733 78.8547 125.61 79.3459 125.61 80.0076C125.61 80.6492 125.733 81.1354 125.976 81.4662C126.219 81.7971 126.568 81.9625 127.021 81.9625C127.468 81.9625 127.811 81.7996 128.057 81.4738C128.302 81.1504 128.422 80.6617 128.422 80.0076Z" fill="#0071B9"/>
<path d="M132.919 76.2381H132.874C132.796 76.2105 132.686 76.1855 132.543 76.1579C132.398 76.1328 132.27 76.1203 132.157 76.1203C131.791 76.1203 131.531 76.203 131.375 76.3659C131.22 76.5288 131.142 76.8246 131.142 77.2531V77.4286H132.576V78.1579H131.175V82.584H130.305V78.1579H129.719V77.4286H130.305V77.2582C130.305 76.6391 130.453 76.1679 130.751 75.8446C131.05 75.5213 131.476 75.3609 132.032 75.3609C132.192 75.3609 132.348 75.3684 132.503 75.386C132.656 75.4035 132.796 75.4211 132.922 75.4436V76.2381H132.919Z" fill="#0071B9"/>
<path d="M137.843 82.5814V76.5263H135.54V75.7117H141.061V76.5263H138.758V82.5814H137.843Z" fill="#0071B9"/>
<path d="M142.959 82.6993C142.137 82.6993 141.498 82.4687 141.044 82.005C140.59 81.5414 140.362 80.8847 140.362 80.0351C140.362 79.1955 140.583 78.5288 141.021 78.0326C141.463 77.5363 142.037 77.2882 142.748 77.2882C143.069 77.2882 143.352 77.3333 143.598 77.4261C143.844 77.5188 144.059 77.6616 144.245 77.8596C144.43 78.0551 144.57 78.2957 144.671 78.5814C144.768 78.8647 144.818 79.213 144.818 79.6241V80.0927H141.24C141.24 80.6917 141.39 81.1504 141.693 81.4662C141.996 81.782 142.415 81.9399 142.946 81.9399C143.137 81.9399 143.325 81.9173 143.508 81.8747C143.691 81.8321 143.856 81.777 144.006 81.7093C144.164 81.6391 144.297 81.5714 144.405 81.5063C144.513 81.4411 144.603 81.3785 144.673 81.3208H144.723V82.2657C144.62 82.3058 144.495 82.3559 144.345 82.4161C144.194 82.4762 144.059 82.5238 143.939 82.5564C143.768 82.6015 143.615 82.6391 143.48 82.6617C143.34 82.6867 143.167 82.6993 142.959 82.6993ZM143.971 79.4261C143.964 79.193 143.936 78.9925 143.889 78.8246C143.839 78.6566 143.768 78.5138 143.676 78.396C143.573 78.2682 143.443 78.1704 143.285 78.1027C143.127 78.0351 142.929 78.0025 142.696 78.0025C142.465 78.0025 142.267 78.0376 142.107 78.1053C141.944 78.1754 141.798 78.2757 141.666 78.406C141.535 78.5414 141.438 78.6892 141.37 78.8546C141.302 79.0175 141.26 79.2105 141.24 79.4261H143.971Z" fill="#0071B9"/>
<path d="M147.736 82.6993C147.382 82.6993 147.056 82.6441 146.763 82.5364C146.467 82.4261 146.214 82.2607 146.001 82.0401C145.788 81.8196 145.625 81.5389 145.507 81.203C145.39 80.8672 145.332 80.4712 145.332 80.0151C145.332 79.5639 145.392 79.173 145.515 78.8446C145.635 78.5163 145.798 78.2381 146.001 78.0151C146.204 77.7895 146.457 77.6166 146.761 77.4963C147.064 77.376 147.387 77.3133 147.736 77.3133C148.019 77.3133 148.292 77.3534 148.555 77.4336C148.818 77.5138 149.051 77.6065 149.259 77.7093V78.6842H149.209C149.147 78.6316 149.069 78.574 148.971 78.5063C148.873 78.4386 148.756 78.3709 148.618 78.3008C148.497 78.2406 148.357 78.188 148.192 78.1404C148.029 78.0953 147.871 78.0727 147.721 78.0727C147.272 78.0727 146.911 78.2406 146.638 78.5815C146.365 78.9198 146.229 79.3985 146.229 80.0176C146.229 80.6241 146.362 81.0978 146.625 81.4361C146.888 81.7745 147.254 81.9449 147.723 81.9449C148.006 81.9449 148.277 81.8873 148.533 81.772C148.788 81.6567 149.014 81.5088 149.212 81.3258H149.262V82.2983C149.177 82.3384 149.069 82.386 148.939 82.4436C148.808 82.5013 148.693 82.5439 148.588 82.5715C148.44 82.6141 148.307 82.6467 148.192 82.6717C148.069 82.6893 147.919 82.6993 147.736 82.6993Z" fill="#0071B9"/>
<path d="M154.101 82.5815H153.232V79.6467C153.232 79.4086 153.219 79.188 153.197 78.985C153.174 78.7795 153.129 78.6166 153.066 78.4938C152.996 78.3635 152.898 78.2682 152.773 78.2056C152.648 78.1429 152.475 78.1103 152.257 78.1103C152.041 78.1103 151.821 78.168 151.593 78.2833C151.364 78.3986 151.141 78.5489 150.923 78.7319V82.5815H150.054V75.4061H150.923V78.0001C151.182 77.7695 151.437 77.5915 151.688 77.4687C151.938 77.3459 152.204 77.2833 152.485 77.2833C152.991 77.2833 153.387 77.4487 153.673 77.7845C153.958 78.1179 154.101 78.6016 154.101 79.2357V82.5815Z" fill="#0071B9"/>
<path d="M159.368 82.5815H158.498V79.6467C158.498 79.4086 158.486 79.188 158.463 78.985C158.441 78.782 158.396 78.6166 158.333 78.4938C158.263 78.3635 158.165 78.2682 158.04 78.2056C157.914 78.1429 157.741 78.1103 157.523 78.1103C157.308 78.1103 157.087 78.168 156.859 78.2833C156.631 78.3985 156.408 78.5489 156.19 78.7319V82.5815H155.32V77.4286H156.19V78.0026C156.448 77.772 156.704 77.594 156.954 77.4712C157.205 77.3484 157.471 77.2858 157.751 77.2858C158.258 77.2858 158.654 77.4512 158.939 77.787C159.225 78.1204 159.368 78.6041 159.368 79.2382V82.5815Z" fill="#0071B9"/>
<path d="M164.823 80.0076C164.823 80.8748 164.615 81.5439 164.197 82.0151C163.778 82.4863 163.224 82.7219 162.53 82.7219C161.813 82.7219 161.252 82.4788 160.841 81.99C160.432 81.5038 160.227 80.8422 160.227 80.0051C160.227 79.1454 160.437 78.4762 160.861 78C161.282 77.5239 161.841 77.2858 162.53 77.2858C163.224 77.2858 163.78 77.5239 164.197 77.9975C164.615 78.4737 164.823 79.1429 164.823 80.0076ZM163.931 80.0076C163.931 79.3459 163.811 78.8522 163.567 78.5314C163.324 78.2081 162.978 78.0477 162.53 78.0477C162.079 78.0477 161.73 78.2081 161.485 78.5314C161.242 78.8547 161.119 79.3459 161.119 80.0076C161.119 80.6492 161.242 81.1354 161.485 81.4662C161.728 81.7971 162.076 81.9625 162.53 81.9625C162.976 81.9625 163.319 81.7996 163.565 81.4738C163.808 81.1504 163.931 80.6617 163.931 80.0076Z" fill="#0071B9"/>
<path d="M166.608 82.5815H165.738V75.4061H166.608V82.5815Z" fill="#0071B9"/>
<path d="M172.112 80.0076C172.112 80.8748 171.904 81.5439 171.486 82.0151C171.067 82.4863 170.513 82.7219 169.819 82.7219C169.102 82.7219 168.541 82.4788 168.13 81.99C167.721 81.5038 167.516 80.8422 167.516 80.0051C167.516 79.1454 167.726 78.4762 168.15 78C168.571 77.5239 169.13 77.2858 169.819 77.2858C170.513 77.2858 171.07 77.5239 171.486 77.9975C171.904 78.4737 172.112 79.1429 172.112 80.0076ZM171.22 80.0076C171.22 79.3459 171.1 78.8522 170.856 78.5314C170.613 78.2081 170.268 78.0477 169.819 78.0477C169.368 78.0477 169.019 78.2081 168.774 78.5314C168.531 78.8547 168.408 79.3459 168.408 80.0076C168.408 80.6492 168.531 81.1354 168.774 81.4662C169.017 81.7971 169.365 81.9625 169.819 81.9625C170.265 81.9625 170.608 81.7996 170.854 81.4738C171.097 81.1504 171.22 80.6617 171.22 80.0076Z" fill="#0071B9"/>
<path d="M173.182 83.4036C173.239 83.4287 173.327 83.4612 173.44 83.5013C173.555 83.5414 173.683 83.5815 173.828 83.6166C173.989 83.6567 174.136 83.6868 174.272 83.7119C174.407 83.7369 174.555 83.747 174.715 83.747C174.984 83.747 175.212 83.7119 175.397 83.6417C175.583 83.5715 175.73 83.4738 175.833 83.3485C175.931 83.2231 176.001 83.0778 176.041 82.9124C176.081 82.7469 176.101 82.559 176.101 82.3484V81.8998C175.868 82.1028 175.638 82.2532 175.412 82.3484C175.187 82.4462 174.906 82.4938 174.565 82.4938C173.976 82.4938 173.507 82.2758 173.159 81.8397C172.811 81.4036 172.638 80.7745 172.638 79.9575C172.638 79.5289 172.698 79.1504 172.818 78.8196C172.938 78.4888 173.101 78.2081 173.304 77.9775C173.497 77.7569 173.728 77.5865 173.994 77.4662C174.259 77.3459 174.532 77.2858 174.816 77.2858C175.084 77.2858 175.314 77.3183 175.512 77.381C175.708 77.4437 175.903 77.5339 176.101 77.6517L176.152 77.4286H176.971V81.9951C176.971 82.8672 176.781 83.5089 176.397 83.9174C176.014 84.3259 175.43 84.5314 174.645 84.5314C174.392 84.5314 174.134 84.5114 173.871 84.4713C173.608 84.4312 173.362 84.376 173.134 84.3084V83.4036H173.182ZM176.104 81.1855V78.3559C175.888 78.2532 175.688 78.1805 175.505 78.1354C175.322 78.0903 175.139 78.0702 174.956 78.0702C174.515 78.0702 174.167 78.2306 173.913 78.5539C173.66 78.8773 173.535 79.3409 173.535 79.9424C173.535 80.5138 173.63 80.9499 173.823 81.2482C174.016 81.5464 174.329 81.6968 174.761 81.6968C174.986 81.6968 175.217 81.6517 175.457 81.5615C175.698 81.4738 175.913 81.3484 176.104 81.1855Z" fill="#0071B9"/>
<path d="M182.275 77.4286L179.506 84.4863H178.581L179.503 82.3384L177.631 77.4286H178.561L179.972 81.2582L181.375 77.4286H182.275Z" fill="#0071B9"/>
<path d="M69.5094 60.2957L62.5294 56.2731H44.3013L37.3213 60.2957C44.0005 71.8973 63.968 90.9024 85.6047 92.544C78.0634 88.3184 66.0658 73.1454 69.5094 60.2957Z" fill="#0071B9"/>
<path d="M54.565 38.4935L54.4297 38.2579L54.565 38.4935ZM74.4423 0.375549C74.5526 9.01469 67.4147 26.9897 54.5625 30.4333L54.5675 38.491L63.6829 54.2781L70.6553 58.3132C77.3646 46.7317 83.8358 19.932 74.4423 0.375549Z" fill="#FFA615"/>
<path d="M0.201172 56.1303C7.62978 51.7092 26.7702 48.9047 36.1763 58.3132L43.1513 54.2781L43.0134 54.5187L52.2641 38.4961L52.2716 30.4384C38.8856 30.4183 12.4443 38.2129 0.201172 56.1303Z" fill="#75BF1E"/>
<path d="M49.1436 49.6815C49.1436 47.3231 51.0533 45.4083 53.4142 45.4083C55.7752 45.4083 57.69 47.3231 57.69 49.6815C57.69 52.0424 55.7752 53.9547 53.4142 53.9547C51.0533 53.9547 49.1436 52.0424 49.1436 49.6815Z" fill="#0071B9"/>
</svg>
