<svg width="123" height="118" viewBox="0 0 123 118" fill="none" xmlns="http://www.w3.org/2000/svg">
<path d="M121.354 58.8225C121.354 91.3089 94.3507 117.645 61.0399 117.645C27.7291 117.645 0.725586 91.3107 0.725586 58.8225C0.725586 26.3343 27.7291 0 61.0399 0C94.3507 0 121.354 26.3361 121.354 58.8225Z" fill="#272838"/>
<path d="M114.461 58.8225C114.461 87.5585 90.5674 110.897 61.0403 110.897C31.5133 110.897 7.62012 87.5601 7.62012 58.8225C7.62012 30.0849 31.5133 6.74829 61.0403 6.74829C90.5674 6.74829 114.461 30.0865 114.461 58.8225Z" stroke="white" stroke-width="2"/>
<path d="M62.5406 83.3423C81.5376 83.0401 98.1029 75.2902 107.427 63.8765C97.3958 51.0064 79.7475 42.6087 59.769 42.9266C41.1898 43.2222 24.8678 50.992 14.9356 62.6777C24.1558 75.2745 42.0762 83.6679 62.5406 83.3423Z" fill="white"/>
<path d="M80.8714 63.1323C80.8714 73.9752 72.1879 82.7654 61.4762 82.7654C50.7645 82.7654 42.0811 73.9759 42.0811 63.1323C42.0811 52.2888 50.7645 43.4993 61.4762 43.4993C72.1879 43.4993 80.8714 52.2894 80.8714 63.1323Z" fill="#272838"/>
<path d="M66.2181 62.6848C66.2181 65.8418 64.1196 68.4011 61.5309 68.4011C58.9422 68.4011 56.8438 65.842 56.8438 62.6848C56.8438 59.5276 58.9422 56.9685 61.5309 56.9685C64.1196 56.9685 66.2181 59.5278 66.2181 62.6848Z" fill="white"/>
</svg>
